<svg width="16" height="16" viewBox="0 0 16 16" fill="none" xmlns="http://www.w3.org/2000/svg">
<path fill-rule="evenodd" clip-rule="evenodd" d="M8 2C5.23858 2 3 2.86655 3 3.93548V5.48247C3.19692 5.61303 3.43083 5.74138 3.70502 5.86443C4.77851 6.3462 6.29659 6.65709 8.00007 6.65709C9.70354 6.65709 11.2216 6.3462 12.2951 5.86443C12.5692 5.74141 12.8031 5.61309 13 5.48256V3.93548C13 2.86655 10.7614 2 8 2ZM3 9.1643V6.63536C3.09674 6.68468 3.19542 6.73182 3.29557 6.77677C4.52527 7.32864 6.189 7.65709 8.00007 7.65709C9.81113 7.65709 11.4749 7.32864 12.7046 6.77677C12.8047 6.73184 12.9033 6.68472 13 6.63543V9.16438C12.8031 9.29491 12.5692 9.42323 12.2951 9.54626C11.2216 10.028 9.70354 10.3389 8.00007 10.3389C6.29659 10.3389 4.77851 10.028 3.70502 9.54626C3.43083 9.4232 3.19692 9.29485 3 9.1643ZM3 10.3172V12.0645C3 13.1335 5.23858 14 8 14C10.7614 14 13 13.1335 13 12.0645V10.3173C12.9033 10.3665 12.8047 10.4137 12.7046 10.4586C11.4749 11.0105 9.81113 11.3389 8.00007 11.3389C6.189 11.3389 4.52527 11.0105 3.29557 10.4586C3.19542 10.4136 3.09674 10.3665 3 10.3172Z" fill="#A842EB"/>
</svg>
