<svg width="16" height="16" viewBox="0 0 16 16" fill="none" xmlns="http://www.w3.org/2000/svg">
<path d="M3.19538 12.8612C2.10867 11.7097 1.47288 10.119 1.4745 8.2211C1.47306 6.54269 2.00043 5.09995 2.90713 4.00208L2.90563 4.00266H1V12.8613H3.194L3.19532 12.8611L3.19538 12.8612ZM13.2314 12.8619C13.6995 12.3605 14.119 11.7701 14.499 11.0949L12.3898 10.0403C11.649 11.2446 10.5658 12.353 9.06779 12.3604C6.8876 12.353 6.031 10.4888 6.03574 8.08928H14.1827C14.1936 7.81837 14.1936 7.69239 14.1827 7.56196C14.2359 6.13442 13.8575 4.93444 13.1693 4L13.1657 4.00266H15V12.8614H13.2275L13.2314 12.862V12.8619Z" fill="#EA4B67"/>
<path d="M6.1676 6.0328C6.25775 4.94638 7.11435 4.21582 8.11866 4.21362C9.12978 4.21582 9.8604 4.94638 9.88513 6.0328H6.1676Z" fill="#EA4B67"/>
</svg>
