<svg width="16" height="16" viewBox="0 0 16 16" fill="none" xmlns="http://www.w3.org/2000/svg">
<path d="M1.22469 11L3.43269 2.24H5.36469L7.58469 11H6.04869L5.56869 8.876H3.24069L2.76069 11H1.22469ZM3.51669 7.652H5.29269L4.76469 5.3C4.67669 4.908 4.60069 4.556 4.53669 4.244C4.47269 3.924 4.42869 3.692 4.40469 3.548C4.38069 3.692 4.33669 3.924 4.27269 4.244C4.20869 4.556 4.13269 4.904 4.04469 5.288L3.51669 7.652ZM10.868 11.12C10.188 11.12 9.652 10.944 9.26 10.592C8.868 10.232 8.672 9.744 8.672 9.128C8.672 8.48 8.888 7.98 9.32 7.628C9.76 7.276 10.372 7.1 11.156 7.1H12.8V6.536C12.8 6.216 12.696 5.968 12.488 5.792C12.28 5.608 11.996 5.516 11.636 5.516C11.308 5.516 11.036 5.588 10.82 5.732C10.604 5.876 10.476 6.072 10.436 6.32H8.972C9.044 5.696 9.324 5.2 9.812 4.832C10.3 4.464 10.924 4.28 11.684 4.28C12.484 4.28 13.12 4.484 13.592 4.892C14.064 5.292 14.3 5.836 14.3 6.524V11H12.848V9.848H12.824C12.744 10.24 12.528 10.552 12.176 10.784C11.832 11.008 11.396 11.12 10.868 11.12ZM11.36 9.992C11.784 9.992 12.128 9.884 12.392 9.668C12.664 9.452 12.8 9.172 12.8 8.828V8.024H11.18C10.876 8.024 10.632 8.112 10.448 8.288C10.264 8.464 10.172 8.696 10.172 8.984C10.172 9.296 10.276 9.544 10.484 9.728C10.7 9.904 10.992 9.992 11.36 9.992Z" fill="#1A85F6"/>
</svg>
