<svg width="16" height="16" viewBox="0 0 16 16" fill="none" xmlns="http://www.w3.org/2000/svg">
<path d="M14.2388 3.50666C13.8317 3.0995 13.2823 2.8664 12.7067 2.85653C12.131 2.84666 11.5739 3.06079 11.1531 3.45375C11.132 3.47381 11.1152 3.49795 11.1037 3.5247C11.0923 3.55145 11.0863 3.58025 11.0863 3.60936C11.0863 3.63847 11.0923 3.66727 11.1037 3.69402C11.1152 3.72077 11.132 3.74491 11.1531 3.76497L11.4207 4.03884C11.4569 4.07481 11.5049 4.09651 11.5557 4.09994C11.6066 4.10337 11.6571 4.08831 11.6977 4.05752C11.9544 3.8525 12.2804 3.75465 12.6075 3.78442C12.9347 3.8142 13.2376 3.9693 13.4531 4.21729C13.6685 4.46528 13.7797 4.78695 13.7635 5.11505C13.7472 5.44314 13.6047 5.75225 13.3659 5.97773C11.6028 7.73922 9.25 2.8002 3.9095 5.34596C3.81937 5.38925 3.73919 5.45076 3.67401 5.5266C3.60884 5.60244 3.5601 5.69097 3.53085 5.78659C3.50161 5.88221 3.49251 5.98286 3.50411 6.08218C3.51572 6.1815 3.54778 6.27733 3.59829 6.36364L4.51482 7.94618C4.60972 8.11125 4.76598 8.23215 4.94958 8.28256C5.13318 8.33298 5.32927 8.30884 5.49516 8.21538L5.51694 8.20294L5.49983 8.21538L5.9013 7.99131C6.35398 7.71025 6.7819 7.39113 7.1804 7.03743C7.21985 7.00147 7.27083 6.98077 7.32417 6.97906C7.37752 6.97735 7.42972 6.99474 7.47139 7.02809C7.49392 7.04698 7.5122 7.07043 7.52503 7.09689C7.53786 7.12334 7.54494 7.15222 7.54582 7.18161C7.54671 7.211 7.54136 7.24024 7.53014 7.26742C7.51892 7.2946 7.50208 7.3191 7.48073 7.33931C7.06129 7.71712 6.60931 8.05715 6.13004 8.35543H6.11604L5.7099 8.58262C5.53837 8.67894 5.34487 8.72933 5.14815 8.72889C4.9444 8.72963 4.74406 8.67665 4.56731 8.5753C4.39056 8.47394 4.24364 8.3278 4.14136 8.15159L3.27462 6.65618C1.61739 7.8357 0.599705 10.1014 1.15056 12.9708C1.1596 13.0192 1.18521 13.0628 1.22298 13.0944C1.26075 13.1259 1.30832 13.1433 1.35752 13.1435H2.33474C2.38858 13.1449 2.44092 13.1257 2.48111 13.0899C2.5213 13.054 2.54631 13.0042 2.55104 12.9506C2.59695 12.603 2.76763 12.2839 3.03128 12.0528C3.29493 11.8217 3.63359 11.6943 3.9842 11.6943C4.33481 11.6943 4.67347 11.8217 4.93712 12.0528C5.20077 12.2839 5.37144 12.603 5.41735 12.9506C5.42344 13.0016 5.44803 13.0486 5.48645 13.0827C5.52488 13.1169 5.57448 13.1357 5.62587 13.1357H6.58131C6.6326 13.1354 6.68202 13.1164 6.72038 13.0824C6.75874 13.0483 6.78341 13.0015 6.78982 12.9506C6.83574 12.603 7.00641 12.2839 7.27006 12.0528C7.53371 11.8217 7.87237 11.6943 8.22298 11.6943C8.57359 11.6943 8.91225 11.8217 9.1759 12.0528C9.43955 12.2839 9.61023 12.603 9.65614 12.9506C9.66255 13.0015 9.68723 13.0483 9.72558 13.0824C9.76394 13.1164 9.81336 13.1354 9.86465 13.1357H10.8139C10.8695 13.1357 10.9228 13.1139 10.9624 13.0749C11.002 13.0358 11.0247 12.9828 11.0255 12.9272C11.0473 11.589 11.4083 10.0516 12.4369 9.28131C16.0003 6.61573 15.0635 4.33139 14.2388 3.50666ZM10.6054 7.53226L9.92534 7.19148C9.92528 7.11867 9.94386 7.04706 9.97931 6.98347C10.0148 6.91988 10.0659 6.86642 10.1279 6.8282C10.1899 6.78998 10.2606 6.76827 10.3333 6.76513C10.4061 6.76199 10.4784 6.77753 10.5434 6.81027C10.6085 6.84301 10.664 6.89186 10.7048 6.95216C10.7456 7.01246 10.7703 7.0822 10.7765 7.15475C10.7827 7.22729 10.7703 7.30021 10.7403 7.36657C10.7103 7.43293 10.6639 7.49051 10.6054 7.53382V7.53226Z" fill="#13A4CD"/>
</svg>
