<svg width="16" height="16" viewBox="0 0 16 16" fill="none" xmlns="http://www.w3.org/2000/svg">
<path d="M2.39036 11.3737L2.9043 11.6704L8.62978 1.75386L8.11584 1.45713L2.39036 11.3737Z" fill="#E535AB"/>
<path d="M13.7234 10.5813H2.27246V11.1747H13.7234V10.5813Z" fill="#E535AB"/>
<path d="M2.49942 10.9146L8.22705 14.2216L8.52378 13.7076L2.79615 10.4006L2.49942 10.9146Z" fill="#E535AB"/>
<path d="M7.47501 2.29585L13.2026 5.60278L13.4994 5.08885L7.77174 1.78191L7.47501 2.29585Z" fill="#E535AB"/>
<path d="M2.50112 5.0864L2.79785 5.60034L8.52547 2.29339L8.22874 1.77945L2.50112 5.0864Z" fill="#E535AB"/>
<path d="M7.37168 1.75389L13.0972 11.6704L13.6111 11.3737L7.88562 1.45716L7.37168 1.75389Z" fill="#E535AB"/>
<path d="M3.32002 4.69312H2.72656V11.307H3.32002V4.69312Z" fill="#E535AB"/>
<path d="M13.2731 4.69312H12.6797V11.307H13.2731V4.69312Z" fill="#E535AB"/>
<path d="M7.86727 13.5212L8.12646 13.9701L13.1079 11.094L12.8487 10.645L7.86727 13.5212Z" fill="#E535AB"/>
<path d="M14.0595 11.5001C13.7163 12.0971 12.9512 12.3009 12.3542 11.9577C11.7572 11.6145 11.5534 10.8494 11.8966 10.2524C12.2398 9.65535 13.0049 9.45157 13.6019 9.79477C14.2025 10.1416 14.4063 10.903 14.0595 11.5001Z" fill="#E535AB"/>
<path d="M4.09954 5.74765C3.75634 6.34469 2.99127 6.54848 2.39423 6.20527C1.79719 5.86206 1.59341 5.09699 1.93662 4.49995C2.27983 3.90291 3.04489 3.69913 3.64193 4.04233C4.23897 4.38912 4.44275 5.15061 4.09954 5.74765Z" fill="#E535AB"/>
<path d="M1.94004 11.5001C1.59683 10.903 1.80061 10.1416 2.39765 9.79477C2.99468 9.45157 3.75617 9.65535 4.10296 10.2524C4.44616 10.8494 4.24238 11.6109 3.64535 11.9577C3.04473 12.3009 2.28324 12.0971 1.94004 11.5001Z" fill="#E535AB"/>
<path d="M11.9 5.74765C11.5568 5.15061 11.7606 4.38912 12.3576 4.04233C12.9546 3.69913 13.7161 3.90291 14.0629 4.49995C14.4061 5.09699 14.2023 5.85848 13.6053 6.20527C13.0083 6.54848 12.2432 6.34469 11.9 5.74765Z" fill="#E535AB"/>
<path d="M7.99966 15.0001C7.30967 15.0001 6.75195 14.4424 6.75195 13.7524C6.75195 13.0624 7.30967 12.5046 7.99966 12.5046C8.68965 12.5046 9.24737 13.0624 9.24737 13.7524C9.24737 14.4388 8.68965 15.0001 7.99966 15.0001Z" fill="#E535AB"/>
<path d="M7.99966 3.4954C7.30967 3.4954 6.75195 2.93769 6.75195 2.2477C6.75195 1.55771 7.30967 1 7.99966 1C8.68965 1 9.24737 1.55771 9.24737 2.2477C9.24737 2.93769 8.68965 3.4954 7.99966 3.4954Z" fill="#E535AB"/>
</svg>
