<svg width="16" height="16" viewBox="0 0 16 16" fill="none" xmlns="http://www.w3.org/2000/svg">
<path fill-rule="evenodd" clip-rule="evenodd" d="M11.8035 2L13.9248 4.12132L13.1607 4.88541C13.6854 5.53057 14 6.35355 14 7.25C14 9.32107 12.3211 11 10.25 11C9.99315 11 9.74233 10.9742 9.5 10.925V14H6.5V8.62146L2 4.12146L4.12132 2.00014L7.96232 5.84114L10.2362 3.5673C10.2409 3.54508 10.2455 3.52264 10.25 3.5C10.2677 3.5 10.2854 3.50012 10.3031 3.50037L11.8035 2ZM9.5 9.89648C9.73842 9.96392 9.98999 10 10.25 10C11.7688 10 13 8.76878 13 7.25C13 6.62987 12.7947 6.05768 12.4484 5.59766L9.5 8.54611V9.89648Z" fill="#F8AB17"/>
</svg>
