<svg width="16" height="16" viewBox="0 0 16 16" fill="none" xmlns="http://www.w3.org/2000/svg">
<path d="M14 2H2V14H14V2Z" fill="#F8AB17"/>
<path d="M9.90133 10.9295C10.143 11.3242 10.4575 11.6143 11.0137 11.6143C11.4809 11.6143 11.7794 11.3808 11.7794 11.0581C11.7794 10.6714 11.4728 10.5345 10.9585 10.3095L10.6766 10.1886C9.86285 9.84191 9.32228 9.40762 9.32228 8.48952C9.32228 7.64381 9.96666 7 10.9737 7C11.6907 7 12.2061 7.24952 12.5775 7.90286L11.6994 8.46667C11.5061 8.12 11.2975 7.98343 10.9737 7.98343C10.6434 7.98343 10.4341 8.19295 10.4341 8.46667C10.4341 8.80495 10.6436 8.9419 11.1274 9.15143L11.4093 9.27219C12.3674 9.68305 12.9084 10.1019 12.9084 11.0436C12.9084 12.0589 12.1108 12.615 11.0398 12.615C9.99256 12.615 9.31599 12.116 8.98495 11.4619L9.90133 10.9295ZM5.9179 11.0272C6.09505 11.3415 6.25619 11.6072 6.64362 11.6072C7.01409 11.6072 7.24781 11.4623 7.24781 10.8987V7.06438H8.37542V10.9139C8.37542 12.0815 7.69085 12.613 6.69162 12.613C5.78876 12.613 5.2659 12.1457 5 11.583L5.9179 11.0272Z" fill="black"/>
</svg>
