<svg width="16" height="16" viewBox="0 0 16 16" fill="none" xmlns="http://www.w3.org/2000/svg">
<path d="M4.46421 14C3.88293 13.9993 3.3149 13.8263 2.83191 13.5029C2.34892 13.1795 1.97265 12.7202 1.75066 12.183C1.52867 11.6457 1.47092 11.0548 1.58472 10.4848C1.69852 9.91473 1.97876 9.39124 2.39001 8.98045C2.80126 8.56966 3.32507 8.29001 3.89522 8.17685C4.46537 8.06369 5.05627 8.1221 5.59324 8.34469C6.1302 8.56729 6.58912 8.94407 6.91199 9.42743C7.23486 9.91078 7.40718 10.479 7.40718 11.0603C7.40631 11.8402 7.09586 12.5879 6.54404 13.1391C5.99222 13.6903 5.24416 14 4.46421 14Z" fill="#CA3C32"/>
<path d="M11.5291 14C10.9479 13.9993 10.3798 13.8263 9.89685 13.5029C9.41386 13.1795 9.03759 12.7202 8.8156 12.183C8.59361 11.6457 8.53586 11.0548 8.64966 10.4848C8.76346 9.91473 9.0437 9.39124 9.45495 8.98045C9.8662 8.56966 10.39 8.29001 10.9602 8.17685C11.5303 8.06369 12.1212 8.1221 12.6582 8.34469C13.1951 8.56729 13.6541 8.94407 13.9769 9.42743C14.2998 9.91078 14.4721 10.479 14.4721 11.0603C14.4712 11.8402 14.1608 12.5879 13.609 13.1391C13.0572 13.6903 12.3091 14 11.5291 14V14Z" fill="#9259A3"/>
<path d="M7.99827 7.87935C7.41686 7.87935 6.8485 7.70694 6.36508 7.38393C5.88165 7.06091 5.50486 6.6018 5.28236 6.06464C5.05987 5.52749 5.00165 4.93642 5.11508 4.36618C5.22851 3.79593 5.50848 3.27213 5.91961 2.86101C6.33073 2.44989 6.85453 2.16991 7.42477 2.05649C7.99501 1.94306 8.58608 2.00127 9.12324 2.22377C9.66039 2.44627 10.1195 2.82305 10.4425 3.30648C10.7655 3.78991 10.9379 4.35826 10.9379 4.93968C10.9384 5.32584 10.8626 5.7083 10.7151 6.06516C10.5675 6.42201 10.351 6.74625 10.0779 7.01931C9.80485 7.29237 9.48061 7.50889 9.12375 7.65647C8.7669 7.80405 8.38444 7.87979 7.99827 7.87935Z" fill="#399746"/>
</svg>
