<svg width="16" height="16" viewBox="0 0 16 16" fill="none" xmlns="http://www.w3.org/2000/svg">
<path d="M3.59655 9.80901C3.60121 9.47301 3.49388 9.20701 3.27455 9.01101C3.05521 8.81034 2.75888 8.71001 2.38555 8.71001H1.68555V7.25401H2.38555C2.76355 7.25401 3.06221 7.15367 3.28155 6.95301C3.50088 6.75234 3.60588 6.48167 3.59655 6.14101L3.56155 4.538C3.55221 4.05734 3.65955 3.63501 3.88355 3.271C4.11221 2.90701 4.43888 2.62701 4.86355 2.431C5.28821 2.23034 5.78288 2.13 6.34755 2.13H7.17355V3.53001H6.43855C6.01388 3.53001 5.67321 3.65367 5.41655 3.90101C5.16455 4.14367 5.04321 4.46567 5.05255 4.86701L5.08055 6.35801C5.08988 6.82467 4.95688 7.20034 4.68155 7.48501C4.40621 7.76501 4.03288 7.92367 3.56155 7.96101C4.02821 8.04501 4.39921 8.23401 4.67455 8.52801C4.95455 8.82201 5.08988 9.18134 5.08055 9.60601L5.05255 11.279C5.04788 11.6523 5.15988 11.9463 5.38855 12.161C5.62188 12.3803 5.93688 12.49 6.33355 12.49H7.17355V13.89H6.24255C5.71521 13.89 5.24621 13.7967 4.83555 13.61C4.42955 13.4233 4.11455 13.1573 3.89055 12.812C3.66655 12.4713 3.55688 12.0747 3.56155 11.622L3.59655 9.80901Z" fill="#A842EB"/>
<path d="M12.5447 11.622C12.5494 12.0747 12.4397 12.4713 12.2157 12.812C11.9917 13.1573 11.6744 13.4233 11.2637 13.61C10.8577 13.7967 10.3911 13.89 9.86372 13.89H8.93272V12.49H9.77272C10.1694 12.49 10.4821 12.3827 10.7107 12.168C10.9394 11.9533 11.0514 11.657 11.0467 11.279L11.0187 9.60601C11.0141 9.18134 11.1494 8.82201 11.4247 8.52801C11.7001 8.23401 12.0711 8.04501 12.5377 7.96101C12.0711 7.92367 11.6977 7.76501 11.4177 7.48501C11.1424 7.20034 11.0094 6.82467 11.0187 6.35801L11.0467 4.86701C11.0561 4.46567 10.9347 4.14367 10.6827 3.90101C10.4307 3.65367 10.0924 3.53001 9.66772 3.53001H8.93272V2.13H9.75872C10.3234 2.13 10.8181 2.23034 11.2427 2.431C11.6674 2.62701 11.9917 2.90701 12.2157 3.271C12.4444 3.63501 12.5541 4.05734 12.5447 4.538L12.5097 6.14101C12.5004 6.48167 12.6054 6.75234 12.8247 6.95301C13.0441 7.15367 13.3427 7.25401 13.7207 7.25401H14.4207V8.71001H13.7207C13.3427 8.71001 13.0441 8.81034 12.8247 9.01101C12.6054 9.20701 12.5004 9.47301 12.5097 9.80901L12.5447 11.622Z" fill="#A842EB"/>
</svg>
