<svg width="16" height="16" viewBox="0 0 16 16" fill="none" xmlns="http://www.w3.org/2000/svg">
<path d="M6.20113 7.16698C6.53713 7.17631 6.80313 7.06898 6.99913 6.84498C7.19979 6.62565 7.30013 6.32931 7.30013 5.95598L7.30013 5.25598L8.75613 5.25598L8.75613 5.95598C8.75613 6.32931 8.85646 6.62565 9.05713 6.84498C9.26246 7.06898 9.53313 7.17631 9.86913 7.16698L11.4721 7.13198C11.9528 7.11798 12.3751 7.22531 12.7391 7.45398C13.1031 7.68265 13.3831 8.00931 13.5791 8.43398C13.7798 8.85865 13.8801 9.35331 13.8801 9.91798L13.8801 10.744L12.4801 10.744L12.4801 10.009C12.4801 9.57965 12.3588 9.23898 12.1161 8.98698C11.8735 8.73965 11.5491 8.61831 11.1431 8.62298L9.65213 8.65098C9.18546 8.66498 8.80979 8.53198 8.52513 8.25198C8.24046 7.97665 8.08179 7.60331 8.04913 7.13198C7.96513 7.59865 7.77613 7.97198 7.48213 8.25198C7.18813 8.53198 6.82879 8.66498 6.40413 8.65098L4.73113 8.62298C4.35313 8.61365 4.05679 8.72331 3.84213 8.95198C3.62746 9.18531 3.52013 9.50265 3.52013 9.90398L3.52013 10.744L2.12013 10.744L2.12013 9.81298C2.12013 9.28565 2.21346 8.81665 2.40013 8.40598C2.58679 7.99998 2.85279 7.68265 3.19813 7.45398C3.53879 7.22998 3.93546 7.12265 4.38813 7.13198L6.20113 7.16698Z" fill="#0D0D0D"/>
</svg>
