<svg width="16" height="16" viewBox="0 0 16 16" fill="none" xmlns="http://www.w3.org/2000/svg">
<path d="M0.499273 11V4.43H2.74027C3.19627 4.43 3.59827 4.517 3.94627 4.691C4.29427 4.865 4.56127 5.111 4.74727 5.429C4.93927 5.741 5.03527 6.104 5.03527 6.518C5.03527 6.932 4.93927 7.298 4.74727 7.616C4.55527 7.928 4.28527 8.171 3.93727 8.345C3.59527 8.519 3.19627 8.606 2.74027 8.606H1.84927V11H0.499273ZM2.74027 7.391C3.02827 7.391 3.25627 7.313 3.42427 7.157C3.59827 6.995 3.68527 6.782 3.68527 6.518C3.68527 6.254 3.59827 6.044 3.42427 5.888C3.25627 5.726 3.02827 5.645 2.74027 5.645H1.84927V7.391H2.74027ZM5.86876 11V4.43H8.00176C8.45176 4.43 8.84776 4.517 9.18976 4.691C9.53176 4.865 9.79576 5.111 9.98176 5.429C10.1738 5.747 10.2698 6.116 10.2698 6.536V8.885C10.2698 9.305 10.1738 9.674 9.98176 9.992C9.79576 10.31 9.53176 10.559 9.18976 10.739C8.84776 10.913 8.45176 11 8.00176 11H5.86876ZM8.00176 9.74C8.27776 9.74 8.49976 9.662 8.66776 9.506C8.83576 9.35 8.91976 9.143 8.91976 8.885V6.536C8.91976 6.284 8.83576 6.08 8.66776 5.924C8.49976 5.768 8.27776 5.69 8.00176 5.69H7.21876V9.74H8.00176ZM12.6782 11H11.3282V4.43H15.5582V5.69H12.6602V7.148H15.3242V8.408H12.6782V11Z" fill="#EA4B67"/>
</svg>
