<svg width="16" height="16" viewBox="0 0 16 16" fill="none" xmlns="http://www.w3.org/2000/svg">
<path d="M1.26612 5.69116H3.63899C4.33545 5.69701 4.84013 5.89781 5.15303 6.29323C5.46593 6.68866 5.56917 7.22875 5.46292 7.91352C5.42166 8.22641 5.33011 8.5333 5.18845 8.83433C5.05263 9.13537 4.86385 9.40684 4.62179 9.6489C4.3266 9.95578 4.01086 10.1506 3.67441 10.2333C3.33796 10.316 2.98965 10.3572 2.62964 10.3572H1.56716L1.23071 12.0395H0L1.26612 5.69116V5.69116ZM2.30204 6.70052L1.7708 9.35672C1.80622 9.36257 1.84163 9.36557 1.87705 9.36557C1.91831 9.36557 1.95974 9.36557 2.001 9.36557C2.56766 9.37142 3.03993 9.31546 3.41764 9.19735C3.79536 9.07339 4.04929 8.64255 4.17909 7.90466C4.28534 7.28488 4.17909 6.92772 3.86034 6.83333C3.54745 6.73894 3.15503 6.69467 2.68276 6.70052C2.61193 6.70637 2.54411 6.70937 2.47912 6.70937C2.42015 6.70937 2.35817 6.70937 2.29319 6.70937L2.30204 6.70052" fill="#1A85F6"/>
<path d="M6.86482 4H8.08667L7.74137 5.69111H8.83926C9.44133 5.70298 9.88988 5.82693 10.1851 6.06298C10.4861 6.29903 10.5746 6.74775 10.4507 7.40879L9.85747 10.3572H8.61791L9.18457 7.5416C9.24354 7.24641 9.22583 7.03692 9.13144 6.91297C9.03706 6.78901 8.83342 6.72703 8.52052 6.72703L7.53772 6.71818L6.8117 10.3572H5.58984L6.86482 4Z" fill="#1A85F6"/>
<path d="M11.7622 5.69116H14.1351C14.8315 5.69701 15.3362 5.89781 15.6491 6.29323C15.962 6.68866 16.0653 7.22875 15.959 7.91352C15.9177 8.22641 15.8262 8.5333 15.6845 8.83433C15.5487 9.13537 15.3599 9.40684 15.1179 9.6489C14.8227 9.95578 14.507 10.1506 14.1705 10.2333C13.8341 10.316 13.4857 10.3572 13.1257 10.3572H12.0633L11.7268 12.0395H10.4961L11.7622 5.69116V5.69116ZM12.7981 6.70052L12.2669 9.35672C12.3023 9.36257 12.3377 9.36557 12.3731 9.36557C12.4144 9.36557 12.4558 9.36557 12.4971 9.36557C13.0638 9.37142 13.536 9.31546 13.9137 9.19735C14.2915 9.07339 14.5454 8.64255 14.6752 7.90466C14.7814 7.28488 14.6752 6.92772 14.3564 6.83333C14.0435 6.73894 13.6511 6.69467 13.1789 6.70052C13.108 6.70637 13.0402 6.70937 12.9752 6.70937C12.9162 6.70937 12.8543 6.70937 12.7893 6.70937L12.7981 6.70052" fill="#1A85F6"/>
</svg>
