<svg width="16" height="16" viewBox="0 0 16 16" fill="none" xmlns="http://www.w3.org/2000/svg">
<path d="M7.92923 2.0001C7.43982 2.00237 6.97245 2.04411 6.56121 2.11688C5.34975 2.33091 5.12979 2.77888 5.12979 3.60502V4.6961H7.99262V5.05979H5.12979H4.0554C3.22338 5.05979 2.49484 5.55988 2.26697 6.51122C2.00411 7.60168 1.99245 8.28215 2.26697 9.42076C2.47047 10.2683 2.95645 10.8722 3.78847 10.8722H4.77278V9.56424C4.77278 8.61932 5.59035 7.78582 6.56121 7.78582H9.4207C10.2167 7.78582 10.8521 7.13043 10.8521 6.33104V3.60502C10.8521 2.82917 10.1976 2.24637 9.4207 2.11688C8.92891 2.03502 8.41863 1.99782 7.92923 2.0001ZM6.38103 2.87763C6.67674 2.87763 6.91823 3.12306 6.91823 3.42484C6.91823 3.72555 6.67674 3.96871 6.38103 3.96871C6.08426 3.96871 5.84383 3.72555 5.84383 3.42484C5.84383 3.12306 6.08426 2.87763 6.38103 2.87763Z" fill="#1A85F6"/>
<path d="M11.2092 5.05969V6.33095C11.2092 7.31654 10.3736 8.14608 9.42079 8.14608H6.5613C5.77803 8.14608 5.12988 8.81644 5.12988 9.60085V12.3269C5.12988 13.1027 5.80453 13.5591 6.5613 13.7816C7.46751 14.0481 8.33652 14.0963 9.42079 13.7816C10.1415 13.573 10.8522 13.153 10.8522 12.3269V11.2358H7.99271V10.8721H10.8522H12.2836C13.1156 10.8721 13.4257 10.2918 13.715 9.42067C14.0139 8.5239 14.0012 7.66151 13.715 6.51113C13.5094 5.68285 13.1167 5.05969 12.2836 5.05969H11.2092ZM9.60097 11.9632C9.89774 11.9632 10.1382 12.2063 10.1382 12.5071C10.1382 12.8088 9.89774 13.0543 9.60097 13.0543C9.30526 13.0543 9.06377 12.8088 9.06377 12.5071C9.06377 12.2063 9.30526 11.9632 9.60097 11.9632Z" fill="#F6C616"/>
</svg>
