<svg width="16" height="16" viewBox="0 0 16 16" fill="none" xmlns="http://www.w3.org/2000/svg">
<path fill-rule="evenodd" clip-rule="evenodd" d="M14.6989 7.34252C14.6989 8.02779 14.4541 8.67598 14.0179 9.25233H13.3587C13.7149 8.82868 13.9127 8.30245 13.9127 7.6665C13.9127 5.60713 11.8375 4.69778 9.02535 4.69778C6.21323 4.69778 3.93357 6.02692 3.93357 7.6665C3.93357 8.70006 4.83947 9.61025 6.21357 10.1419V11.5289C3.38111 11.0221 1.30103 9.3398 1.30103 7.34252C1.30103 4.94421 4.30025 3 7.99995 3C11.6996 3 14.6989 4.94421 14.6989 7.34252ZM12.1443 9.95959C11.9087 9.84423 11.5032 9.7258 11.5032 9.7258C11.5032 9.7258 13.5006 9.58252 13.5006 7.65767C13.5006 5.73282 11.4104 5.69632 11.4104 5.69632H6.82112V12.9993L9.10645 12.9984L9.10597 10.1394H9.71959C9.84513 10.1394 9.89925 10.1748 10.0262 10.2743C10.1783 10.3935 10.4256 10.8049 10.4256 10.8049L11.6333 13L14.216 12.9989L12.618 10.3912C12.618 10.3912 12.5694 10.2871 12.4694 10.1844C12.3674 10.0795 12.226 9.99963 12.1443 9.95959ZM9.12572 7.27958L10.5092 7.28044C10.5092 7.28044 11.1503 7.24683 11.1503 7.88925C11.1503 8.519 10.5092 8.52093 10.5092 8.52093L9.12503 8.52136L9.12572 7.27958Z" fill="#1A85F6"/>
</svg>
