<svg width="16" height="16" viewBox="0 0 16 16" fill="none" xmlns="http://www.w3.org/2000/svg">
<path d="M7.99985 10.5564C11.6978 10.5564 14.6955 9.41181 14.6955 7.99988C14.6955 6.58795 11.6978 5.44336 7.99985 5.44336C4.30194 5.44336 1.3042 6.58795 1.3042 7.99988C1.3042 9.41181 4.30194 10.5564 7.99985 10.5564Z" stroke="#3FA1C4" stroke-width="0.6"/>
<path d="M5.78601 9.27822C7.63496 12.4807 10.1251 14.5045 11.3479 13.7986C12.5706 13.0926 12.063 9.92418 10.214 6.7217C8.36508 3.51922 5.87496 1.49539 4.6522 2.20136C3.42943 2.90732 3.93706 6.07574 5.78601 9.27822Z" stroke="#3FA1C4" stroke-width="0.6"/>
<path d="M5.78616 6.72158C3.93721 9.92406 3.42958 13.0925 4.65235 13.7984C5.87511 14.5044 8.36523 12.4806 10.2142 9.2781C12.0631 6.07562 12.5708 2.9072 11.348 2.20123C10.1252 1.49527 7.63511 3.51909 5.78616 6.72158Z" stroke="#3FA1C4" stroke-width="0.6"/>
<path d="M7.99978 9.24785C8.68893 9.24785 9.24761 8.68918 9.24761 8.00002C9.24761 7.31087 8.68893 6.7522 7.99978 6.7522C7.31062 6.7522 6.75195 7.31087 6.75195 8.00002C6.75195 8.68918 7.31062 9.24785 7.99978 9.24785Z" fill="#3FA1C4"/>
</svg>
