<svg width="16" height="16" viewBox="0 0 16 16" fill="none" xmlns="http://www.w3.org/2000/svg">
<path d="M1.08262 10.0233L0.258789 10.7694C0.258789 10.7694 0.662935 11.2746 1.1992 11.5777C1.73547 11.8808 2.03118 11.858 2.6333 11.85C3.21216 11.85 3.80284 11.7409 4.27693 11.3212C4.75102 10.9016 4.84062 10.7865 4.83857 10.2573C4.83757 10.009 4.77173 9.46063 4.47123 9.10622C4.13137 8.7055 3.5522 8.51145 3.5522 8.51145C3.5522 8.51145 1.77831 8.06657 1.96086 7.45078C2.03746 7.19238 2.44696 7.09476 2.84949 7.16583C3.35883 7.25561 3.87378 7.56195 3.87378 7.56195L4.59359 6.8575C4.59359 6.8575 4.26567 6.47213 3.7562 6.2228C3.37917 6.03833 2.85912 5.97043 2.52617 5.96925C1.74325 5.96633 0.764406 6.66543 0.647391 7.38861C0.561898 7.9171 0.73338 8.36328 1.12148 8.70208C1.61112 9.12954 1.9595 9.18525 1.9595 9.18525C1.9595 9.18525 3.52155 9.58747 3.52155 10.0735C3.52155 10.5595 3.14221 10.7383 2.53599 10.7461C1.92978 10.7538 1.08262 10.0233 1.08262 10.0233Z" fill="#0D0D0D"/>
<path d="M12.3428 6.23211L12.3552 7.36365H13.0018L13.0081 10.715C13.0081 10.715 13.12 11.1004 13.4122 11.3865C13.7893 11.7556 14.1832 11.8499 14.1832 11.8499H15.4515L15.4578 10.6963L14.7739 10.6901C14.7739 10.6901 14.6246 10.6964 14.4568 10.5346C14.2826 10.3668 14.2889 10.1491 14.2889 10.1491L14.3013 7.35744H15.5449L15.5511 6.22583L14.3076 6.21961L14.2951 4.03101H13.0018L13.0143 6.23205H12.3428V6.23211Z" fill="#0D0D0D"/>
<path d="M9.7407 6.50257C8.9617 6.33053 8.17075 6.41708 7.66557 6.71242L8.32619 4.03107L7.0088 3.7085L5.13574 11.2591L6.44144 11.636L6.62151 10.8964C7.00495 11.6217 7.44186 11.9707 8.27956 12.1606C9.83397 12.513 11.2212 11.4293 11.5957 9.75644C11.9169 8.32123 10.9376 6.76682 9.7407 6.50257ZM10.1193 10.6846L8.24455 11.2008L6.84621 9.78467L7.32285 7.85242L9.19778 7.33623L10.5959 8.75235L10.1193 10.6846Z" fill="#0D0D0D"/>
</svg>
