<svg width="16" height="16" viewBox="0 0 16 16" fill="none" xmlns="http://www.w3.org/2000/svg">
<path d="M2.36506 9.11285H1.39121V10.0171H4.45187V9.11285H3.54759V4.59142H3.82583C4.66055 4.59142 4.79967 4.66098 4.93879 5.28703H5.77352L5.6344 3.68713H0.208682L0 6.19131H0.834726V5.84351C0.973847 4.66098 1.04341 4.59142 2.08681 4.59142H2.36506V9.11285Z" fill="#3EA17F"/>
<path d="M7.86411 11.617H6.68158V9.66929H7.09894C7.58587 9.66929 7.58587 9.66929 7.58587 10.2953V10.6431H8.42059V7.79116H7.58587V8.13896C7.58587 8.765 7.58587 8.765 7.09894 8.765H6.68158V7.09555H7.79455C8.83796 7.09555 8.90752 7.37379 8.97708 8.34764H9.8118L9.60312 6.1217H4.73389V7.02599H5.42949V11.4779H4.73389V12.3822H9.67268L9.95092 10.5736H9.04664C9.04664 11.3387 8.7684 11.617 7.86411 11.617V11.617Z" fill="#3EA17F"/>
<path d="M11.9654 9.18263H11.6176L12.661 7.6523L13.7045 9.18263H13.4958V9.9478H15.9999V9.11307H15.6521C15.2348 9.11307 15.2348 9.11307 15.1652 8.97395L13.4958 6.53934L14.6087 4.93945C14.7479 4.80033 14.887 4.52208 15.3739 4.52208H15.7217V3.6178H13.5653V4.45252H13.9131L13.8436 4.52208L13.0088 5.70461L12.1046 4.59164H12.3132V3.6178H9.80906V4.59164H10.1569C10.5742 4.59164 10.5742 4.59164 10.6438 4.73076L12.1046 6.88714L10.8525 8.76527L10.6438 8.97395C10.5047 9.11307 10.296 9.18263 10.0873 9.18263H9.7395V10.0174H11.9654V9.18263V9.18263Z" fill="#3EA17F"/>
</svg>
