<svg width="16" height="16" viewBox="0 0 16 16" fill="none" xmlns="http://www.w3.org/2000/svg">
<path d="M8.05873 13.14C7.0694 13.14 6.28073 12.8693 5.69273 12.328C5.10473 11.7773 4.81073 11.04 4.81073 10.116V5.664C4.81073 4.74 5.10473 4.00733 5.69273 3.466C6.28073 2.91533 7.0694 2.64 8.05873 2.64C8.70273 2.64 9.2674 2.766 9.75273 3.018C10.2474 3.26067 10.6301 3.61067 10.9007 4.068C11.1714 4.52533 11.3067 5.05733 11.3067 5.664H9.54273C9.54273 5.188 9.41207 4.81933 9.15073 4.558C8.89873 4.29667 8.53473 4.166 8.05873 4.166C7.58273 4.166 7.21407 4.29667 6.95273 4.558C6.6914 4.81 6.56073 5.174 6.56073 5.65V10.116C6.56073 10.592 6.6914 10.9607 6.95273 11.222C7.21407 11.4833 7.58273 11.614 8.05873 11.614C8.5254 11.614 8.8894 11.4833 9.15073 11.222C9.41207 10.9607 9.54273 10.592 9.54273 10.116H11.3067C11.3067 10.7227 11.1714 11.2547 10.9007 11.712C10.6301 12.1693 10.2474 12.524 9.75273 12.776C9.2674 13.0187 8.70273 13.14 8.05873 13.14Z" fill="#1A85F6"/>
</svg>
