<svg width="16" height="16" viewBox="0 0 16 16" fill="none" xmlns="http://www.w3.org/2000/svg">
<path d="M11.577 12.8176C13.0474 11.7241 14 9.97328 14 8C14 4.68629 11.3137 2 8 2C7.32695 2 6.67979 2.11082 6.07576 2.31521L11.577 12.8176Z" fill="#5881D8"/>
<path d="M10 13.6163L7.89717 9.63682L5.43686 13.4693C6.18503 13.81 7.01754 13.9999 7.89481 13.9999C8.63651 13.9999 9.34621 13.8641 10 13.6163Z" fill="#91DC47"/>
<path d="M4.08125 12.6125C2.80796 11.5407 2 9.94217 2 8.15657C2 6.15364 3.0166 4.38609 4.56622 3.33325L7.03681 8.00865L4.08125 12.6125Z" fill="#91DC47"/>
</svg>
