<svg width="16" height="16" viewBox="0 0 16 16" fill="none" xmlns="http://www.w3.org/2000/svg">
<path fill-rule="evenodd" clip-rule="evenodd" d="M8.70711 1.30476C8.31658 0.914239 7.68342 0.914238 7.29289 1.30476L6.37994 2.21771L7.33395 3.17172C7.83572 2.8747 8.49331 2.94185 8.92463 3.37317C9.35594 3.80449 9.4231 4.46208 9.12608 4.96385L11.0349 6.87262C11.5367 6.57542 12.1944 6.64252 12.6258 7.07392C13.1367 7.58477 13.1367 8.41303 12.6258 8.92389C12.1149 9.43474 11.2867 9.43474 10.7758 8.92389C10.3453 8.49332 10.2776 7.83727 10.5728 7.33582L8.66299 5.42598C8.55677 5.48856 8.44361 5.53484 8.32712 5.56484L8.32712 10.4334C8.54604 10.4898 8.7532 10.6037 8.92463 10.7751C9.43548 11.2859 9.43548 12.1142 8.92462 12.6251C8.41377 13.1359 7.58551 13.1359 7.07466 12.6251C6.5638 12.1142 6.5638 11.2859 7.07466 10.7751C7.24627 10.6035 7.4537 10.4895 7.67288 10.4332V5.56503C7.4537 5.50871 7.24627 5.39475 7.07466 5.22314C6.64401 4.79249 6.5764 4.13629 6.87181 3.63481L5.91733 2.68033L1.30528 7.29238C0.914755 7.6829 0.914754 8.31607 1.30528 8.70659L7.29289 14.6942C7.68342 15.0847 8.31658 15.0847 8.70711 14.6942L14.6947 8.70659C15.0852 8.31607 15.0852 7.6829 14.6947 7.29238L8.70711 1.30476Z" fill="#767676"/>
</svg>
