<svg width="16" height="16" viewBox="0 0 16 16" fill="none" xmlns="http://www.w3.org/2000/svg">
<path d="M4.65269 12.12C3.80469 12.12 3.12869 11.888 2.62469 11.424C2.12069 10.952 1.86869 10.32 1.86869 9.528V5.712C1.86869 4.92 2.12069 4.292 2.62469 3.828C3.12869 3.356 3.80469 3.12 4.65269 3.12C5.20469 3.12 5.68869 3.228 6.10469 3.444C6.52869 3.652 6.85669 3.952 7.08869 4.344C7.32069 4.736 7.43669 5.192 7.43669 5.712H5.92469C5.92469 5.304 5.81269 4.988 5.58869 4.764C5.37269 4.54 5.06069 4.428 4.65269 4.428C4.24469 4.428 3.92869 4.54 3.70469 4.764C3.48069 4.98 3.36869 5.292 3.36869 5.7V9.528C3.36869 9.936 3.48069 10.252 3.70469 10.476C3.92869 10.7 4.24469 10.812 4.65269 10.812C5.05269 10.812 5.36469 10.7 5.58869 10.476C5.81269 10.252 5.92469 9.936 5.92469 9.528V8.64H4.43669V7.344H7.43669V9.528C7.43669 10.048 7.32069 10.504 7.08869 10.896C6.85669 11.288 6.52869 11.592 6.10469 11.808C5.68869 12.016 5.20469 12.12 4.65269 12.12ZM11.4 12.12C10.56 12.12 9.892 11.888 9.396 11.424C8.908 10.952 8.664 10.32 8.664 9.528V5.712C8.664 4.92 8.908 4.292 9.396 3.828C9.892 3.356 10.56 3.12 11.4 3.12C12.24 3.12 12.904 3.356 13.392 3.828C13.888 4.292 14.136 4.916 14.136 5.7V9.528C14.136 10.32 13.888 10.952 13.392 11.424C12.904 11.888 12.24 12.12 11.4 12.12ZM11.4 10.812C11.808 10.812 12.116 10.704 12.324 10.488C12.532 10.264 12.636 9.944 12.636 9.528V5.712C12.636 5.296 12.532 4.98 12.324 4.764C12.116 4.54 11.808 4.428 11.4 4.428C10.992 4.428 10.684 4.54 10.476 4.764C10.268 4.98 10.164 5.296 10.164 5.712V9.528C10.164 9.944 10.268 10.264 10.476 10.488C10.692 10.704 11 10.812 11.4 10.812Z" fill="#1A85F6"/>
</svg>
