<svg width="16" height="16" viewBox="0 0 16 16" fill="none" xmlns="http://www.w3.org/2000/svg">
<path fill-rule="evenodd" clip-rule="evenodd" d="M7.50049 13.4776V14.5H8.50049V13.4775C8.91154 13.4405 9.30955 13.3582 9.6895 13.2357L10.0901 14.1744L11.0098 13.782L10.6092 12.843C10.9336 12.6678 11.2385 12.461 11.5196 12.2267L12.2426 12.9497L12.9497 12.2426L12.2267 11.5196C12.4898 11.204 12.7182 10.8585 12.906 10.489L13.855 10.8662L14.2244 9.93695L13.2758 9.55984C13.3764 9.21916 13.4448 8.86471 13.4777 8.5H14.5V7.5H13.4777C13.4406 7.08823 13.3581 6.68955 13.2353 6.30899L14.1757 5.90771L13.7832 4.98795L12.8423 5.38944C12.6673 5.06552 12.4607 4.76115 12.2267 4.48045L12.9498 3.75739L12.2427 3.05029L11.5196 3.77334C11.2036 3.5099 10.8576 3.28124 10.4874 3.09323L10.8646 2.14449L9.9353 1.77507L9.55814 2.72379C9.21813 2.62355 8.86442 2.55528 8.50049 2.52245V1.5H7.50049V2.52239C7.08844 2.55949 6.6895 2.64204 6.30871 2.76498L5.90763 1.82506L4.98787 2.21754L5.38919 3.15803C5.06538 3.333 4.76111 3.53951 4.4805 3.77344L3.75727 3.05021L3.05017 3.75732L3.77341 4.48056C3.51016 4.79637 3.28164 5.14214 3.09371 5.51201L2.144 5.13446L1.77458 6.06372L2.72414 6.44121C2.62374 6.78157 2.55538 7.13566 2.52254 7.5H1.5V8.5H2.52254C2.55961 8.91133 2.64196 9.3096 2.76458 9.68979L1.82628 10.0902L2.21876 11.0099L3.15734 10.6094C3.33246 10.9338 3.53922 11.2385 3.77347 11.5195L3.05029 12.2427L3.7574 12.9498L4.48057 12.2266C4.79593 12.4895 5.14117 12.7178 5.51045 12.9056L5.13281 13.8555L6.06207 14.2249L6.43952 13.2754C6.78055 13.3762 7.13537 13.4447 7.50049 13.4776ZM8.00012 12.5C10.4854 12.5 12.5001 10.4853 12.5001 8C12.5001 5.51472 10.4854 3.5 8.00012 3.5C5.51484 3.5 3.50012 5.51472 3.50012 8C3.50012 10.4853 5.51484 12.5 8.00012 12.5Z" fill="#0D0D0D"/>
<path d="M9.12281 11H10.4388L9.14681 8.84C9.91081 8.592 10.3788 7.972 10.3788 7.168C10.3788 6.124 9.58681 5.4 8.37881 5.4H5.98681V11H7.16681V8.96H7.95881L9.12281 11ZM7.16681 7.992V6.364H8.28681C8.82681 6.364 9.16281 6.68 9.16281 7.176C9.16281 7.676 8.82681 7.992 8.28681 7.992H7.16681Z" fill="#0D0D0D"/>
</svg>
