<svg width="16" height="16" viewBox="0 0 16 16" fill="none" xmlns="http://www.w3.org/2000/svg">
<path d="M13.3984 11.8301C11.4752 14.3997 7.33806 13.527 4.70383 13.6563C4.70383 13.6563 4.23516 13.6886 3.7665 13.7533C3.7665 13.7533 3.94427 13.6725 4.17052 13.5917C6.02902 12.9452 6.90171 12.8159 8.03297 12.2341C10.1501 11.1514 12.2671 8.77571 12.6873 6.31925C11.8793 8.67874 9.42281 10.715 7.19261 11.5392C5.65732 12.1048 2.89381 12.6543 2.89381 12.6543L2.78068 12.5897C0.90602 11.6685 0.841376 7.59596 4.26749 6.28693C5.77045 5.70514 7.19261 6.02835 8.82486 5.64049C10.5541 5.23647 12.558 3.9436 13.3661 2.2467C14.2711 4.9779 15.37 9.21205 13.3984 11.8301Z" fill="#6DB33F"/>
</svg>
