<svg width="16" height="16" viewBox="0 0 16 16" fill="none" xmlns="http://www.w3.org/2000/svg">
<path d="M13.9992 5.32376C13.9985 5.20308 13.9971 5.08245 13.9938 4.96163C13.9868 4.6988 13.9712 4.43359 13.9245 4.17357C13.8771 3.90951 13.7996 3.66397 13.6775 3.4241C13.5576 3.18853 13.4009 2.97296 13.214 2.78602C13.0271 2.59908 12.8115 2.44239 12.5758 2.32245C12.3362 2.20048 12.0906 2.12301 11.8268 2.07561C11.5666 2.02875 11.3014 2.01332 11.0384 2.0062C10.9176 2.00293 10.797 2.00156 10.6762 2.00081C10.5329 2 10.3895 2 10.2463 2H7.06971H5.75374C5.61034 2 5.46711 2 5.32385 2.00083C5.20309 2.00158 5.0823 2.00295 4.96171 2.00622C4.89597 2.008 4.83008 2.0103 4.76415 2.01348C4.56638 2.02301 4.36831 2.04049 4.17329 2.07563C3.97542 2.11119 3.7878 2.16364 3.60526 2.23911C3.54443 2.26424 3.48413 2.29196 3.42421 2.32245C3.24745 2.41241 3.08197 2.52303 2.93146 2.65157C2.88129 2.69443 2.83278 2.73926 2.78607 2.786C2.59909 2.97294 2.44238 3.18851 2.3225 3.42408C2.20038 3.66395 2.123 3.90948 2.07555 4.17355C2.02888 4.43357 2.01336 4.69878 2.00629 4.96161C2.00298 5.08243 2.00158 5.20306 2.0008 5.32374C1.99989 5.46708 2.00001 5.61043 2.00001 5.75373V7.70997V10.2462C2.00001 10.3897 1.99987 10.5329 2.0008 10.6763C2.00158 10.797 2.00298 10.9176 2.00629 11.0382C2.01336 11.3012 2.02886 11.5665 2.07555 11.8264C2.123 12.0904 2.20038 12.3361 2.3225 12.5759C2.44238 12.8116 2.59909 13.0271 2.78607 13.2139C2.9729 13.4009 3.18853 13.5576 3.42423 13.6776C3.66392 13.7996 3.90947 13.877 4.17335 13.9244C4.43335 13.9712 4.69877 13.9867 4.96174 13.9938C5.08232 13.997 5.20311 13.9984 5.32387 13.9991C5.46713 14.0001 5.61036 14 5.75376 14H10.2463C10.3895 14 10.5329 14.0001 10.6762 13.9991C10.7969 13.9984 10.9176 13.997 11.0383 13.9938C11.3014 13.9867 11.5666 13.9712 11.8267 13.9244C12.0906 13.877 12.3361 13.7996 12.5758 13.6776C12.8115 13.5576 13.0271 13.4009 13.214 13.2139C13.4009 13.027 13.5576 12.8116 13.6775 12.5759C13.7996 12.3361 13.8771 12.0904 13.9245 11.8264C13.9712 11.5665 13.9867 11.3012 13.9938 11.0382C13.9971 10.9176 13.9984 10.797 13.9991 10.6763C14.0001 10.5329 14 10.3897 14 10.2462V5.75373C14 5.61043 14.0001 5.46708 13.9992 5.32376Z" fill="#F05138"/>
<path d="M11.5085 9.40728C11.5082 9.40692 11.5079 9.40666 11.5076 9.40631C11.5209 9.36113 11.5346 9.31624 11.5462 9.26993C12.0443 7.2856 10.8287 4.93959 8.77172 3.70435C9.67314 4.92633 10.0717 6.40644 9.71759 7.70082C9.68601 7.81627 9.64804 7.92707 9.60607 8.03477C9.56053 8.00484 9.50315 7.97088 9.42609 7.92839C9.42609 7.92839 7.37994 6.66502 5.16224 4.43044C5.10405 4.37178 6.34481 6.20384 7.75292 7.69152C7.08951 7.3192 5.24066 5.97401 4.07022 4.90275C4.21402 5.14257 4.38505 5.37349 4.57306 5.59581C5.55048 6.83537 6.82516 8.3648 8.35229 9.53922C7.27931 10.1958 5.76318 10.2469 4.25364 9.53991C3.88027 9.36493 3.52926 9.15381 3.20435 8.91393C3.84333 9.93601 4.82746 10.8178 6.02524 11.3326C7.45364 11.9465 8.87408 11.9049 9.93202 11.3427L9.9312 11.3439C9.93602 11.3409 9.94217 11.3375 9.94718 11.3344C9.99062 11.3111 10.0337 11.2873 10.0759 11.2622C10.5842 10.9984 11.5882 10.7307 12.1271 11.7792C12.2591 12.0358 12.5395 10.6759 11.5085 9.40728Z" fill="white"/>
</svg>
