<svg width="16" height="16" viewBox="0 0 16 16" fill="none" xmlns="http://www.w3.org/2000/svg">
<path fill-rule="evenodd" clip-rule="evenodd" d="M8.66667 14.045C8.66667 14.367 8.65111 14.684 8.63333 15H11.9633C11.98 14.684 12 14.367 12 14.045C12 6.891 8.66667 1 2 1C7.55556 3 8.66667 7.628 8.66667 14.045Z" fill="#3EA17F"/>
<path fill-rule="evenodd" clip-rule="evenodd" d="M5.26591 15H10C8.80235 10.318 5.80341 7 1 7C4.80519 8.428 5.26591 12 5.26591 15Z" fill="#3EA17F"/>
<path fill-rule="evenodd" clip-rule="evenodd" d="M12.9541 15H10.0001C10.0001 10.634 12.0001 7 13.0001 7C14.0001 7 14.6241 7.495 15.0001 9C14.4541 8.432 13.8991 7.859 13.2271 8.046C12.1591 8.341 12.9541 12.418 12.9541 15Z" fill="#3EA17F"/>
</svg>
