<svg width="16" height="16" viewBox="0 0 16 16" fill="none" xmlns="http://www.w3.org/2000/svg">
<circle cx="8" cy="8" r="6" fill="#1A85F6" stroke="#1A85F6"/>
<path d="M8.01238 11.75C7.30572 11.75 6.74238 11.5567 6.32238 11.17C5.90238 10.7767 5.69238 10.25 5.69238 9.59V6.41C5.69238 5.75 5.90238 5.22667 6.32238 4.84C6.74238 4.44667 7.30572 4.25 8.01238 4.25C8.47238 4.25 8.87572 4.34 9.22238 4.52C9.57572 4.69333 9.84905 4.94333 10.0424 5.27C10.2357 5.59667 10.3324 5.97667 10.3324 6.41H9.07238C9.07238 6.07 8.97905 5.80667 8.79238 5.62C8.61238 5.43333 8.35238 5.34 8.01238 5.34C7.67238 5.34 7.40905 5.43333 7.22238 5.62C7.03572 5.8 6.94238 6.06 6.94238 6.4V9.59C6.94238 9.93 7.03572 10.1933 7.22238 10.38C7.40905 10.5667 7.67238 10.66 8.01238 10.66C8.34572 10.66 8.60572 10.5667 8.79238 10.38C8.97905 10.1933 9.07238 9.93 9.07238 9.59H10.3324C10.3324 10.0233 10.2357 10.4033 10.0424 10.73C9.84905 11.0567 9.57572 11.31 9.22238 11.49C8.87572 11.6633 8.47238 11.75 8.01238 11.75Z" fill="black"/>
</svg>
