<svg width="16" height="16" viewBox="0 0 16 16" fill="none" xmlns="http://www.w3.org/2000/svg">
<path d="M12.5962 3.40381C15.1346 5.94221 15.1346 10.0578 12.5962 12.5962C10.0577 15.1346 5.94217 15.1346 3.40376 12.5962C0.865357 10.0578 0.865357 5.94221 3.40376 3.40381C5.94217 0.865398 10.0577 0.865398 12.5962 3.40381Z" stroke="#D93953"/>
<path d="M9.37514 5.19995C9.70847 5.19995 9.97514 5.32995 10.1751 5.58995C10.3818 5.84328 10.4851 6.18328 10.4851 6.60995V10.8H9.38514V6.69995C9.38514 6.49995 9.34514 6.34662 9.26514 6.23995C9.18514 6.13328 9.06847 6.07995 8.91514 6.07995C8.7618 6.07995 8.64514 6.13328 8.56514 6.23995C8.48514 6.34662 8.44514 6.49995 8.44514 6.69995V10.8H7.54514V6.69995C7.54514 6.49995 7.5018 6.34662 7.41514 6.23995C7.33514 6.13328 7.21514 6.07995 7.05514 6.07995C6.7618 6.07995 6.61514 6.28662 6.61514 6.69995V10.8H5.51514V5.29995H6.53514V6.03995H6.58514C6.61847 5.77995 6.71847 5.57662 6.88514 5.42995C7.0518 5.27662 7.25847 5.19995 7.50514 5.19995C7.7318 5.19995 7.9218 5.27328 8.07514 5.41995C8.22847 5.56662 8.3318 5.77328 8.38514 6.03995H8.43514C8.46847 5.77995 8.56847 5.57662 8.73514 5.42995C8.9018 5.27662 9.11514 5.19995 9.37514 5.19995Z" fill="#D93953"/>
</svg>
