<svg width="16" height="16" viewBox="0 0 16 16" fill="none" xmlns="http://www.w3.org/2000/svg">
<circle cx="8" cy="8" r="6" fill="#D93953" stroke="#D93953"/>
<path d="M6 4L6.21115 3.89443C7.33726 3.33137 8.66274 3.33137 9.78885 3.89443L10 4" stroke="black" stroke-width="1.2"/>
<path d="M9.37501 5.15417C9.70835 5.15417 9.97502 5.28417 10.175 5.54417C10.3817 5.79751 10.485 6.13751 10.485 6.56417V10.7542H9.38502V6.65417C9.38502 6.45417 9.34501 6.30084 9.26501 6.19417C9.18501 6.08751 9.06835 6.03417 8.91501 6.03417C8.76168 6.03417 8.64501 6.08751 8.56501 6.19417C8.48501 6.30084 8.44501 6.45417 8.44501 6.65417V10.7542H7.54501V6.65417C7.54501 6.45417 7.50168 6.30084 7.41501 6.19417C7.33501 6.08751 7.21501 6.03417 7.05501 6.03417C6.76168 6.03417 6.61501 6.24084 6.61501 6.65417V10.7542H5.51501V5.25417H6.53501V5.99417H6.58501C6.61835 5.73417 6.71835 5.53084 6.88501 5.38417C7.05168 5.23084 7.25835 5.15417 7.50501 5.15417C7.73168 5.15417 7.92168 5.22751 8.07502 5.37417C8.22835 5.52084 8.33168 5.72751 8.38501 5.99417H8.43501C8.46835 5.73417 8.56835 5.53084 8.73501 5.38417C8.90168 5.23084 9.11501 5.15417 9.37501 5.15417Z" fill="black"/>
</svg>
