<svg width="16" height="16" viewBox="0 0 16 16" fill="none" xmlns="http://www.w3.org/2000/svg">
<rect x="-0.40625" y="8" width="11.8883" height="11.8883" rx="1" transform="rotate(-45 -0.40625 8)" fill="#F8AB17"/>
<path d="M8.91887 4.7782C9.47221 4.7782 9.91221 4.9682 10.2389 5.3482C10.5655 5.72153 10.7289 6.23153 10.7289 6.8782V8.3682C10.7289 9.01486 10.5655 9.5282 10.2389 9.9082C9.91221 10.2882 9.47221 10.4782 8.91887 10.4782C8.51221 10.4782 8.17887 10.3782 7.91887 10.1782C7.66554 9.97153 7.51221 9.6882 7.45887 9.3282H7.42887L7.46887 10.6382V12.1782H6.21887V4.8782H7.43887V5.9282H7.45887C7.51221 5.5682 7.66554 5.2882 7.91887 5.0882C8.17887 4.88153 8.51221 4.7782 8.91887 4.7782ZM9.47887 6.9382C9.47887 6.59153 9.39221 6.32486 9.21887 6.1382C9.04554 5.95153 8.79887 5.8582 8.47887 5.8582C8.16554 5.8582 7.91887 5.95486 7.73887 6.1482C7.55887 6.33486 7.46887 6.5982 7.46887 6.9382V8.3182C7.46887 8.6582 7.55887 8.92486 7.73887 9.1182C7.91887 9.30486 8.16554 9.3982 8.47887 9.3982C8.79887 9.3982 9.04554 9.30486 9.21887 9.1182C9.39221 8.93153 9.47887 8.66486 9.47887 8.3182V6.9382Z" fill="black"/>
</svg>
