<svg width="16" height="16" viewBox="0 0 16 16" fill="none" xmlns="http://www.w3.org/2000/svg">
<circle cx="8" cy="8" r="6.5" fill="#B35DEF" stroke="#B35DEF"/>
<path d="M8.91857 4.7782C9.4719 4.7782 9.9119 4.9682 10.2386 5.3482C10.5652 5.72153 10.7286 6.23153 10.7286 6.8782V8.3682C10.7286 9.01486 10.5652 9.5282 10.2386 9.9082C9.9119 10.2882 9.4719 10.4782 8.91857 10.4782C8.5119 10.4782 8.17857 10.3782 7.91857 10.1782C7.66523 9.97153 7.5119 9.6882 7.45857 9.3282H7.42857L7.46857 10.6382V12.1782H6.21857V4.8782H7.43857V5.9282H7.45857C7.5119 5.5682 7.66523 5.2882 7.91857 5.0882C8.17857 4.88153 8.5119 4.7782 8.91857 4.7782ZM9.47857 6.9382C9.47857 6.59153 9.3919 6.32486 9.21857 6.1382C9.04523 5.95153 8.79857 5.8582 8.47857 5.8582C8.16523 5.8582 7.91857 5.95486 7.73857 6.1482C7.55857 6.33486 7.46857 6.5982 7.46857 6.9382V8.3182C7.46857 8.6582 7.55857 8.92486 7.73857 9.1182C7.91857 9.30486 8.16523 9.3982 8.47857 9.3982C8.79857 9.3982 9.04523 9.30486 9.21857 9.1182C9.3919 8.93153 9.47857 8.66486 9.47857 8.3182V6.9382Z" fill="black"/>
</svg>
