<svg width="16" height="16" viewBox="0 0 16 16" fill="none" xmlns="http://www.w3.org/2000/svg">
<circle cx="8" cy="8" r="6.5" fill="#F8AB17"/>
<path d="M7.77002 10.8499C7.14336 10.8499 6.63669 10.7066 6.25002 10.4199C5.87002 10.1266 5.67002 9.73657 5.65002 9.2499H6.90002C6.91336 9.42324 6.99669 9.56324 7.15002 9.6699C7.31002 9.77657 7.51669 9.8299 7.77002 9.8299H8.21002C8.51002 9.8299 8.73669 9.7699 8.89002 9.6499C9.05002 9.5299 9.13002 9.36657 9.13002 9.1599C9.13002 8.97324 9.06002 8.82657 8.92002 8.7199C8.78002 8.60657 8.57002 8.5299 8.29002 8.4899L7.61002 8.3899C6.97669 8.30324 6.51336 8.13657 6.22002 7.8899C5.93336 7.63657 5.79002 7.26657 5.79002 6.7799C5.79002 6.2599 5.96336 5.8599 6.31002 5.5799C6.66336 5.29324 7.17336 5.1499 7.84002 5.1499H8.22002C8.82669 5.1499 9.31336 5.2899 9.68002 5.5699C10.0467 5.84324 10.2467 6.2099 10.28 6.6699H9.03002C9.01002 6.51657 8.92669 6.39657 8.78002 6.3099C8.64002 6.21657 8.45336 6.1699 8.22002 6.1699H7.84002C7.55336 6.1699 7.34336 6.2199 7.21002 6.3199C7.07669 6.4199 7.01002 6.57324 7.01002 6.7799C7.01002 6.9599 7.06669 7.0999 7.18002 7.1999C7.29336 7.29324 7.48002 7.35657 7.74002 7.3899L8.45002 7.4899C9.11002 7.58324 9.59002 7.7599 9.89002 8.0199C10.1967 8.2799 10.35 8.65657 10.35 9.1499C10.35 9.69657 10.1667 10.1166 9.80002 10.4099C9.44002 10.7032 8.91002 10.8499 8.21002 10.8499H7.77002Z" fill="black"/>
</svg>
