<svg width="16" height="16" viewBox="0 0 16 16" fill="none" xmlns="http://www.w3.org/2000/svg">
<rect x="11" y="3" width="3" height="1" fill="#767676"/>
<path d="M8 8.00023L7.5 8.00023L7.5 8.00023L8 8.00023ZM8 6.00022L7.5 6.00022L7.5 6.00022L8 6.00022ZM5 3.5L5.00004 3L5 3L5 3.5ZM11 10.5002L11 11.0002L11.0001 11.0002L11 10.5002ZM7.5 6.00022L7.5 8.00023L8.5 8.00023L8.5 6.00022L7.5 6.00022ZM2 4C2.56831 4 3.31831 4 3.92623 4C4.23019 4 4.49864 4 4.69109 4C4.78731 4 4.86454 4 4.91771 4C4.9443 4 4.96487 4 4.97879 4C4.98576 4 4.99106 4 4.99462 4C4.9964 4 4.99774 4 4.99864 4C4.99909 4 4.99943 4 4.99966 4C4.99977 4 4.99986 4 4.99991 4C4.99994 4 4.99996 4 4.99998 4C4.99999 4 5 4 5 3.5C5 3 4.99999 3 4.99998 3C4.99997 3 4.99994 3 4.99992 3C4.99986 3 4.99977 3 4.99966 3C4.99944 3 4.9991 3 4.99865 3C4.99775 3 4.9964 3 4.99462 3C4.99106 3 4.98576 3 4.9788 3C4.96487 3 4.9443 3 4.91772 3C4.86454 3 4.78731 3 4.69109 3C4.49864 3 4.2302 3 3.92624 3C3.31831 3 2.56831 3 2 3L2 4ZM4.99996 4C6.23195 4.00011 6.80773 4.19976 7.09568 4.46949C7.36926 4.72577 7.5 5.15726 7.5 6.00022L8.5 6.00022C8.5 5.12156 8.38074 4.30305 7.77932 3.73968C7.19227 3.18976 6.26805 3.00011 5.00004 3L4.99996 4ZM7.5 8.00023C7.5 8.89804 7.6178 9.72117 8.22328 10.2803C8.81193 10.8239 9.73794 11.0001 11 11.0002L11 10.0002C9.76206 10.0001 9.18807 9.8101 8.90172 9.54566C8.6322 9.29677 8.5 8.87002 8.5 8.00023L7.5 8.00023ZM11 10.5002C11.0001 11.0002 11.0001 11.0002 11.0001 11.0002C11.0001 11.0002 11.0001 11.0002 11.0001 11.0002C11.0002 11.0002 11.0003 11.0002 11.0004 11.0002C11.0006 11.0002 11.0009 11.0002 11.0014 11.0002C11.0023 11.0002 11.0036 11.0002 11.0053 11.0002C11.0088 11.0002 11.014 11.0002 11.0209 11.0002C11.0346 11.0002 11.0548 11.0002 11.0809 11.0002C11.1332 11.0002 11.2092 11.0002 11.304 11.0002C11.4938 11.0002 11.7589 11.0001 12.0607 11.0001C12.6643 11.0001 13.4142 11 14 11L14 10C13.4142 10 12.6642 10.0001 12.0606 10.0001C11.7588 10.0001 11.4937 10.0002 11.3039 10.0002C11.2091 10.0002 11.1331 10.0002 11.0808 10.0002C11.0547 10.0002 11.0344 10.0002 11.0208 10.0002C11.0139 10.0002 11.0087 10.0002 11.0052 10.0002C11.0035 10.0002 11.0022 10.0002 11.0013 10.0002C11.0008 10.0002 11.0005 10.0002 11.0003 10.0002C11.0002 10.0002 11.0001 10.0002 11 10.0002C11 10.0002 11 10.0002 11 10.0002C10.9999 10.0002 10.9999 10.0002 11 10.5002Z" fill="#767676"/>
<path d="M12 13L14.5 10.5L12 8" stroke="#767676" stroke-linecap="square"/>
</svg>
