<svg width="16" height="16" viewBox="0 0 16 16" fill="none" xmlns="http://www.w3.org/2000/svg">
<path d="M4.85355 2.14645L4.5 1.79289L3.79289 2.5L4.14645 2.85355L4.85355 2.14645ZM8 6L7.64645 6.35355L8 6.70711L8.35355 6.35355L8 6ZM11.8536 2.85355L12.2071 2.5L11.5 1.79289L11.1464 2.14645L11.8536 2.85355ZM4.14645 2.85355L7.64645 6.35355L8.35355 5.64645L4.85355 2.14645L4.14645 2.85355ZM8.35355 6.35355L11.8536 2.85355L11.1464 2.14645L7.64645 5.64645L8.35355 6.35355Z" fill="#E2E2E2"/>
<path d="M4.85355 13.8536L4.5 14.2071L3.79289 13.5L4.14645 13.1464L4.85355 13.8536ZM8 10L7.64645 9.64645L8 9.29289L8.35355 9.64645L8 10ZM11.8536 13.1464L12.2071 13.5L11.5 14.2071L11.1464 13.8536L11.8536 13.1464ZM4.14645 13.1464L7.64645 9.64645L8.35355 10.3536L4.85355 13.8536L4.14645 13.1464ZM8.35355 9.64645L11.8536 13.1464L11.1464 13.8536L7.64645 10.3536L8.35355 9.64645Z" fill="#E2E2E2"/>
</svg>
