<svg width="16" height="16" viewBox="0 0 16 16" fill="none" xmlns="http://www.w3.org/2000/svg">
<path d="M14.36 8.35029C14.309 8.42736 14.2513 8.49558 14.187 8.55499L14.1802 8.56127L14.1736 8.56779C13.9828 8.75738 13.612 9.00957 12.9612 9.00957H12.9609H12.9606H12.9604H12.9601H12.9598H12.9596H12.9593H12.959H12.9588H12.9585H12.9582H12.958H12.9577H12.9574H12.9572H12.9569H12.9567H12.9564H12.9561H12.9559H12.9556H12.9553H12.9551H12.9548H12.9545H12.9543H12.954H12.9538H12.9535H12.9532H12.953H12.9527H12.9525H12.9522H12.9519H12.9517H12.9514H12.9511H12.9509H12.9506H12.9504H12.9501H12.9498H12.9496H12.9493H12.9491H12.9488H12.9485H12.9483H12.948H12.9478H12.9475H12.9472H12.947H12.9467H12.9465H12.9462H12.9459H12.9457H12.9454H12.9452H12.9449H12.9447H12.9444H12.9441H12.9439H12.9436H12.9434H12.9431H12.9429H12.9426H12.9423H12.9421H12.9418H12.9416H12.9413H12.9411H12.9408H12.9405H12.9403H12.94H12.9398H12.9395H12.9393H12.939H12.9387H12.9385H12.9382H12.938H12.9377H12.9375H12.9372H12.937H12.9367H12.9365H12.9362H12.9359H12.9357H12.9354H12.9352H12.9349H12.9347H12.9344H12.9342H12.9339H12.9337H12.9334H12.9331H12.9329H12.9326H12.9324H12.9321H12.9319H12.9316H12.9314H12.9311H12.9309H12.9306H12.9304H12.9301H12.9299H12.9296H12.9293H12.9291H12.9288H12.9286H12.9283H12.9281H12.9278H12.9276H12.9273H12.9271H12.9268H12.9266H12.9263H12.9261H12.9258H12.9256H12.9253H12.9251H12.9248H12.9246H12.9243H12.9241H12.9238H12.9236H12.9233H12.9231H12.9228H12.9226H12.9223H12.9221H12.9218H12.9216H12.9213H12.9211H12.9208H12.9206H12.9203H12.9201H12.9198H12.9196H12.9193H12.9191H12.9188H12.9186H12.9183H12.9181H12.9178H12.9176H12.9173H12.9171H12.9168H12.9166H12.9163H12.9161H12.9158H12.9156H12.9153H12.9151H12.9148H12.9146H12.9143H12.9141H12.9138H12.9136H12.9133H12.9131H12.9128H12.9126H12.9123H12.9121H12.9118H12.9116H12.9113H12.9111H12.9108H12.9106H12.9103H12.9101H12.9098H12.9096H12.9094H12.9091H12.9089H12.9086H12.9084H12.9081H12.9079H12.9076H12.9074H12.9071H12.9069H12.9066H12.9064H12.9061H12.9059H12.9056H12.9054H12.9051H12.9049H12.9046H12.9044H12.9041H12.9039H12.9037H12.9034H12.9032H12.9029H12.9027H12.9024H12.9022H12.9019H12.9017H12.9014H12.9012H12.9009H12.9007H12.9004H12.9002H12.8999H12.8997H12.8994H12.8992H12.899H12.8987H12.8985H12.8982H12.898H12.8977H12.8975H12.8972H12.897H12.8967H12.8965H12.8962H12.896H12.8957H12.8955H12.8952H12.895H12.8947H12.8945H12.8943H12.894H12.8938H12.8935H12.8933H12.893H12.8928H12.8925H12.8923H12.892H12.8918H12.8915H12.8913H12.891H12.8908H12.8905H12.8903H12.89H12.8898H12.8896H12.8893H12.8891H12.8888H12.8886H12.8883H12.8881H12.8878H12.8876H12.8873H12.8871H12.8868H12.8866H12.8863H12.8861H12.8858H12.8856H12.8853H12.8851H12.8848H12.8846H12.8844H12.8841H12.8839H12.8836H12.8834H12.8831H12.8829H12.8826H12.8824H12.8821H12.8819H12.8816H12.8814H12.8811H12.8809H12.8806H12.8804H12.8801H12.8799H12.8796H12.8794H12.8791H12.8789H12.8786H12.8784H12.8781H12.8779H12.8776H12.8774H12.8771H12.8769H12.8766H12.8764H12.8761H12.8759H12.8757H12.8754H12.8752H12.8749H12.8747H12.8744H12.8742H12.8739H12.8737H12.8734H12.8732H12.8729H12.8727H12.8724H12.8722H12.8719H12.8717H12.8714H12.8712H12.8709H12.8707H12.8704H12.8702H12.8699H12.8697H12.8694H12.8692H12.8689H12.8686H12.8684H12.8681H12.8679H12.8676H12.8674H12.8671H12.8669H12.8666H12.8664H12.8661H12.8659H12.8656H12.8654H12.8651H12.8649H12.8646H12.8644H12.8641H12.8639H12.8636H12.8634H12.8631H12.8629H12.8626H12.8624H12.8621H12.8618H12.8616H12.8613H12.8611H12.8608H12.8606H12.8603H12.8601H12.8598H12.8596H12.8593H12.8591H12.8588H12.8586H12.8583H12.858H12.8578H12.8575H12.8573H12.857H12.8568H12.8565H12.8563H12.856H12.8558H12.8555H12.8552H12.855H12.8547H12.8545H12.8542H12.854H12.8537H12.8535H12.8532H12.8529H12.8527H12.8524H12.8522H12.8519H12.8517H12.8514H12.8512H12.8509H12.8506H12.8504H12.8501H12.8499H12.8496H12.8494H12.8491H12.8488H12.8486H12.8483H12.8481H12.8478H12.8475H12.8473H12.847H12.8468H12.8465H12.8463H12.846H12.8457H12.8455H12.8452H12.845H12.8447H12.8444H12.8442H12.8439H12.8437H12.8434H12.8431H12.8429H12.8426H12.8424H12.8421H12.8418H12.8416H12.8413H12.8411H12.8408H12.8405H12.8403H12.84H12.8397H12.8395H12.8392H12.839H12.8387H12.8384H12.8382H12.8379H12.8377H12.8374H12.8371H12.8369H12.8366H12.8363H12.8361H12.8358H12.8355H12.8353H12.835H12.8348H12.8345H12.8342H12.834H12.8337H12.8334H12.8332H12.8329H12.8326H12.8324H12.8321H12.8318H12.8316H12.8313H12.4901L12.3657 9.32733C12.0567 10.1167 11.6479 10.9694 10.9719 11.7243L10.9704 11.7261C10.5712 12.1759 10.1008 12.5606 9.57698 12.8624C8.9321 13.2275 8.23277 13.4791 7.50247 13.611L7.50148 13.6112C6.96625 13.709 6.42494 13.7579 5.88367 13.7579C4.66093 13.7579 3.64345 13.5243 3.06664 13.1732C2.57127 12.8692 2.15925 12.3564 1.87119 11.6103C1.62116 10.9332 1.49568 10.2168 1.50011 9.4999H10.6561H10.6699L10.6837 9.49914C10.7569 9.4951 10.9476 9.48034 11.1711 9.43922C11.3855 9.39978 11.676 9.32815 11.9206 9.19055L12.3796 8.93242L12.0981 8.48743C11.889 8.15689 11.8216 7.76834 11.9274 7.33168C11.9631 7.18675 12.0151 7.04287 12.0808 6.90565C12.2947 7.09062 12.5665 7.40395 12.6351 7.87799L12.7082 8.38302L13.2117 8.29965C13.3845 8.27104 13.5581 8.25476 13.7209 8.25476C14.0161 8.25476 14.2256 8.30298 14.36 8.35029Z" stroke="#E2E2E2"/>
<path fill-rule="evenodd" clip-rule="evenodd" d="M9 2V4H7V2H9ZM6 4V1.33334C6 1.13726 6.14286 1 6.30357 1H9.69643C9.875 1 10 1.15686 10 1.33334V4.33334V4.66666V7.66666C10 7.84313 9.85714 8 9.69643 8H6.69643H6.30357H3.30357C3.14286 8 3.01786 7.84313 3 7.66666V4.33334C3 4.13726 3.14286 4 3.30357 4H6ZM7 5V7H9V5H7ZM6 5H4V7H6V5Z" fill="#E2E2E2"/>
</svg>
