<svg width="16" height="16" viewBox="0 0 16 16" fill="none" xmlns="http://www.w3.org/2000/svg">
<path d="M4.14236 6.69931C4.69819 5.04934 6.28407 3.86406 8.16268 3.86406C9.17198 3.86406 10.0836 4.21408 10.7999 4.78684L12.8836 2.75035C11.6138 1.66847 9.98594 1.00024 8.16268 1.00024C5.33212 1.00024 2.89836 2.58381 1.73328 4.89882L4.14236 6.69931Z" fill="#EA4335"/>
<path d="M4.14236 6.69931C4.69819 5.04934 6.28407 3.86406 8.16268 3.86406C9.17198 3.86406 10.0836 4.21408 10.7999 4.78684L12.8836 2.75035C11.6138 1.66847 9.98594 1.00024 8.16268 1.00024C5.33212 1.00024 2.89836 2.58381 1.73328 4.89882L4.14236 6.69931Z" fill="#EA4335"/>
<path d="M1.7334 11.1024L4.14247 9.30187C4.00472 8.89296 3.93023 8.45551 3.93023 8.00048C3.93023 7.54549 4.00471 7.10806 4.14245 6.69917L1.73336 4.89868C1.26351 5.83229 1 6.88485 1 8.00048C1 9.11614 1.26353 10.1687 1.7334 11.1024Z" fill="#FBBC05"/>
<path d="M1.73327 11.1024L4.14235 9.30187C4.0046 8.89296 3.93011 8.45551 3.93011 8.00048C3.93011 7.54549 4.00459 7.10806 4.14233 6.69917L1.73324 4.89868C1.26339 5.83229 0.999878 6.88485 0.999878 8.00048C0.999878 9.11614 1.26341 10.1687 1.73327 11.1024Z" fill="#FBBC05"/>
<path d="M1.73242 11.1004C2.89712 13.4165 5.33145 15.001 8.16281 15.001C11.7442 15.001 15 12.4554 15 8.00055C15 7.80528 14.9855 7.8207 14.9599 7.8479C14.9313 7.87832 14.8888 7.92347 14.8372 7.70508H8.16281V9.43246H12.0047C11.6465 11.1507 10.1489 12.1372 8.16281 12.1372C6.28198 12.1372 4.69458 10.9491 4.14053 9.29607L1.73242 11.1004Z" fill="#34A853"/>
<path d="M1.73242 11.1004C2.89712 13.4165 5.33145 15.001 8.16281 15.001C11.7442 15.001 15 12.4554 15 8.00055C15 7.80528 14.9855 7.8207 14.9599 7.8479C14.9313 7.87832 14.8888 7.92347 14.8372 7.70508H8.16281V9.43246H12.0047C11.6465 11.1507 10.1489 12.1372 8.16281 12.1372C6.28198 12.1372 4.69458 10.9491 4.14053 9.29607L1.73242 11.1004Z" fill="#34A853"/>
<path d="M8.16272 7.00024H14.8371C14.8545 7.07396 14.8709 7.14003 14.8861 7.20119C14.956 7.48324 14.9999 7.66073 14.9999 8.00068C14.9999 10.2824 14.1458 12.0632 12.8313 13.2577L10.5443 11.5272C11.2921 11.0659 11.8124 10.3546 12.0046 9.43258H8.16272V7.00024Z" fill="#4285F4"/>
<path d="M8.16272 7.00024H14.8371C14.8545 7.07396 14.8709 7.14003 14.8861 7.20119C14.956 7.48324 14.9999 7.66073 14.9999 8.00068C14.9999 10.2824 14.1458 12.0632 12.8313 13.2577L10.5443 11.5272C11.2921 11.0659 11.8124 10.3546 12.0046 9.43258H8.16272V7.00024Z" fill="#4285F4"/>
</svg>
