<svg width="16" height="16" viewBox="0 0 16 16" fill="none" xmlns="http://www.w3.org/2000/svg">
<path fill-rule="evenodd" clip-rule="evenodd" d="M5.98485 8.36278C6.38123 8.47672 7.31916 7.50704 7.57785 7.26667C7.78014 7.07871 8.09651 7.09033 8.28448 7.29262C8.47244 7.49492 8.46082 7.81129 8.25853 7.99925C7.66348 8.55214 6.63969 9.59152 5.70857 9.32386C4.90964 9.09419 4.66194 8.02262 4.3532 7.35882C4.31151 7.40056 4.26747 7.4401 4.22068 7.47606C4.22068 7.47606 4.21914 7.47724 3.61215 6.68253C3.61215 6.68253 3.8659 6.48872 3.82525 6.12456C3.79292 5.83492 3.95059 5.53516 4.20168 5.4089C7.10052 3.96233 9.05136 5.00192 10.499 5.77334C11.5278 6.32158 12.3024 6.73438 12.9826 6.02303C13.4406 5.57048 13.4739 4.80619 13.0636 4.31177C12.6614 3.8271 11.9132 3.75542 11.4336 4.15646C11.3958 4.18639 11.349 4.20103 11.3018 4.1977C11.2545 4.19436 11.21 4.17327 11.1764 4.1383L10.9279 3.87208C10.8887 3.83309 10.8659 3.77741 10.8659 3.72082C10.8659 3.66423 10.8887 3.60856 10.9279 3.56956C11.7236 2.79185 13.0206 2.81211 13.7932 3.62099C14.559 4.42268 15.4289 6.6432 12.1199 9.23431C11.1648 9.98306 10.8296 11.4775 10.8094 12.7784C10.8086 12.8324 10.7876 12.884 10.7508 12.9219C10.7141 12.9598 10.6645 12.9811 10.6129 12.9811H9.73146C9.68383 12.9807 9.63794 12.9623 9.60233 12.9292C9.56671 12.8961 9.5438 12.8505 9.53784 12.8011C9.45363 12.1337 8.89321 11.5799 8.20705 11.5799C7.5209 11.5799 6.96048 12.1337 6.87627 12.8011C6.87031 12.8505 6.8474 12.8961 6.81178 12.9292C6.77617 12.9623 6.73027 12.9807 6.68264 12.9811H5.79545C5.74773 12.9811 5.70167 12.9627 5.66599 12.9296C5.63031 12.8964 5.60748 12.8507 5.60183 12.8011C5.51762 12.1337 4.9572 11.5799 4.27104 11.5799C3.58488 11.5799 3.02446 12.1337 2.94025 12.8011C2.93586 12.8532 2.91263 12.9016 2.87532 12.9365C2.838 12.9713 2.7894 12.99 2.7394 12.9886H1.83198C1.7863 12.9884 1.74213 12.9715 1.70705 12.9409C1.67198 12.9102 1.6482 12.8677 1.63981 12.8207C1.1283 10.0315 2.07329 7.82909 3.61215 6.68253L4.21914 7.47724C3.0052 8.40444 2.48093 9.91874 2.49999 11.4107C2.933 10.8971 3.5868 10.5799 4.27104 10.5799C5.06732 10.5799 5.81786 11.0103 6.23905 11.6805C6.66024 11.0103 7.41077 10.5799 8.20705 10.5799C8.87295 10.5799 9.50952 10.8789 9.94278 11.3698C10.1437 10.2694 10.6009 9.1545 11.503 8.44732C12.0074 8.05235 12.3893 7.6801 12.6763 7.33655C11.7272 7.58097 10.8204 7.07799 10.0107 6.64635C9.17534 6.20099 8.31378 5.77628 7.35462 5.69838C6.68115 5.64368 5.8804 5.74201 4.91225 6.17826C5.05583 6.49842 5.58282 8.24721 5.98485 8.36278Z" fill="#E2E2E2"/>
</svg>
