<svg width="16" height="16" viewBox="0 0 16 16" fill="none" xmlns="http://www.w3.org/2000/svg">
<path fill-rule="evenodd" clip-rule="evenodd" d="M13.9878 4.97473L13.2804 5.68217C14.0228 6.37374 14.5955 7.17208 14.934 8C14.4672 9.14177 13.555 10.2273 12.3664 11.0541C11.0721 11.9545 9.51792 12.5 8 12.5C7.53704 12.5 7.0707 12.4493 6.60939 12.3532L5.78444 13.1781C6.50678 13.3862 7.25339 13.5 8 13.5C11.5 13.5 15 11 16 8C15.6297 6.88918 14.9167 5.84692 13.9878 4.97473ZM1.71046 14.9968L1.70676 15.0005L0.999651 14.2934L3.27465 12.0184C1.73603 11.0086 0.524343 9.57303 0 8C1 5 4.5 2.5 8 2.5C9.32188 2.5 10.6438 2.8566 11.8309 3.46207L14.2933 0.999756L14.9967 1.70316L1.70676 14.9931L1.71046 14.9968ZM7.9628 10.9998C7.97518 10.9999 7.98758 11 8 11C9.65685 11 11 9.65685 11 8C11 7.98758 10.9999 7.97518 10.9998 7.9628L7.9628 10.9998ZM8 3.5C9.04249 3.5 10.1021 3.75729 11.0829 4.21016L9.73834 5.55468C9.24792 5.20542 8.64795 5 8 5C6.34315 5 5 6.34315 5 8C5 8.64795 5.20542 9.24792 5.55468 9.73834L3.99865 11.2944C3.87489 11.2174 3.75312 11.1373 3.63356 11.0541C2.44503 10.2273 1.53283 9.14177 1.06602 8C1.53283 6.85823 2.44503 5.77271 3.63356 4.94591C4.92792 4.04548 6.48208 3.5 8 3.5ZM8 6C8.37094 6 8.71829 6.10098 9.01606 6.27695L6.27695 9.01606C6.10098 8.71829 6 8.37094 6 8C6 6.89543 6.89543 6 8 6Z" fill="#E2E2E2"/>
</svg>
