<svg width="16" height="16" viewBox="0 0 16 16" fill="none" xmlns="http://www.w3.org/2000/svg">
<path d="M6.54418 6.89532C6.47945 6.98206 6.40864 7.07415 6.33422 7.17095L6.32094 7.18822C6.24215 7.2907 6.15817 7.40009 6.06798 7.52042C5.39722 8.47523 5.14672 9.44503 5.09237 10.0342C5.19451 10.1223 5.28321 10.2229 5.36019 10.3234C5.80526 10.9047 6.14047 11.6108 6.56559 12.2199C7.05651 12.6469 7.64446 12.6658 8.13193 12.5475C8.48669 12.4613 8.86184 12.3395 9.22158 12.0866C9.57665 11.8369 9.93643 11.4455 10.2368 10.7892L10.2387 10.7903L10.3239 10.5851L10.3913 10.4229C10.4001 10.3457 10.4156 10.2732 10.4279 10.2172C10.4365 10.1784 10.4447 10.143 10.4528 10.1076C10.4666 10.0478 10.4804 9.98835 10.4956 9.91395C10.5398 9.69763 10.5806 9.42438 10.5715 9.07502C10.5541 8.41063 10.3544 7.41701 9.56688 5.99084L9.54514 5.95229C9.5011 5.88411 9.46219 5.81498 9.43022 5.74512C9.40857 5.69784 9.39471 5.64692 9.38913 5.59468C9.15482 5.85609 8.87458 6.12777 8.53588 6.37442C8.11824 6.67857 7.72109 6.84697 7.34949 6.80617C7.11966 6.78093 6.93509 6.68078 6.78915 6.54234C6.71562 6.66063 6.63233 6.77718 6.54418 6.89532ZM9.67442 14.4021C9.33633 14.0328 9.19284 13.558 9.21892 13.1181C8.89447 13.2775 8.58187 13.3688 8.31233 13.4342C7.94205 13.5241 7.49496 13.5564 7.04282 13.4483C7.066 13.7592 7.01242 14.0908 6.82834 14.4125C6.82381 14.4204 6.81906 14.4282 6.81409 14.4358C6.48935 14.9324 6.00171 15.0434 5.54496 14.9864C5.10575 14.9316 4.63612 14.7195 4.21081 14.4872C3.88212 14.3077 3.60207 14.2247 3.32475 14.1426C3.28833 14.1318 3.25194 14.121 3.21551 14.11C2.91143 14.0184 2.56518 13.9035 2.27324 13.5846C2.08751 13.3817 2.02643 13.0988 2.00764 12.873C1.98751 12.6311 2.00843 12.3645 2.05558 12.1069C2.14726 11.6062 2.35916 11.0316 2.68904 10.6712C2.94913 10.3871 3.25892 10.0942 3.60308 9.91321C3.81272 9.80295 4.04533 9.72957 4.28985 9.72989C4.39464 8.97885 4.71452 7.95254 5.4126 6.96122L5.42036 6.95053C5.51576 6.82316 5.6041 6.7081 5.68413 6.60402L5.6958 6.58883C5.77169 6.49013 5.83884 6.4028 5.8996 6.32137C6.0289 6.14809 6.11419 6.02119 6.17163 5.90828C6.26592 5.72293 6.30246 5.5496 6.23425 5.17683C6.22546 5.12884 6.21473 5.07348 6.20275 5.01175C6.10855 4.52616 5.93788 3.64644 6.04191 2.85748C6.10231 2.39945 6.25992 1.92132 6.61503 1.55916C6.97464 1.19242 7.48216 1 8.13893 1C8.87219 1 9.4177 1.25658 9.78689 1.70913C10.1432 2.14593 10.2887 2.70905 10.3417 3.23038C10.3951 3.75565 10.3594 4.28821 10.3145 4.71088C10.2957 4.88722 10.2747 5.0497 10.2573 5.18445L10.2472 5.26263C10.2384 5.33162 10.2318 5.38611 10.2271 5.4286L10.244 5.45878C10.3304 5.58423 10.4737 5.74363 10.6842 5.95731C10.7375 6.0114 10.7941 6.06809 10.8531 6.12722C11.0839 6.35833 11.3523 6.62711 11.6056 6.92453C12.2024 7.62538 12.7831 8.5605 12.7879 9.8168C12.9625 9.93262 13.1214 10.0697 13.2562 10.217C13.5925 10.5844 13.8445 11.0419 13.9484 11.5099C14.0525 11.9791 14.0136 12.5038 13.6974 12.9183C13.6893 12.9288 13.6809 12.939 13.672 12.9487C13.3886 13.2582 13.0227 13.4863 12.6867 13.6957L12.6383 13.7259C12.2735 13.9536 11.9134 14.1829 11.5752 14.5113L11.5652 14.5207C11.2353 14.821 10.8711 14.936 10.5152 14.883C10.1729 14.832 9.88591 14.6331 9.67442 14.4021ZM4.7223 10.9062C4.62394 10.7778 4.54394 10.7119 4.48245 10.6831C4.33268 10.613 4.1707 10.6229 3.96384 10.7317C3.74668 10.8459 3.51593 11.0526 3.27706 11.3136C3.10799 11.4982 2.94567 11.8774 2.87103 12.2851C2.83502 12.4817 2.82476 12.6579 2.83582 12.7908C2.84423 12.8919 2.8619 12.9353 2.8663 12.9461L2.8673 12.9487C2.99011 13.0797 3.14266 13.1457 3.43666 13.2343C3.46965 13.2443 3.50406 13.2544 3.53981 13.2649C3.81723 13.3467 4.17546 13.4523 4.58271 13.6747C4.98899 13.8966 5.35096 14.0479 5.63939 14.0839C5.90311 14.1168 6.03904 14.0507 6.13007 13.9187C6.24194 13.7144 6.24123 13.4908 6.15035 13.2343C5.87976 12.4707 5.20025 11.5305 4.7223 10.9062ZM6.98098 4.25065C6.99997 4.51712 7.02135 4.79023 7.05962 5.04742C7.10384 5.34458 7.16491 5.57653 7.24436 5.72932C7.31678 5.86858 7.3769 5.8962 7.43265 5.90232C7.5206 5.91198 7.71831 5.87806 8.0746 5.61859C8.46717 5.3327 8.77281 5.00062 9.02511 4.68761C9.13675 4.54912 9.23587 4.41707 9.33004 4.29162L9.36881 4.23999C9.37615 4.23022 9.38351 4.22044 9.39088 4.21066C8.59312 3.83286 7.57282 3.98809 6.98098 4.25065ZM11.0648 11.0004L11.0642 11.0018C10.7229 11.8259 10.4668 12.4443 10.1319 12.9043C10.0158 13.0788 9.98698 13.4589 10.2624 13.7598C10.3836 13.8921 10.5124 13.9658 10.6275 13.9829C10.7281 13.9979 10.8612 13.9772 11.0282 13.827C11.4369 13.4315 11.8646 13.1626 12.2257 12.9372C12.5953 12.7065 12.8685 12.5354 13.0691 12.3224C13.1612 12.1915 13.2001 11.9941 13.1402 11.7239C13.0777 11.4425 12.914 11.1279 12.6682 10.8594C12.4302 10.5994 12.0992 10.4095 11.8075 10.3768C11.6672 10.3611 11.5476 10.3826 11.4492 10.4352C11.356 10.485 11.2579 10.5752 11.1718 10.7424C11.1351 10.8306 11.0995 10.9166 11.0648 11.0004Z" fill="#E2E2E2"/>
</svg>
