<svg width="16" height="16" viewBox="0 0 16 16" fill="none" xmlns="http://www.w3.org/2000/svg">
<path d="M4.47449 11.3716L4.11182 11.7158L4.47899 12.1027L4.84137 11.7113L4.47449 11.3716ZM1.16272 7.1558L0.818516 6.79313L0.0931832 7.48153L0.437382 7.8442L1.16272 7.1558ZM11.6669 4.3397L12.0066 3.97282L11.2729 3.29342L10.9332 3.6603L11.6669 4.3397ZM4.83715 11.0274L1.16272 7.1558L0.437382 7.8442L4.11182 11.7158L4.83715 11.0274ZM4.84137 11.7113L11.6669 4.3397L10.9332 3.6603L4.10761 11.0319L4.84137 11.7113Z" fill="#E2E2E2"/>
<path d="M8.03302 11.0319L7.69332 11.3988L8.42708 12.0782L8.76678 11.7113L8.03302 11.0319ZM15.5923 4.3397L15.932 3.97282L15.1983 3.29342L14.8586 3.6603L15.5923 4.3397ZM8.76678 11.7113L15.5923 4.3397L14.8586 3.6603L8.03302 11.0319L8.76678 11.7113Z" fill="#E2E2E2"/>
</svg>
