<svg width="16" height="16" viewBox="0 0 16 16" fill="none" xmlns="http://www.w3.org/2000/svg">
<g clip-path="url(#clip0_11429_110855)">
<path fill-rule="evenodd" clip-rule="evenodd" d="M6 2H13C13.5523 2 14 2.44772 14 3V13C14 13.5523 13.5523 14 13 14H6V2ZM5 2H3C2.44772 2 2 2.44772 2 3V13C2 13.5523 2.44772 14 3 14H5V2ZM1 3C1 1.89543 1.89543 1 3 1H13C14.1046 1 15 1.89543 15 3V13C15 14.1046 14.1046 15 13 15H3C1.89543 15 1 14.1046 1 13V3Z" fill="#E2E2E2"/>
</g>
<defs>
<clipPath id="clip0_11429_110855">
<rect width="16" height="16" fill="white"/>
</clipPath>
</defs>
</svg>
