<svg width="16" height="16" viewBox="0 0 16 16" fill="none" xmlns="http://www.w3.org/2000/svg">
<path fill-rule="evenodd" clip-rule="evenodd" d="M13.3008 2V1.5H12.3008V2V3.81636C11.2112 2.6965 9.68696 2 8 2C4.68629 2 2 4.68629 2 8C2 11.3137 4.68629 14 8 14C10.3918 14 12.4558 12.6004 13.4194 10.5778L13.6345 10.1264L12.7317 9.69629L12.5167 10.1477C11.7126 11.8353 9.99182 13 8 13C5.23858 13 3 10.7614 3 8C3 5.23858 5.23858 3 8 3C9.39841 3 10.6629 3.57378 11.5708 4.5H9.80078H9.30078V5.5H9.80078H12.8008H13.3008V5V2Z" fill="#E2E2E2"/>
</svg>
