<svg width="16" height="16" viewBox="0 0 16 16" fill="none" xmlns="http://www.w3.org/2000/svg">
<g clip-path="url(#clip0_11429_110992)">
<path fill-rule="evenodd" clip-rule="evenodd" d="M10.7929 0.999999L11.1465 1.35355L13.6465 3.85355L14 4.20711L13.6465 4.56066L11.1465 7.06066L10.7929 7.41421L10.0858 6.70711L10.4394 6.35355L12.0857 4.70727L5.50293 4.70728L5.00293 4.70728L5.00293 4.70703C3.89836 4.70703 3.00293 5.60246 3.00293 6.70703L2.00293 6.70703C2.00293 5.05018 3.34608 3.70703 5.00293 3.70703L5.00293 3.70728L5.50293 3.70728L12.086 3.70727L10.4394 2.06066L10.0858 1.70711L10.7929 0.999999Z" fill="#E2E2E2"/>
<path fill-rule="evenodd" clip-rule="evenodd" d="M5.21 15L4.85644 14.6464L2.35645 12.1464L2.0029 11.7929L2.35645 11.4393L4.85644 8.93934L5.21 8.58579L5.91711 9.29289L5.56355 9.64645L3.91728 11.2927L10.5 11.2927L11 11.2927L11 11.293C12.1046 11.293 13 10.3975 13 9.29297L14 9.29297C14 10.9498 12.6569 12.293 11 12.293L11 12.2927L10.5 12.2927L3.91694 12.2927L5.56355 13.9393L5.9171 14.2929L5.21 15Z" fill="#E2E2E2"/>
</g>
<defs>
<clipPath id="clip0_11429_110992">
<rect width="16" height="16" fill="white"/>
</clipPath>
</defs>
</svg>
