<svg width="16" height="16" viewBox="0 0 16 16" fill="none" xmlns="http://www.w3.org/2000/svg">
<path fill-rule="evenodd" clip-rule="evenodd" d="M5.78217 10.3571L2.38785 9.68088C2.00206 9.60403 1.85201 9.13235 2.1225 8.84672L9.57012 0.982127C9.88937 0.644999 10.4557 0.887168 10.4325 1.35089L10.2179 5.64311L13.6122 6.31931C13.998 6.39617 14.1481 6.86785 13.8776 7.15347L6.42998 15.0181C6.11073 15.3552 5.54437 15.113 5.56756 14.6493L5.78217 10.3571ZM9.17607 6.45521L9.28303 4.31602L9.81255 1.47382L8.23614 3.84514L3.47104 8.87702L6.82402 9.54499L6.71707 11.6841L6.18755 14.5264L7.76392 12.1551L12.5291 7.12317L9.17607 6.45521Z" fill="#E2E2E2"/>
</svg>
