<svg width="12" height="12" viewBox="0 0 12 12" fill="none" xmlns="http://www.w3.org/2000/svg">
<path d="M11 5.04732C9.56786 8.12486 6.60194 10.2043 3.22024 10.5C1.27069 7.71822 0.956538 4.11389 2.38868 1.03634C2.66691 1.01201 2.94436 1 3.22053 1C6.30102 1 9.21084 2.49438 11 5.04732ZM10.0236 5.41213L6.7018 5.82736L4.147 9.65956C6.62046 9.15643 8.76558 7.6098 10.0236 5.41213ZM3.41051 9.50235L6.04906 5.54453L2.6817 2.17716C1.84397 4.60436 2.10641 7.28174 3.41051 9.50235ZM3.19452 1.70004L6.62589 5.1314L9.86252 4.72682C8.19315 2.80496 5.77012 1.7 3.22053 1.7C3.21186 1.7 3.20319 1.70001 3.19452 1.70004Z" fill="#E2E2E2"/>
</svg>
