<svg width="16" height="16" viewBox="0 0 16 16" fill="none" xmlns="http://www.w3.org/2000/svg">
<g clip-path="url(#clip0_11429_111267)">
<path fill-rule="evenodd" clip-rule="evenodd" d="M2.45662 1.09189C2.50084 1.0703 2.54877 1.05681 2.59813 1.05225C4.97636 0.842937 7.36781 1.26325 9.53191 2.27091C11.696 3.27858 13.5565 4.83805 14.9261 6.79246C14.9672 6.85066 14.9921 6.91867 14.9984 6.98961C15.0048 7.06055 14.9922 7.1319 14.9621 7.19644C14.1901 8.84793 13.0969 10.3225 11.7522 11.5371C13.0969 10.3225 14.1901 8.84794 14.962 7.19645C14.9922 7.13191 15.0047 7.06056 14.9984 6.98963C14.9921 6.91869 14.9671 6.85068 14.9261 6.79247C13.5564 4.83806 11.696 3.27859 9.53189 2.27093C7.36778 1.26326 4.97634 0.842949 2.5981 1.05226C2.54876 1.05682 2.50084 1.07031 2.45662 1.09189ZM10.4362 12.5857C10.4362 12.5857 10.4362 12.5857 10.4362 12.5857C10.4362 12.5857 10.4362 12.5857 10.4362 12.5857C10.4362 12.5857 10.4362 12.5857 10.4362 12.5857ZM3.78987 15.0999C3.80062 15.0999 3.8161 15.0999 3.83228 15.0984C6.2274 14.8852 8.52448 14.0469 10.4936 12.6676C12.4628 11.2883 14.0349 9.41617 15.0527 7.23875C15.0903 7.15825 15.1059 7.06924 15.098 6.98074C15.0902 6.89235 15.0591 6.80761 15.008 6.73507C13.6283 4.76628 11.7541 3.19533 9.57412 2.18026C7.39411 1.16519 4.98464 0.741823 2.58892 0.952673C2.50056 0.960841 2.41588 0.991999 2.3433 1.04305C2.27073 1.0941 2.2127 1.16347 2.17517 1.24387C1.16385 3.42359 0.742354 5.83033 0.952768 8.22378C1.16318 10.6172 1.99814 12.9136 3.37428 14.8837C3.42079 14.9504 3.48273 15.0049 3.55483 15.0425C3.62695 15.0802 3.70714 15.0998 3.7885 15.0999H3.78987ZM9.80269 6.61901L9.80267 6.61903C8.39163 4.63511 6.54569 2.99965 4.40577 1.83751C4.40578 1.83752 4.4058 1.83752 4.40582 1.83752C4.47366 1.87436 4.54121 1.91168 4.60845 1.94947C6.66234 3.1037 8.4364 4.698 9.80269 6.61901ZM9.54599 3.31368C11.0821 4.09938 12.441 5.18969 13.5401 6.51727L9.85416 6.51899C8.52445 4.66208 6.81509 3.11082 4.84107 1.96708C6.48056 2.10635 8.07877 2.56321 9.54599 3.31368ZM2.85478 1.97945C2.84166 2.01009 2.82866 2.04078 2.81579 2.07152C2.01499 3.98301 1.68978 6.06061 1.86872 8.12616C2.04766 10.1916 2.72529 12.1824 3.84283 13.9278C3.86084 13.9559 3.87897 13.984 3.89722 14.012C3.89721 14.012 3.8972 14.012 3.8972 14.012C2.74725 12.2465 2.05053 10.2249 1.8687 8.12617C1.68688 6.0274 2.02556 3.9162 2.85476 1.97944C2.85477 1.97944 2.85477 1.97944 2.85478 1.97945ZM3.97626 13.9521C3.94925 13.9727 3.92334 13.9923 3.89858 14.011ZM3.89858 14.011L3.97626 13.9521ZM9.04902 7.14014C7.48523 4.94792 5.36501 3.21241 2.90721 2.11209C2.11326 4.00813 1.79086 6.0688 1.96835 8.11753C2.14566 10.1642 2.81649 12.1369 3.92274 13.8671C4.51273 13.4167 5.61853 12.5149 6.66085 11.3559C7.74811 10.1469 8.75624 8.66911 9.04902 7.14014ZM5.28049 13.9444C5.33357 13.8996 5.38776 13.8535 5.44296 13.8061C7.00448 12.464 9.36575 10.0642 9.92869 7.4312H9.92867C9.34583 10.1572 6.83528 12.6333 5.28046 13.9444C5.35026 13.9295 5.41991 13.914 5.48939 13.898C5.41991 13.914 5.35028 13.9295 5.28049 13.9444ZM10.2602 11.5645C8.88758 12.5998 7.32008 13.3448 5.65331 13.7561C6.38296 13.1181 7.26134 12.2676 8.04731 11.2807C8.92978 10.1726 9.7006 8.88642 10.009 7.53119H13.7482C12.8846 9.10666 11.6959 10.4816 10.2602 11.5645Z" fill="#E2E2E2"/>
</g>
<defs>
<clipPath id="clip0_11429_111267">
<rect width="16" height="16" fill="white"/>
</clipPath>
</defs>
</svg>
