<svg width="16" height="16" viewBox="0 0 16 16" fill="none" xmlns="http://www.w3.org/2000/svg">
<path fill-rule="evenodd" clip-rule="evenodd" d="M6.21 3.29297L5.85645 3.64652L2.35645 7.14652L2.0029 7.50008L2.35645 7.85363L5.85644 11.3536L6.21 11.7072L6.91711 11.0001L6.56355 10.6465L3.91728 8.00024L10.5 8.00024L11 8.00024L11 8C12.1046 8 13 8.89543 13 10C13 11.1046 12.1046 12 11 12L11 13C12.6569 13 14 11.6569 14 10C14 8.34315 12.6569 7 11 7L11 7.00024L10.5 7.00024L3.91694 7.00024L6.56355 4.35363L6.91711 4.00007L6.21 3.29297Z" fill="#E2E2E2"/>
</svg>
