<svg width="16" height="16" viewBox="0 0 16 16" fill="none" xmlns="http://www.w3.org/2000/svg">
<path fill-rule="evenodd" clip-rule="evenodd" d="M3.5 1.5C2.39543 1.5 1.5 2.39543 1.5 3.5V12.5C1.5 13.6046 2.39543 14.5 3.5 14.5H12.5C13.6046 14.5 14.5 13.6046 14.5 12.5V3.5C14.5 2.39543 13.6046 1.5 12.5 1.5H3.5ZM4.716 10.864C4.99867 11.008 5.32667 11.08 5.7 11.08C6.07333 11.08 6.39867 11.008 6.676 10.864C6.95867 10.72 7.17467 10.5173 7.324 10.256C7.47867 9.98933 7.556 9.68267 7.556 9.336V6.824C7.556 6.472 7.47867 6.16533 7.324 5.904C7.17467 5.64267 6.95867 5.44 6.676 5.296C6.39867 5.152 6.07333 5.08 5.7 5.08C5.32667 5.08 4.99867 5.152 4.716 5.296C4.43867 5.44 4.22267 5.64267 4.068 5.904C3.91867 6.16533 3.844 6.472 3.844 6.824V9.336C3.844 9.688 3.91867 9.99467 4.068 10.256C4.22267 10.5173 4.43867 10.72 4.716 10.864ZM6.364 9.976C6.19867 10.136 5.97733 10.216 5.7 10.216C5.42267 10.216 5.20133 10.136 5.036 9.976C4.87067 9.816 4.788 9.60267 4.788 9.336V6.824C4.788 6.55733 4.87067 6.344 5.036 6.184C5.20133 6.024 5.42267 5.944 5.7 5.944C5.97733 5.944 6.19867 6.024 6.364 6.184C6.52933 6.344 6.612 6.55733 6.612 6.824V9.336C6.612 9.60267 6.52933 9.816 6.364 9.976ZM5.412 8.44C5.48667 8.52 5.58267 8.56 5.7 8.56C5.82267 8.56 5.91867 8.52 5.988 8.44C6.06267 8.36 6.1 8.25333 6.1 8.12V8C6.1 7.86667 6.06267 7.76 5.988 7.68C5.91867 7.6 5.82267 7.56 5.7 7.56C5.58267 7.56 5.48667 7.6 5.412 7.68C5.33733 7.76 5.3 7.86667 5.3 8V8.12C5.3 8.25333 5.33733 8.36 5.412 8.44ZM8.76888 11H12.5129V10.12H11.2889V5.16H10.1049L8.76087 6.128V7.184L10.2889 6.048V10.12H8.76888V11Z" fill="#1A85F6"/>
</svg>
