<svg width="16" height="16" viewBox="0 0 16 16" fill="none" xmlns="http://www.w3.org/2000/svg">
<path fill-rule="evenodd" clip-rule="evenodd" d="M3.5 1.5C2.39543 1.5 1.5 2.39543 1.5 3.5V12.5C1.5 13.6046 2.39543 14.5 3.5 14.5H12.5C13.6046 14.5 14.5 13.6046 14.5 12.5V3.5C14.5 2.39543 13.6046 1.5 12.5 1.5H3.5ZM4.716 10.864C4.99333 11.008 5.32133 11.08 5.7 11.08C6.07867 11.08 6.40667 11.008 6.684 10.864C6.96133 10.72 7.17467 10.5173 7.324 10.256C7.47867 9.99467 7.556 9.688 7.556 9.336V6.824C7.556 6.472 7.47867 6.16533 7.324 5.904C7.17467 5.64267 6.96133 5.44 6.684 5.296C6.412 5.152 6.084 5.08 5.7 5.08C5.32133 5.08 4.99333 5.152 4.716 5.296C4.43867 5.44 4.22267 5.64267 4.068 5.904C3.91867 6.16533 3.844 6.472 3.844 6.824V9.336C3.844 9.688 3.91867 9.99467 4.068 10.256C4.22267 10.5173 4.43867 10.72 4.716 10.864ZM6.364 9.976C6.19867 10.136 5.97733 10.216 5.7 10.216C5.42267 10.216 5.20133 10.136 5.036 9.976C4.87067 9.816 4.788 9.60267 4.788 9.336V6.824C4.788 6.55733 4.87067 6.344 5.036 6.184C5.20133 6.024 5.42267 5.944 5.7 5.944C5.97733 5.944 6.19867 6.024 6.364 6.184C6.52933 6.344 6.612 6.55733 6.612 6.824V9.336C6.612 9.60267 6.52933 9.816 6.364 9.976ZM5.316 8.448C5.41733 8.54933 5.54533 8.6 5.7 8.6C5.86 8.6 5.988 8.54933 6.084 8.448C6.18 8.34667 6.228 8.216 6.228 8.056C6.228 7.896 6.18 7.768 6.084 7.672C5.988 7.576 5.86 7.528 5.7 7.528C5.54 7.528 5.412 7.576 5.316 7.672C5.22 7.768 5.172 7.896 5.172 8.056C5.172 8.216 5.22 8.34667 5.316 8.448ZM8.76888 10.12V11H12.5129V10.12H11.2889V5.16H10.1049L8.76087 6.128V7.184L10.2889 6.048V10.12H8.76888Z" fill="#1A85F6"/>
</svg>
