<svg width="16" height="16" viewBox="0 0 16 16" fill="none" xmlns="http://www.w3.org/2000/svg">
<path fill-rule="evenodd" clip-rule="evenodd" d="M12.1771 12.1977C9.45453 12.1977 8.48 10.6965 8.48 8.49889C8.48 8.23453 8.4868 7.9708 8.5083 7.71268C8.35006 7.68365 8.18043 7.66672 8 7.66672C7.81185 7.66672 7.63544 7.68513 7.47145 7.71648C7.49292 7.97447 7.49972 8.23807 7.49972 8.5023C7.49972 10.6999 6.52519 12.2011 3.80259 12.2011C1.72789 12.2011 0.317344 10.6164 0.199469 8.59802C0.187747 8.3973 0.180184 8.19721 0.179736 8.00005H0V6.00005H0.648542C0.79257 5.78944 0.977334 5.60472 1.21258 5.45346C1.89147 5.01695 2.84282 4.80345 3.80259 4.80345C4.76235 4.80345 5.61297 4.92328 6.29487 5.37625C6.60013 5.57903 6.82949 5.82318 7.00134 6.09712C7.2865 6.04095 7.62342 6.00005 8 6.00005C8.36782 6.00005 8.69781 6.03907 8.97868 6.09323C9.1505 5.81949 9.37976 5.57551 9.68485 5.37284C10.3667 4.91988 11.2174 4.80005 12.1771 4.80005C13.1369 4.80005 14.0882 5.01355 14.7671 5.45005C15.0036 5.60213 15.1891 5.78802 15.3335 6.00005H16V8.00005H15.8C15.7994 8.19611 15.7919 8.39505 15.7802 8.59462C15.6624 10.613 14.2518 12.1977 12.1771 12.1977ZM12.1619 10.6659C10.5551 10.6659 9.98 9.77992 9.98 8.48297C9.98 7.76445 10.0651 7.0539 10.6911 6.63809C11.0935 6.37077 11.5955 6.30005 12.1619 6.30005C12.7283 6.30005 13.2898 6.42605 13.6904 6.68366C14.2781 7.06148 14.3319 7.79308 14.2883 8.53947C14.2188 9.73064 13.3863 10.6659 12.1619 10.6659ZM6 8.48297C6 9.77992 5.42487 10.6659 3.81809 10.6659C2.59368 10.6659 1.76122 9.73064 1.69166 8.53947C1.64807 7.79308 1.70194 7.06148 2.28956 6.68366C2.69022 6.42605 3.25167 6.30005 3.81809 6.30005C4.38451 6.30005 4.88651 6.37077 5.28894 6.63809C5.9149 7.0539 6 7.76445 6 8.48297Z" fill="#E2E2E2"/>
</svg>
