<svg width="16" height="16" viewBox="0 0 16 16" fill="none" xmlns="http://www.w3.org/2000/svg">
<path d="M4.45269 12.12C3.60469 12.12 2.92869 11.888 2.42469 11.424C1.92069 10.952 1.66869 10.32 1.66869 9.528V5.712C1.66869 4.92 1.92069 4.292 2.42469 3.828C2.92869 3.356 3.60469 3.12 4.45269 3.12C5.00469 3.12 5.48869 3.228 5.90469 3.444C6.32869 3.652 6.65669 3.952 6.88869 4.344C7.12069 4.736 7.23669 5.192 7.23669 5.712H5.72469C5.72469 5.304 5.61269 4.988 5.38869 4.764C5.17269 4.54 4.86069 4.428 4.45269 4.428C4.04469 4.428 3.72869 4.54 3.50469 4.764C3.28069 4.98 3.16869 5.292 3.16869 5.7V9.528C3.16869 9.936 3.28069 10.252 3.50469 10.476C3.72869 10.7 4.04469 10.812 4.45269 10.812C4.85269 10.812 5.16469 10.7 5.38869 10.476C5.61269 10.252 5.72469 9.936 5.72469 9.528V8.64H4.23669V7.344H7.23669V9.528C7.23669 10.048 7.12069 10.504 6.88869 10.896C6.65669 11.288 6.32869 11.592 5.90469 11.808C5.48869 12.016 5.00469 12.12 4.45269 12.12ZM8.912 12V3.24H11.684C12.26 3.24 12.764 3.348 13.196 3.564C13.636 3.78 13.972 4.084 14.204 4.476C14.444 4.868 14.564 5.324 14.564 5.844C14.564 6.42 14.42 6.928 14.132 7.368C13.844 7.808 13.448 8.12 12.944 8.304L14.684 12H13.004L11.48 8.52H10.412V12H8.912ZM11.684 7.212C12.1 7.212 12.428 7.096 12.668 6.864C12.916 6.624 13.04 6.3 13.04 5.892C13.04 5.476 12.916 5.148 12.668 4.908C12.428 4.668 12.1 4.548 11.684 4.548H10.412V7.212H11.684Z" fill="#3EA17F"/>
</svg>
