<svg width="16" height="16" viewBox="0 0 16 16" fill="none" xmlns="http://www.w3.org/2000/svg">
<path fill-rule="evenodd" clip-rule="evenodd" d="M13.0999 2H11.8999V3.9001L10 3.9001V5.1001H11.8999V7H13.0999V5.1001H15V3.9001L13.0999 3.9001V2Z" fill="#F8AB17"/>
<path fill-rule="evenodd" clip-rule="evenodd" d="M13.0999 9H11.8999V10.9001L10 10.9001V12.1001H11.8999V14H13.0999V12.1001H15V10.9001L13.0999 10.9001V9Z" fill="#F8AB17"/>
<path d="M4.55034 12.12C3.70234 12.12 3.02634 11.888 2.52234 11.424C2.01834 10.952 1.76634 10.32 1.76634 9.528V5.712C1.76634 4.92 2.01834 4.292 2.52234 3.828C3.02634 3.356 3.70234 3.12 4.55034 3.12C5.10234 3.12 5.58634 3.228 6.00234 3.444C6.42634 3.652 6.75434 3.952 6.98634 4.344C7.21834 4.736 7.33434 5.192 7.33434 5.712H5.82234C5.82234 5.304 5.71034 4.988 5.48634 4.764C5.27034 4.54 4.95834 4.428 4.55034 4.428C4.14234 4.428 3.82634 4.54 3.60234 4.764C3.37834 4.98 3.26634 5.292 3.26634 5.7V9.528C3.26634 9.936 3.37834 10.252 3.60234 10.476C3.82634 10.7 4.14234 10.812 4.55034 10.812C4.95034 10.812 5.26234 10.7 5.48634 10.476C5.71034 10.252 5.82234 9.936 5.82234 9.528H7.33434C7.33434 10.048 7.21834 10.504 6.98634 10.896C6.75434 11.288 6.42634 11.592 6.00234 11.808C5.58634 12.016 5.10234 12.12 4.55034 12.12Z" fill="#F8AB17"/>
</svg>
