<svg width="16" height="16" viewBox="0 0 16 16" fill="none" xmlns="http://www.w3.org/2000/svg">
<path d="M9.37255 2C9.37255 2.02118 9.37255 2.04235 9.37255 2.06471C9.37255 2.82471 8.75647 3.44059 7.99667 3.44059C7.23667 3.44059 6.62078 2.82451 6.62078 2.06471C6.62078 2.04235 6.62078 2.02118 6.62078 2H2V14H14V2H9.37255Z" fill="#654FF0"/>
<path d="M4.78711 8.46692H5.5824L6.12534 11.3585H6.13515L6.7877 8.46692H7.53162L8.12103 11.394H8.1326L8.75142 8.46692H9.53142L8.51789 12.7157H7.72868L7.14417 9.82417H7.12887L6.50319 12.7157H5.69927L4.78711 8.46692ZM10.4281 8.46692H11.6818L12.9269 12.7157H12.1065L11.8357 11.7703H10.4075L10.1985 12.7157H9.39946L10.4281 8.46692ZM10.9053 9.51417L10.5585 11.073H11.6381L11.2399 9.51417H10.9053Z" fill="white"/>
</svg>
