<svg width="16" height="16" viewBox="0 0 16 16" fill="none" xmlns="http://www.w3.org/2000/svg">
<circle cx="8" cy="8" r="7" fill="#3EA17F"/>
<path fill-rule="evenodd" clip-rule="evenodd" d="M10.0369 4.70767V5.91483H10C9.57204 5.08578 8.77991 4.60791 7.73238 4.60791C5.88673 4.60791 4.5 6.06447 4.5 7.99991C4.5 9.93534 5.88673 11.3919 7.73238 11.3919C8.89763 11.3919 9.86135 10.8502 10.3751 10.0012C10.9199 10.8462 11.9345 11.362 13.2095 11.362C13.5668 11.362 13.9027 11.3176 14.2136 11.233C14.2136 11.233 14.707 10.3281 14.8555 9.42578C14.4862 9.88566 13.8975 10.1648 13.2095 10.1648C12.0422 10.1648 11.1842 9.42654 11.1842 8.34909V4.70767H10.0369ZM5.74694 7.99991C5.74694 9.30683 6.64482 10.2945 7.842 10.2945C9.03917 10.2945 9.93706 9.30683 9.93706 7.99991C9.93706 6.69299 9.03917 5.70532 7.842 5.70532C6.64482 5.70532 5.74694 6.69299 5.74694 7.99991Z" fill="white"/>
</svg>
