<svg width="16" height="16" viewBox="0 0 16 16" fill="none" xmlns="http://www.w3.org/2000/svg">
<circle cx="8" cy="8" r="6" fill="#1A85F6" stroke="#1A85F6"/>
<path d="M8.01226 11.75C7.30559 11.75 6.74226 11.5567 6.32226 11.17C5.90226 10.7767 5.69226 10.25 5.69226 9.59V6.41C5.69226 5.75 5.90226 5.22667 6.32226 4.84C6.74226 4.44667 7.30559 4.25 8.01226 4.25C8.47226 4.25 8.87559 4.34 9.22226 4.52C9.57559 4.69333 9.84893 4.94333 10.0423 5.27C10.2356 5.59667 10.3323 5.97667 10.3323 6.41H9.07226C9.07226 6.07 8.97893 5.80667 8.79226 5.62C8.61226 5.43333 8.35226 5.34 8.01226 5.34C7.67226 5.34 7.40893 5.43333 7.22226 5.62C7.03559 5.8 6.94226 6.06 6.94226 6.4V9.59C6.94226 9.93 7.03559 10.1933 7.22226 10.38C7.40893 10.5667 7.67226 10.66 8.01226 10.66C8.34559 10.66 8.60559 10.5667 8.79226 10.38C8.97893 10.1933 9.07226 9.93 9.07226 9.59H10.3323C10.3323 10.0233 10.2356 10.4033 10.0423 10.73C9.84893 11.0567 9.57559 11.31 9.22226 11.49C8.87559 11.6633 8.47226 11.75 8.01226 11.75Z" fill="white"/>
</svg>
