<svg width="16" height="16" viewBox="0 0 16 16" fill="none" xmlns="http://www.w3.org/2000/svg">
<path d="M14 8C14 11.3137 11.3137 14 8 14C4.68629 14 2 11.3137 2 8C2 4.68629 4.68629 2 8 2C11.3137 2 14 4.68629 14 8Z" stroke="#1A85F6"/>
<path d="M8.00018 11.75C7.29351 11.75 6.73018 11.5567 6.31018 11.17C5.89018 10.7767 5.68018 10.25 5.68018 9.59V6.41C5.68018 5.75 5.89018 5.22667 6.31018 4.84C6.73018 4.44667 7.29351 4.25 8.00018 4.25C8.46018 4.25 8.86351 4.34 9.21018 4.52C9.56351 4.69333 9.83684 4.94333 10.0302 5.27C10.2235 5.59667 10.3202 5.97667 10.3202 6.41H9.06018C9.06018 6.07 8.96684 5.80667 8.78018 5.62C8.60018 5.43333 8.34018 5.34 8.00018 5.34C7.66018 5.34 7.39684 5.43333 7.21018 5.62C7.02351 5.8 6.93018 6.06 6.93018 6.4V9.59C6.93018 9.93 7.02351 10.1933 7.21018 10.38C7.39684 10.5667 7.66018 10.66 8.00018 10.66C8.33351 10.66 8.59351 10.5667 8.78018 10.38C8.96684 10.1933 9.06018 9.93 9.06018 9.59H10.3202C10.3202 10.0233 10.2235 10.4033 10.0302 10.73C9.83684 11.0567 9.56351 11.31 9.21018 11.49C8.86351 11.6633 8.46018 11.75 8.00018 11.75Z" fill="#1A85F6"/>
</svg>
