<svg width="16" height="16" viewBox="0 0 16 16" fill="none" xmlns="http://www.w3.org/2000/svg">
<rect x="-0.407471" y="8" width="11.89" height="11.89" rx="1" transform="rotate(-45 -0.407471 8)" fill="#F8AB17"/>
<path d="M8.07775 11.75C7.37108 11.75 6.80775 11.5567 6.38775 11.17C5.96775 10.7767 5.75775 10.25 5.75775 9.59V6.41C5.75775 5.75 5.96775 5.22667 6.38775 4.84C6.80775 4.44667 7.37108 4.25 8.07775 4.25C8.53775 4.25 8.94108 4.34 9.28775 4.52C9.64108 4.69333 9.91442 4.94333 10.1078 5.27C10.3011 5.59667 10.3978 5.97667 10.3978 6.41H9.13775C9.13775 6.07 9.04442 5.80667 8.85775 5.62C8.67775 5.43333 8.41775 5.34 8.07775 5.34C7.73775 5.34 7.47442 5.43333 7.28775 5.62C7.10108 5.8 7.00775 6.06 7.00775 6.4V9.59C7.00775 9.93 7.10108 10.1933 7.28775 10.38C7.47442 10.5667 7.73775 10.66 8.07775 10.66C8.41108 10.66 8.67108 10.5667 8.85775 10.38C9.04442 10.1933 9.13775 9.93 9.13775 9.59H10.3978C10.3978 10.0233 10.3011 10.4033 10.1078 10.73C9.91442 11.0567 9.64108 11.31 9.28775 11.49C8.94108 11.6633 8.53775 11.75 8.07775 11.75Z" fill="white"/>
</svg>
