<svg width="16" height="16" viewBox="0 0 16 16" fill="none" xmlns="http://www.w3.org/2000/svg">
<g clip-path="url(#clip0_11429_110963)">
<rect x="2.5" y="2.5" width="11" height="11" rx="1.5" stroke="#E2E2E2"/>
<path d="M5.64645 9.64645L5.29289 10L6 10.7071L6.35355 10.3536L5.64645 9.64645ZM10.8536 5.85355C11.0488 5.65829 11.0488 5.34171 10.8536 5.14645C10.6583 4.95118 10.3417 4.95118 10.1464 5.14645L10.8536 5.85355ZM6.35355 10.3536L10.8536 5.85355L10.1464 5.14645L5.64645 9.64645L6.35355 10.3536Z" fill="#E2E2E2"/>
<path d="M6.5 5H6V6H6.5V5ZM10.5 5.5H11C11 5.22386 10.7761 5 10.5 5V5.5ZM10 9.5V10H11V9.5H10ZM6.5 6H10.5V5H6.5V6ZM10 5.5V9.5H11V5.5H10Z" fill="#E2E2E2"/>
</g>
<defs>
<clipPath id="clip0_11429_110963">
<rect width="16" height="16" fill="white"/>
</clipPath>
</defs>
</svg>
