<svg width="16" height="16" viewBox="0 0 16 16" fill="none" xmlns="http://www.w3.org/2000/svg">
<g clip-path="url(#clip0_11429_110861)">
<path fill-rule="evenodd" clip-rule="evenodd" d="M14 4H13V6L11 6V7H13V9H14V7H16V6L14 6V4Z" fill="#E2E2E2"/>
<g clip-path="url(#clip1_11429_110861)">
<mask id="path-2-inside-1_11429_110861" fill="white">
<path d="M6.5 8.87491C3.73427 8.87491 1.43475 10.7379 0.963413 13.1927C0.865781 13.7012 1.29473 14.1249 1.8125 14.1249H11.1875C11.7053 14.1249 12.1342 13.7012 12.0366 13.1927C11.5653 10.7379 9.26573 8.87491 6.5 8.87491Z"/>
</mask>
<path d="M12.0366 13.1929L13.0186 13.0043L12.0366 13.1929ZM1.94547 13.3814C2.31907 11.4356 4.17404 9.87509 6.49999 9.87509V7.87509C3.29449 7.87509 0.550414 10.0405 -0.0186549 13.0043L1.94547 13.3814ZM6.49999 9.87509C8.82595 9.87509 10.6809 11.4356 11.0545 13.3814L13.0186 13.0043C12.4496 10.0405 9.70549 7.87509 6.49999 7.87509V9.87509ZM11.1875 13.1251H1.81249V15.1251H11.1875V13.1251ZM11.0545 13.3814C11.0478 13.3463 11.0489 13.3014 11.063 13.2562C11.0764 13.2132 11.0973 13.1827 11.1151 13.1638C11.1477 13.1292 11.1759 13.1251 11.1875 13.1251V15.1251C12.193 15.1251 13.2597 14.2599 13.0186 13.0043L11.0545 13.3814ZM-0.0186549 13.0043C-0.259733 14.2599 0.807005 15.1251 1.81249 15.1251V13.1251C1.82405 13.1251 1.85227 13.1292 1.88489 13.1638C1.90271 13.1827 1.92363 13.2132 1.93701 13.2562C1.95107 13.3014 1.95221 13.3463 1.94547 13.3814L-0.0186549 13.0043Z" fill="#E2E2E2" mask="url(#path-2-inside-1_11429_110861)"/>
<circle cx="6.5" cy="4.75" r="2.3125" stroke="#E2E2E2"/>
</g>
</g>
<defs>
<clipPath id="clip0_11429_110861">
<rect width="16" height="16" fill="white"/>
</clipPath>
<clipPath id="clip1_11429_110861">
<rect width="15" height="15" fill="white" transform="translate(-1 1)"/>
</clipPath>
</defs>
</svg>
