<svg width="16" height="16" viewBox="0 0 16 16" fill="none" xmlns="http://www.w3.org/2000/svg">
<path d="M1.57478 12.8H0.300781L3.93378 3H5.18678L8.95278 12.8H7.72078L6.77578 10.196H2.44278L1.57478 12.8ZM4.38878 4.596L2.79978 9.188H6.39778L4.72478 4.596L4.55678 4.001L4.38878 4.596Z" fill="#0D0D0D"/>
<path d="M13.0303 5.464C13.5716 5.464 14.0453 5.56433 14.4513 5.765C14.8573 5.961 15.1723 6.248 15.3963 6.626C15.6203 7.004 15.7323 7.45667 15.7323 7.984V12.8H14.6403V11.673C14.4443 12.0977 14.1526 12.4197 13.7653 12.639C13.3826 12.8583 12.9089 12.968 12.3443 12.968C11.8729 12.968 11.4506 12.8817 11.0773 12.709C10.7039 12.5317 10.4123 12.2867 10.2023 11.974C9.99228 11.6613 9.88728 11.3043 9.88728 10.903C9.88728 10.5297 9.98295 10.1867 10.1743 9.874C10.3703 9.55667 10.6386 9.29767 10.9793 9.097C11.3246 8.89633 11.7119 8.77267 12.1413 8.726L14.1223 8.516C14.2809 8.49733 14.4046 8.432 14.4933 8.32C14.5819 8.208 14.6263 8.04467 14.6263 7.83C14.6263 7.54533 14.5586 7.29567 14.4233 7.081C14.2879 6.86633 14.0966 6.70067 13.8493 6.584C13.6066 6.46267 13.3243 6.402 13.0023 6.402C12.6803 6.402 12.3909 6.458 12.1343 6.57C11.8776 6.67733 11.6699 6.82433 11.5113 7.011C11.3573 7.193 11.2639 7.39133 11.2313 7.606H10.1113C10.1673 7.2 10.3283 6.836 10.5943 6.514C10.8603 6.18733 11.2056 5.93067 11.6303 5.744C12.0549 5.55733 12.5216 5.464 13.0303 5.464ZM12.5613 12.079C12.9859 12.079 13.3523 11.9973 13.6603 11.834C13.9729 11.6707 14.2109 11.442 14.3743 11.148C14.5423 10.8493 14.6263 10.5063 14.6263 10.119V9.3L12.2953 9.552C11.9266 9.58933 11.6256 9.727 11.3923 9.965C11.1636 10.203 11.0493 10.4947 11.0493 10.84C11.0493 11.0827 11.1123 11.2973 11.2383 11.484C11.3689 11.6707 11.5486 11.8177 11.7773 11.925C12.0059 12.0277 12.2673 12.079 12.5613 12.079Z" fill="#0D0D0D"/>
</svg>
