<svg width="16" height="16" viewBox="0 0 16 16" fill="none" xmlns="http://www.w3.org/2000/svg">
<path d="M6.58579 13.5H9.41421C9.34033 13.709 9.22036 13.901 9.06066 14.0607C8.77936 14.342 8.39782 14.5 8 14.5C7.60218 14.5 7.22064 14.342 6.93934 14.0607C6.77964 13.901 6.65967 13.709 6.58579 13.5Z" stroke="#181818"/>
<path d="M4.06147 4.50823C4.54586 2.73215 6.15905 1.5 8 1.5C9.84095 1.5 11.4541 2.73215 11.9385 4.50823L13.6731 10.8684C13.7599 11.1865 13.5204 11.5 13.1907 11.5H2.80925C2.47956 11.5 2.24012 11.1865 2.32687 10.8684L4.06147 4.50823Z" stroke="#181818"/>
</svg>
