<svg width="16" height="16" viewBox="0 0 16 16" fill="none" xmlns="http://www.w3.org/2000/svg">
<path d="M1.50727 11H0.130273L1.74127 4.43H3.45127L5.08027 11H3.70327L3.38827 9.515H1.82227L1.50727 11ZM2.04727 8.435H3.15427L2.83927 6.851L2.60527 5.645C2.53327 6.047 2.45827 6.446 2.38027 6.842L2.04727 8.435ZM8.00176 11.09C7.54576 11.09 7.14376 11.012 6.79576 10.856C6.45376 10.7 6.18976 10.481 6.00376 10.199C5.81776 9.911 5.72476 9.578 5.72476 9.2H7.07476C7.07476 9.422 7.15876 9.599 7.32676 9.731C7.50076 9.857 7.73476 9.92 8.02876 9.92C8.31076 9.92 8.52976 9.857 8.68576 9.731C8.84776 9.605 8.92876 9.431 8.92876 9.209C8.92876 9.017 8.86876 8.852 8.74876 8.714C8.62876 8.576 8.46076 8.483 8.24476 8.435L7.57876 8.282C7.02076 8.15 6.58576 7.907 6.27376 7.553C5.96776 7.193 5.81476 6.755 5.81476 6.239C5.81476 5.855 5.90176 5.522 6.07576 5.24C6.25576 4.952 6.50776 4.73 6.83176 4.574C7.16176 4.418 7.54576 4.34 7.98376 4.34C8.65576 4.34 9.18676 4.508 9.57676 4.844C9.97276 5.174 10.1708 5.621 10.1708 6.185H8.82076C8.82076 5.975 8.74576 5.81 8.59576 5.69C8.44576 5.57 8.23576 5.51 7.96576 5.51C7.70776 5.51 7.50976 5.57 7.37176 5.69C7.23376 5.804 7.16476 5.969 7.16476 6.185C7.16476 6.377 7.21876 6.542 7.32676 6.68C7.44076 6.818 7.59976 6.908 7.80376 6.95L8.50576 7.112C9.08776 7.25 9.52876 7.493 9.82876 7.841C10.1288 8.183 10.2788 8.618 10.2788 9.146C10.2788 9.53 10.1828 9.869 9.99076 10.163C9.80476 10.457 9.54076 10.685 9.19876 10.847C8.85676 11.009 8.45776 11.09 8.00176 11.09ZM11.0762 11V4.43H12.5972L13.2002 6.5C13.3082 6.878 13.3772 7.181 13.4072 7.409C13.4312 7.181 13.4972 6.878 13.6052 6.5L14.1992 4.43H15.7202V11H14.4872V9.2C14.4872 8.612 14.5112 7.964 14.5592 7.256C14.6072 6.542 14.6642 5.87 14.7302 5.24L13.9742 8.21H12.8312L12.0392 5.24C12.1172 5.846 12.1802 6.503 12.2282 7.211C12.2822 7.919 12.3092 8.582 12.3092 9.2V11H11.0762Z" fill="#3EA17F"/>
</svg>
