<svg width="16" height="16" viewBox="0 0 16 16" fill="none" xmlns="http://www.w3.org/2000/svg">
<path d="M4.45269 11.12C3.89269 11.12 3.40069 11.016 2.97669 10.808C2.56069 10.592 2.23669 10.292 2.00469 9.908C1.78069 9.516 1.66869 9.056 1.66869 8.528V4.712C1.66869 4.176 1.78069 3.716 2.00469 3.332C2.23669 2.948 2.56069 2.652 2.97669 2.444C3.40069 2.228 3.89269 2.12 4.45269 2.12C5.02069 2.12 5.50869 2.228 5.91669 2.444C6.33269 2.652 6.65669 2.948 6.88869 3.332C7.12069 3.716 7.23669 4.176 7.23669 4.712H5.72469C5.72469 4.296 5.61269 3.98 5.38869 3.764C5.17269 3.548 4.86069 3.44 4.45269 3.44C4.04469 3.44 3.72869 3.548 3.50469 3.764C3.28069 3.98 3.16869 4.292 3.16869 4.7V8.528C3.16869 8.936 3.28069 9.252 3.50469 9.476C3.72869 9.692 4.04469 9.8 4.45269 9.8C4.86069 9.8 5.17269 9.692 5.38869 9.476C5.61269 9.252 5.72469 8.936 5.72469 8.528H7.23669C7.23669 9.048 7.12069 9.504 6.88869 9.896C6.65669 10.288 6.33269 10.592 5.91669 10.808C5.50869 11.016 5.02069 11.12 4.45269 11.12ZM8.9 11L9.296 8.816H8.312V7.784H9.476L9.884 5.456H8.696V4.424H10.064L10.448 2.24H11.54L11.144 4.424H12.824L13.208 2.24H14.3L13.904 4.424H14.888V5.456H13.724L13.316 7.784H14.504V8.816H13.136L12.752 11H11.66L12.056 8.816H10.376L9.992 11H8.9ZM10.556 7.784H12.236L12.644 5.456H10.964L10.556 7.784Z" fill="#B35DEF"/>
</svg>
