<svg width="16" height="16" viewBox="0 0 16 16" fill="none" xmlns="http://www.w3.org/2000/svg">
<path d="M6.22339 5.76453V4.92739C6.30483 4.92172 6.3868 4.91708 6.4703 4.9145C8.75905 4.84234 10.2607 6.88107 10.2607 6.88107C10.2607 6.88107 8.63894 9.13425 6.90022 9.13425C6.67021 9.13531 6.44159 9.09875 6.22339 9.02599V6.48827C7.11466 6.59601 7.29353 6.98932 7.82912 7.88008L9.02091 6.87746C9.02091 6.87746 8.15129 5.73721 6.68526 5.73721C6.53024 5.73799 6.37537 5.74711 6.22133 5.76453H6.22339ZM6.22133 3.00052V4.25005C6.30329 4.24334 6.38577 4.23819 6.46824 4.2351C9.65083 4.12788 11.7262 6.8455 11.7262 6.8455C11.7262 6.8455 9.34464 9.74149 6.8631 9.74149C6.64846 9.74157 6.43422 9.72276 6.22287 9.6853V10.4585C6.39963 10.4813 6.57766 10.4928 6.75588 10.4931C9.06473 10.4931 10.7349 9.31415 12.352 7.91822C12.62 8.13266 13.7175 8.65485 13.9433 8.88372C12.4056 10.1724 8.82297 11.208 6.79145 11.208C6.59557 11.208 6.40742 11.1962 6.22442 11.1787V12.2643H15V3H6.22339L6.22133 3.00052ZM6.22133 9.02599V9.68581C4.08774 9.30436 3.49494 7.08469 3.49494 7.08469C3.49494 7.08469 4.52023 5.95062 6.22339 5.76453V6.48621H6.2203C5.32645 6.38054 4.62848 7.21562 4.62848 7.21562C4.62848 7.21562 5.02077 8.61876 6.22339 9.02548L6.22133 9.02599ZM2.43047 6.98829C2.43047 6.98829 3.69598 5.1207 6.22339 4.92636V4.25005C3.42277 4.4748 1 6.8455 1 6.8455C1 6.8455 2.37273 10.8147 6.22339 11.1781V10.4565C3.39803 10.1023 2.43047 6.98829 2.43047 6.98829Z" fill="#76B900"/>
</svg>
