<svg width="16" height="16" viewBox="0 0 16 16" fill="none" xmlns="http://www.w3.org/2000/svg">
<path d="M11.2165 8.71934C12.5157 8.71934 13.5689 7.75388 13.5689 6.56292C13.5689 5.37196 12.5157 4.40649 11.2165 4.40649C9.91725 4.40649 8.86401 5.37196 8.86401 6.56292C8.86401 7.75388 9.91725 8.71934 11.2165 8.71934Z" fill="#D93953"/>
<path d="M13.8965 4.88577C14.314 4.88577 14.6524 4.57556 14.6524 4.19289C14.6524 3.81022 14.314 3.5 13.8965 3.5C13.479 3.5 13.1406 3.81022 13.1406 4.19289C13.1406 4.57556 13.479 4.88577 13.8965 4.88577Z" fill="#D93953"/>
<path d="M1.64036 3.73642C1.47656 3.75667 1.3482 3.88741 1.34766 4.04565L1.35799 12.1253C1.35799 12.2477 1.39109 12.5 1.73531 12.5L4.82958 12.4877C5.71406 12.4861 6.30648 12.4709 6.65928 12.4263C6.66134 12.4264 6.66559 12.4264 6.66765 12.4263C7.00528 12.3794 7.36292 12.293 7.75179 12.1668C8.4278 11.9554 9.02725 11.6431 9.54267 11.226C10.0473 10.8219 10.4384 10.3435 10.7133 9.80538C10.9881 9.26722 11.1266 8.69821 11.1256 8.10832C11.1241 7.28721 10.8758 6.51834 10.3774 5.82662C9.87895 5.13488 9.19861 4.60513 8.36136 4.25429C7.51019 3.89344 6.40038 3.72901 5.02355 3.73147L1.68223 3.73636C1.66787 3.73644 1.65424 3.7347 1.64036 3.73642ZM3.43876 5.39897L4.87913 5.39687C5.55228 5.39567 6.03118 5.41611 6.30283 5.45342C6.5782 5.49125 6.87979 5.57108 7.19918 5.69446C7.51573 5.81508 7.79169 5.9628 8.02881 6.14668C8.68116 6.65387 8.98868 7.25414 8.99009 8.0489C8.99152 8.86268 8.69435 9.49655 8.0589 10.0282C7.86342 10.1895 7.64605 10.3263 7.40623 10.4395C7.17957 10.5451 6.8839 10.6361 6.51054 10.7145C6.15843 10.7849 5.62386 10.825 4.92795 10.8262L3.44571 10.8284L3.43876 5.39897Z" fill="#D93953"/>
</svg>
