<svg width="16" height="16" viewBox="0 0 16 16" fill="none" xmlns="http://www.w3.org/2000/svg">
<path d="M4.15123 11.8488L1.92722 9.62475C1.66343 9.35428 1.5 8.97198 1.5 8.59828C1.5 8.42529 1.59749 8.15482 1.67108 7.99999L3.72401 3.724L4.15123 11.8488Z" fill="#01579B"/>
<path d="M11.7636 4.15123L9.53959 1.92722C9.34557 1.73225 8.9413 1.5 8.59914 1.5C8.30477 1.5 8.01614 1.55926 7.82977 1.67108L3.72485 3.72401L11.7636 4.15123Z" fill="#29B6F6"/>
<path fill-rule="evenodd" clip-rule="evenodd" d="M4.15109 11.8488C3.80989 11.5057 3.72388 11.3374 3.72388 10.6512V3.724L8.42804 7.91493L12.1908 12.1909H12.1905L12.191 12.1911V14.5002H6.80248L4.49341 12.1911L4.49387 12.1909H4.49325L4.15109 11.8488Z" fill="#29B6F6"/>
<path d="M10.566 3.72302H3.72388L12.1908 12.1899H14.4999V6.88749L11.7626 4.15024C11.3784 3.76508 11.0372 3.72302 10.566 3.72302Z" fill="#01579B"/>
</svg>
