<svg width="16" height="16" viewBox="0 0 16 16" fill="none" xmlns="http://www.w3.org/2000/svg">
<path d="M14.4641 7.37745C14.3972 7.50378 14.3168 7.61242 14.2227 7.70287L14.2169 7.70848L14.2113 7.71431C14.0084 7.92435 13.6242 8.1927 12.9612 8.1927H12.9609H12.9606H12.9604H12.9601H12.9598H12.9596H12.9593H12.9591H12.9588H12.9585H12.9583H12.958H12.9577H12.9575H12.9572H12.957H12.9567H12.9563H12.9561H12.9558H12.9556H12.9553H12.955H12.9548H12.9545H12.9542H12.954H12.9537H12.9535H12.9532H12.9529H12.9527H12.9524H12.9521H12.9519H12.9516H12.9514H12.9512H12.9509H12.9507H12.9504H12.9501H12.9499H12.9496H12.9493H12.9491H12.9488H12.9486H12.9483H12.948H12.9478H12.9475H12.9472H12.947H12.9467H12.9465H12.9462H12.9459H12.9457H12.9454H12.9451H12.9449H12.9446H12.9444H12.9441H12.9439H12.9437H12.9434H12.9431H12.9429H12.9426H12.9423H12.9421H12.9418H12.9416H12.9413H12.941H12.9408H12.9405H12.9402H12.94H12.9398H12.9395H12.9393H12.939H12.9388H12.9385H12.9382H12.938H12.9377H12.9374H12.9372H12.9369H12.9367H12.9365H12.9362H12.936H12.9357H12.9354H12.9352H12.9349H12.9346H12.9344H12.9341H12.9339H12.9337H12.9334H12.9332H12.9329H12.9326H12.9324H12.9321H12.9318H12.9316H12.9314H12.9311H12.9309H12.9306H12.9304H12.9301H12.9298H12.9296H12.9293H12.9291H12.9289H12.9286H12.9283H12.9281H12.9278H12.9276H12.9273H12.927H12.9269H12.9266H12.9263H12.9261H12.9258H12.9255H12.9253H12.925H12.9248H12.9246H12.9243H12.9241H12.9238H12.9235H12.9233H12.9231H12.9228H12.9226H12.9223H12.922H12.9218H12.9215H12.9213H12.9211H12.9208H12.9206H12.9203H12.92H12.9198H12.9196H12.9193H12.9191H12.9188H12.9185H12.9183H12.918H12.9178H12.9176H12.9173H12.9171H12.9168H12.9165H12.9163H12.9161H12.9158H12.9156H12.9153H12.915H12.9148H12.9146H12.9143H12.9141H12.9138H12.9136H12.9133H12.913H12.9129H12.9126H12.9123H12.9121H12.9118H12.9115H12.9114H12.9111H12.9108H12.9106H12.9103H12.9101H12.9099H12.9096H12.9094H12.9091H12.9088H12.9086H12.9084H12.9081H12.9079H12.9076H12.9073H12.9071H12.9069H12.9066H12.9064H12.9061H12.9059H12.9056H12.9054H12.9052H12.9049H12.9046H12.9044H12.9041H12.9039H12.9037H12.9034H12.9031H12.9029H12.9026H12.9024H12.9022H12.9019H12.9017H12.9014H12.9011H12.901H12.9007H12.9004H12.9002H12.8999H12.8997H12.8995H12.8992H12.8989H12.8987H12.8984H12.8982H12.898H12.8977H12.8975H12.8972H12.8969H12.8968H12.8965H12.8962H12.896H12.8957H12.8954H12.8953H12.895H12.8947H12.8945H12.8942H12.894H12.8938H12.8935H12.8933H12.893H12.8927H12.8926H12.8923H12.892H12.8918H12.8915H12.8912H12.8911H12.8908H12.8905H12.8903H12.89H12.8898H12.8896H12.8893H12.8891H12.8888H12.8885H12.8883H12.8881H12.8878H12.8876H12.8873H12.887H12.8868H12.8866H12.8863H12.8861H12.8858H12.8856H12.8853H12.8851H12.8849H12.8846H12.8843H12.8841H12.8838H12.8836H12.8834H12.8831H12.8828H12.8826H12.8823H12.8821H12.8819H12.8816H12.8814H12.8811H12.8808H12.8807H12.8804H12.8801H12.8799H12.8796H12.8793H12.8792H12.8789H12.8786H12.8784H12.8781H12.8779H12.8776H12.8774H12.8772H12.8769H12.8766H12.8764H12.8761H12.8759H12.8757H12.8754H12.8751H12.8749H12.8746H12.8744H12.8742H12.8739H12.8737H12.8734H12.8731H12.8729H12.8726H12.8724H12.8722H12.8719H12.8716H12.8714H12.8711H12.8709H12.8707H12.8704H12.8702H12.8699H12.8696H12.8694H12.8691H12.8689H12.8687H12.8684H12.8681H12.8679H12.8676H12.8674H12.8671H12.8669H12.8667H12.8664H12.8661H12.8659H12.8656H12.8653H12.8651H12.8649H12.8646H12.8644H12.8641H12.8639H12.8636H12.8633H12.8631H12.8629H12.8626H12.8624H12.8621H12.8618H12.8616H12.8613H12.8611H12.8608H12.8606H12.8604H12.8601H12.8598H12.8596H12.8593H12.859H12.8588H12.8585H12.8583H12.8581H12.8578H12.8576H12.8573H12.857H12.8568H12.8565H12.8562H12.856H12.8557H12.8555H12.8553H12.855H12.8548H12.8545H12.8542H12.854H12.8537H12.8534H12.8532H12.8529H12.8527H12.8524H12.8521H12.852H12.8517H12.8514H12.8512H12.8509H12.8506H12.8504H12.8501H12.8499H12.8496H12.8493H12.8491H12.8488H12.8485H12.8483H12.848H12.8478H12.8476H12.8473H12.8471H12.8468H12.8465H12.8463H12.846H12.8457H12.8455H12.8452H12.845H12.8447H12.8444H12.8442H12.8439H12.8436H12.8434H12.8431H12.8429H12.8426H12.8423H12.8421H12.8418H12.8415H12.8413H12.841H12.8408H12.8405H12.8402H12.84H12.8397H12.8394H12.8392H12.8389H12.8387H12.8384H12.8381H12.8379H12.8376H12.8373H12.8371H12.8368H12.8366H12.8363H12.836H12.8358H12.8355H12.8352H12.835H12.8347H12.8345H12.8342H12.8339H12.8337H12.8334H12.8331H12.8329H12.8326H12.8324H12.8321H12.8318H12.8316H12.8313H12.5282L12.4217 8.47642C12.1109 9.30423 11.6976 10.2042 11.0125 11.0017L11.0112 11.0031C10.6067 11.4784 10.1305 11.8841 9.60121 12.2021C8.95058 12.586 8.24572 12.8503 7.51039 12.9887L7.50949 12.9889C6.97156 13.0913 6.42757 13.1426 5.88367 13.1426C4.65793 13.1426 3.63022 12.899 3.04115 12.5252C2.53123 12.1992 2.10873 11.6492 1.81478 10.8553C1.55371 10.1185 1.42613 9.33733 1.43829 8.55631H1.43835V8.5495C1.43835 8.54473 1.43922 8.54159 1.44006 8.53952C1.44058 8.53826 1.44116 8.53722 1.44172 8.5364H10.6561H10.6687L10.6813 8.53568C10.7532 8.53154 10.9419 8.51632 11.163 8.47392C11.3762 8.43303 11.6601 8.35952 11.8968 8.22075L12.28 7.99609L12.0495 7.61636C11.8271 7.24981 11.7558 6.81673 11.8678 6.3358C11.9112 6.15192 11.9776 5.97021 12.0624 5.80005C12.2885 5.99152 12.6182 6.34984 12.6966 6.91486L12.7588 7.36275L13.2044 7.28583C13.3792 7.25565 13.5553 7.2384 13.7208 7.2384C14.094 7.2384 14.3349 7.31744 14.4641 7.37745Z" fill="#2296ED" stroke="#2296ED"/>
<path d="M4.65179 7H6.34821C6.42856 7 6.5 6.92157 6.5 6.83333V5.16667C6.5 5.07843 6.43749 5 6.34821 5H4.65179C4.57144 5 4.5 5.06862 4.5 5.16667V6.83333C4.50893 6.92157 4.57144 7 4.65179 7Z" fill="#2296ED"/>
<path d="M2.15179 7H3.84821C3.92856 7 4 6.92157 4 6.83333V5.16667C4 5.07843 3.93749 5 3.84821 5H2.15179C2.07144 5 2 5.06862 2 5.16667V6.83333C2.00893 6.92157 2.07144 7 2.15179 7Z" fill="#2296ED"/>
<path d="M7.15179 7H8.84821C8.92856 7 9 6.92157 9 6.83333V5.16667C9 5.07843 8.93749 5 8.84821 5H7.15179C7.07144 5 7 5.06862 7 5.16667V6.83333C7.00893 6.92157 7.07144 7 7.15179 7Z" fill="#2296ED"/>
<path d="M7.15179 4.5H8.84821C8.92856 4.5 9 4.42157 9 4.33333V2.66667C9 2.57843 8.93749 2.5 8.84821 2.5H7.15179C7.07144 2.5 7 2.56862 7 2.66667V4.33333C7.00893 4.42157 7.07144 4.5 7.15179 4.5Z" fill="#2296ED"/>
<path d="M4.65179 4.5H6.34821C6.42856 4.5 6.5 4.42157 6.5 4.33333V2.66667C6.5 2.57843 6.43749 2.5 6.34821 2.5H4.65179C4.57144 2.5 4.5 2.56862 4.5 2.66667V4.33333C4.50893 4.42157 4.57144 4.5 4.65179 4.5Z" fill="#2296ED"/>
</svg>
