<svg width="16" height="16" viewBox="0 0 16 16" fill="none" xmlns="http://www.w3.org/2000/svg">
<path d="M2.76069 12H1.22469L3.43269 3.24H5.36469L7.58469 12H6.04869L5.56869 9.876H3.24069L2.76069 12ZM3.51669 8.652H5.29269L4.76469 6.3C4.56469 5.396 4.44469 4.812 4.40469 4.548C4.36469 4.82 4.24469 5.4 4.04469 6.288L3.51669 8.652ZM11.66 5.28C12.492 5.28 13.14 5.476 13.604 5.868C14.068 6.26 14.3 6.812 14.3 7.524V12H12.848V10.848H12.824C12.744 11.24 12.524 11.552 12.164 11.784C11.812 12.008 11.372 12.12 10.844 12.12C10.18 12.12 9.652 11.944 9.26 11.592C8.868 11.232 8.672 10.748 8.672 10.14C8.672 9.484 8.888 8.98 9.32 8.628C9.752 8.268 10.364 8.088 11.156 8.088H12.8V7.536C12.8 7.208 12.7 6.956 12.5 6.78C12.3 6.604 12.012 6.516 11.636 6.516C11.3 6.516 11.024 6.588 10.808 6.732C10.6 6.868 10.476 7.064 10.436 7.32H8.972C9.044 6.696 9.32 6.2 9.8 5.832C10.288 5.464 10.908 5.28 11.66 5.28ZM11.348 10.992C11.788 10.992 12.14 10.888 12.404 10.68C12.668 10.472 12.8 10.188 12.8 9.828V9.024H11.18C10.876 9.024 10.632 9.112 10.448 9.288C10.264 9.464 10.172 9.7 10.172 9.996C10.172 10.3 10.276 10.544 10.484 10.728C10.692 10.904 10.98 10.992 11.348 10.992Z" fill="#1A85F6"/>
</svg>
