<svg width="16" height="16" viewBox="0 0 16 16" fill="none" xmlns="http://www.w3.org/2000/svg">
<path fill-rule="evenodd" clip-rule="evenodd" d="M7.99942 2C4.60277 2 1.84814 4.75425 1.84814 8.15203C1.84814 10.87 3.61067 13.1756 6.05524 13.9891C6.36303 14.0457 6.4752 13.8558 6.4752 13.6926C6.4752 13.5469 6.46991 13.1598 6.46689 12.6465C4.75573 13.0181 4.39469 11.8217 4.39469 11.8217C4.11484 11.111 3.7115 10.9218 3.7115 10.9218C3.15295 10.5403 3.7538 10.5479 3.7538 10.5479C4.37127 10.5913 4.69606 11.182 4.69606 11.182C5.24479 12.122 6.13606 11.8504 6.48653 11.6929C6.54242 11.2956 6.70141 11.0245 6.87702 10.8708C5.51104 10.7156 4.07481 10.1876 4.07481 7.83027C4.07481 7.15879 4.31462 6.6093 4.70814 6.17953C4.64469 6.02393 4.43358 5.39816 4.76857 4.55145C4.76857 4.55145 5.28482 4.38604 6.46009 5.18214C6.95067 5.04543 7.47712 4.97745 8.00018 4.9748C8.52285 4.97745 9.04893 5.04543 9.54026 5.18214C10.7148 4.38604 11.2303 4.55145 11.2303 4.55145C11.566 5.39816 11.3549 6.02393 11.2918 6.17953C11.6861 6.6093 11.924 7.15879 11.924 7.83027C11.924 10.1936 10.4855 10.7137 9.1154 10.8659C9.33595 11.0558 9.53271 11.4312 9.53271 12.0053C9.53271 12.8274 9.52515 13.491 9.52515 13.6926C9.52515 13.8573 9.63619 14.0488 9.94813 13.9887C12.3908 13.1734 14.1518 10.8693 14.1518 8.15203C14.1518 4.75425 11.3972 2 7.99942 2Z" fill="#E2E2E2"/>
</svg>
