<svg width="16" height="16" viewBox="0 0 16 16" fill="none" xmlns="http://www.w3.org/2000/svg">
<path d="M8.00002 3.50016L4.58262 3.1217L2 2.00016H4.9999L8.00002 3.50037" fill="#FAB20B"/>
<path d="M8 3.50016L11.4957 3.19996L14 2.00016H10.9999L8 3.50037" fill="#F47216"/>
<path d="M8 12.5L11.2609 12.6174L14 14H10.9999L8 12.4997" fill="#F25C19"/>
<path d="M8.00002 12.5H4.71305L2 14H4.9999L8.00002 12.4997" fill="#F89C0E"/>
<path d="M3.49995 8.00014V11.1565L2 14V11.0001L3.49995 8.00007" fill="#F89C0E"/>
<path d="M3.49995 8.00012L3.25217 4.86953L2 2.00016V5.00004L3.49995 8.00005" fill="#FAB20B"/>
<path d="M12.5 8.00024L12.8263 4.71313L14.0002 2.00028V5.00016L12.5 8.00017" fill="#F47216"/>
<path d="M12.5 8.00014L12.7741 11.5217L14.0002 14V11.0001L12.5 8.00007" fill="#F25C19"/>
<path d="M2 2.00016L8.00002 3.50017L7.0348 7.32171L3.49995 8.00012L2 2.00048" fill="#FAB20B"/>
<path d="M14 2.00016L12.4998 8.00012L8.46957 7.26936L8 3.49999L14 2.00048" fill="#F47216"/>
<path d="M14 14L8 12.5L8.67826 8.52203L12.4998 8.00044L14 13.9996" fill="#F25C19"/>
<path d="M2 14L3.49995 8.00014L7.11306 8.80868L8.00002 12.5L2 13.9996" fill="#F89C0E"/>
<path d="M8.00006 3.50019L3.5 8.00014L8.00006 12.5L12.4999 8.00014L8.00006 3.50039" fill="#F68712"/>
</svg>
