<svg width="16" height="16" viewBox="0 0 16 16" fill="none" xmlns="http://www.w3.org/2000/svg">
<path d="M3.59655 9.80888C3.60121 9.47288 3.49388 9.20688 3.27455 9.01088C3.05521 8.81022 2.75888 8.70988 2.38555 8.70988H1.68555V7.25388H2.38555C2.76355 7.25388 3.06221 7.15355 3.28155 6.95288C3.50088 6.75222 3.60588 6.48155 3.59655 6.14088L3.56155 4.53788C3.55221 4.05722 3.65955 3.63488 3.88355 3.27088C4.11221 2.90688 4.43888 2.62688 4.86355 2.43088C5.28821 2.23022 5.78288 2.12988 6.34755 2.12988H7.17355V3.52988H6.43855C6.01388 3.52988 5.67321 3.65355 5.41655 3.90088C5.16455 4.14355 5.04321 4.46555 5.05255 4.86688L5.08055 6.35788C5.08988 6.82455 4.95688 7.20022 4.68155 7.48488C4.40621 7.76488 4.03288 7.92355 3.56155 7.96088C4.02821 8.04488 4.39921 8.23388 4.67455 8.52788C4.95455 8.82188 5.08988 9.18122 5.08055 9.60588L5.05255 11.2789C5.04788 11.6522 5.15988 11.9462 5.38855 12.1609C5.62188 12.3802 5.93688 12.4899 6.33355 12.4899H7.17355V13.8899H6.24255C5.71521 13.8899 5.24621 13.7966 4.83555 13.6099C4.42955 13.4232 4.11455 13.1572 3.89055 12.8119C3.66655 12.4712 3.55688 12.0746 3.56155 11.6219L3.59655 9.80888Z" fill="#F8AB17"/>
<path d="M12.5447 11.6219C12.5494 12.0746 12.4397 12.4712 12.2157 12.8119C11.9917 13.1572 11.6744 13.4232 11.2637 13.6099C10.8577 13.7966 10.3911 13.8899 9.86372 13.8899H8.93272V12.4899H9.77272C10.1694 12.4899 10.4821 12.3826 10.7107 12.1679C10.9394 11.9532 11.0514 11.6569 11.0467 11.2789L11.0187 9.60588C11.0141 9.18122 11.1494 8.82188 11.4247 8.52788C11.7001 8.23388 12.0711 8.04488 12.5377 7.96088C12.0711 7.92355 11.6977 7.76488 11.4177 7.48488C11.1424 7.20022 11.0094 6.82455 11.0187 6.35788L11.0467 4.86688C11.0561 4.46555 10.9347 4.14355 10.6827 3.90088C10.4307 3.65355 10.0924 3.52988 9.66772 3.52988H8.93272V2.12988H9.75872C10.3234 2.12988 10.8181 2.23022 11.2427 2.43088C11.6674 2.62688 11.9917 2.90688 12.2157 3.27088C12.4444 3.63488 12.5541 4.05722 12.5447 4.53788L12.5097 6.14088C12.5004 6.48155 12.6054 6.75222 12.8247 6.95288C13.0441 7.15355 13.3427 7.25388 13.7207 7.25388H14.4207V8.70988H13.7207C13.3427 8.70988 13.0441 8.81022 12.8247 9.01088C12.6054 9.20688 12.5004 9.47288 12.5097 9.80888L12.5447 11.6219Z" fill="#F8AB17"/>
</svg>
