<svg width="16" height="16" viewBox="0 0 16 16" fill="none" xmlns="http://www.w3.org/2000/svg">
<path d="M2.33527 11.099C1.64527 11.099 1.09627 10.913 0.688273 10.541C0.286273 10.169 0.0852735 9.662 0.0852735 9.02H1.43527C1.43527 9.302 1.51627 9.524 1.67827 9.686C1.84027 9.848 2.05927 9.929 2.33527 9.929C2.61127 9.929 2.83027 9.851 2.99227 9.695C3.15427 9.533 3.23527 9.314 3.23527 9.038V5.69H1.75027V4.43H4.58527V9.038C4.58527 9.674 4.38127 10.178 3.97327 10.55C3.57127 10.916 3.02527 11.099 2.33527 11.099ZM8.00176 11.09C7.54576 11.09 7.14376 11.012 6.79576 10.856C6.45376 10.7 6.18976 10.481 6.00376 10.199C5.81776 9.911 5.72476 9.578 5.72476 9.2H7.07476C7.07476 9.422 7.15876 9.599 7.32676 9.731C7.50076 9.857 7.73476 9.92 8.02876 9.92C8.31076 9.92 8.52976 9.857 8.68576 9.731C8.84776 9.605 8.92876 9.431 8.92876 9.209C8.92876 9.017 8.86876 8.852 8.74876 8.714C8.62876 8.576 8.46076 8.483 8.24476 8.435L7.57876 8.282C7.02076 8.15 6.58576 7.907 6.27376 7.553C5.96776 7.193 5.81476 6.755 5.81476 6.239C5.81476 5.855 5.90176 5.522 6.07576 5.24C6.25576 4.952 6.50776 4.73 6.83176 4.574C7.16176 4.418 7.54576 4.34 7.98376 4.34C8.65576 4.34 9.18676 4.508 9.57676 4.844C9.97276 5.174 10.1708 5.621 10.1708 6.185H8.82076C8.82076 5.975 8.74576 5.81 8.59576 5.69C8.44576 5.57 8.23576 5.51 7.96576 5.51C7.70776 5.51 7.50976 5.57 7.37176 5.69C7.23376 5.804 7.16476 5.969 7.16476 6.185C7.16476 6.377 7.21876 6.542 7.32676 6.68C7.44076 6.818 7.59976 6.908 7.80376 6.95L8.50576 7.112C9.08776 7.25 9.52876 7.493 9.82876 7.841C10.1288 8.183 10.2788 8.618 10.2788 9.146C10.2788 9.53 10.1828 9.869 9.99076 10.163C9.80476 10.457 9.54076 10.685 9.19876 10.847C8.85676 11.009 8.45776 11.09 8.00176 11.09ZM11.2922 11V4.43H13.5332C13.9892 4.43 14.3912 4.517 14.7392 4.691C15.0872 4.865 15.3542 5.111 15.5402 5.429C15.7322 5.741 15.8282 6.104 15.8282 6.518C15.8282 6.932 15.7322 7.298 15.5402 7.616C15.3482 7.928 15.0782 8.171 14.7302 8.345C14.3882 8.519 13.9892 8.606 13.5332 8.606H12.6422V11H11.2922ZM13.5332 7.391C13.8212 7.391 14.0492 7.313 14.2172 7.157C14.3912 6.995 14.4782 6.782 14.4782 6.518C14.4782 6.254 14.3912 6.044 14.2172 5.888C14.0492 5.726 13.8212 5.645 13.5332 5.645H12.6422V7.391H13.5332Z" fill="#F8AB17"/>
</svg>
