<svg width="16" height="16" viewBox="0 0 16 16" fill="none" xmlns="http://www.w3.org/2000/svg">
<path d="M7.45995 2.90622C8.12911 2.92059 8.65729 3.10926 9.04866 3.43838C9.31481 3.6622 9.5053 3.94055 9.6344 4.24752C10.6652 3.41822 11.6503 2.90092 13.1621 2.90092C13.7198 2.90092 14.1837 3.01843 14.5566 3.23782C14.9308 3.45803 15.1965 3.77103 15.3708 4.13363C15.7143 4.84802 15.7031 5.74938 15.5165 6.56452L15.5163 6.56564L14.1894 12.5761C14.0561 13.1799 13.4447 13.5444 12.8427 13.4239C12.2369 13.3026 11.8251 12.7266 11.9594 12.1177L13.2104 6.43415L13.211 6.43133C13.3926 5.64252 13.0797 5.016 12.22 5.01282C11.4336 5.00991 10.4118 5.47907 9.80575 6.29246L8.40373 12.5805C8.27032 13.1841 7.65898 13.5488 7.05702 13.4283C6.44412 13.3055 6.02094 12.732 6.15659 12.1175L7.41248 6.42998L7.41329 6.42641C7.57202 5.747 7.37147 5.12142 6.61569 5.02685C5.81901 4.94261 4.67709 5.41401 4.01918 6.2981L2.61089 12.5873C2.47622 13.1908 1.86406 13.554 1.26228 13.4322C0.656689 13.3096 0.24616 12.7327 0.382009 12.124L2.21013 3.93289C2.34481 3.32947 2.95697 2.96619 3.55874 3.08801C4.01568 3.18051 4.29193 3.48476 4.3993 3.84303C5.28188 3.24687 6.30362 2.84406 7.45995 2.90622Z" fill="#1A85F6"/>
</svg>
