<svg width="17" height="16" viewBox="0 0 17 16" fill="none" xmlns="http://www.w3.org/2000/svg">
<path d="M0.783273 11V4.43H2.30427L2.90727 6.5C3.01527 6.878 3.08427 7.181 3.11427 7.409C3.13827 7.181 3.20427 6.878 3.31227 6.5L3.90627 4.43H5.42727V11H4.19427V9.2C4.19427 8.612 4.21827 7.964 4.26627 7.256C4.31427 6.542 4.37127 5.87 4.43727 5.24L3.68127 8.21H2.53827L1.74627 5.24C1.82427 5.846 1.88727 6.503 1.93527 7.211C1.98927 7.919 2.01627 8.582 2.01627 9.2V11H0.783273ZM11.3782 11L13.1422 7.607L11.4952 4.43H12.9802L13.6642 5.87C13.7782 6.098 13.8622 6.296 13.9162 6.464C13.9642 6.296 14.0422 6.098 14.1502 5.87L14.8522 4.43H16.3012L14.6542 7.607L16.4182 11H14.9332L14.1412 9.38C14.0332 9.152 13.9432 8.942 13.8712 8.75C13.8112 8.942 13.7272 9.152 13.6192 9.38L12.8272 11H11.3782Z" fill="#1A85F6"/>
<path fill-rule="evenodd" clip-rule="evenodd" d="M11.1461 8.65115L11.5 8.29792L10.7935 7.59018L10.4397 7.94342L9.28918 9.09184L9.28918 5L9.28918 4.5L8.28918 4.5L8.28918 5L8.28918 9.08443L7.14613 7.94342L6.79226 7.59018L6.08579 8.29791L6.43966 8.65115L8.43965 10.6476L8.79289 11.0002L9.14613 10.6476L11.1461 8.65115Z" fill="#1A85F6"/>
</svg>
