<svg width="16" height="16" viewBox="0 0 16 16" fill="none" xmlns="http://www.w3.org/2000/svg">
<path fill-rule="evenodd" clip-rule="evenodd" d="M14.1937 3H4.0953C3.78064 3 3.46689 3.2567 3.39439 3.5733L1.3678 12.4267C1.29542 12.7434 1.49167 13 1.80632 13H11.9046C12.2193 13 12.533 12.7434 12.6055 12.4267L14.6321 3.57318C14.7046 3.2567 14.5083 3 14.1937 3Z" fill="#1A85F6"/>
<path fill-rule="evenodd" clip-rule="evenodd" d="M9.499 8.16533C9.45673 8.25045 9.36901 8.34431 9.21389 8.45329L4.6556 11.727C4.40673 11.9078 4.04946 11.8408 3.85776 11.5772C3.66605 11.3135 3.7123 10.9533 3.96116 10.7724L8.07173 7.79579V7.73465L5.48901 4.98715C5.27832 4.76306 5.30026 4.40068 5.53798 4.17761C5.77571 3.95465 6.13912 3.95556 6.3498 4.17965L9.44878 7.47647C9.62469 7.66363 9.63775 7.94704 9.499 8.16533Z" fill="white"/>
<path fill-rule="evenodd" clip-rule="evenodd" d="M7.94966 10.6136H10.4057C10.6913 10.6136 10.9227 10.8426 10.9227 11.125C10.9227 11.4074 10.6913 11.6364 10.4057 11.6364H7.94966C7.66409 11.6364 7.43262 11.4074 7.43262 11.125C7.43262 10.8426 7.66409 10.6136 7.94966 10.6136Z" fill="white"/>
</svg>
