<svg width="16" height="16" viewBox="0 0 16 16" fill="none" xmlns="http://www.w3.org/2000/svg">
<path fill-rule="evenodd" clip-rule="evenodd" d="M3.21124 6.22018C3.59674 4.95028 4.912 3.85046 4.912 3.85046C4.99136 3.75975 3.85752 3.79376 2.93911 4.22462C2.17944 4.59879 0.444665 6.49231 0.501357 6.61703C0.532974 6.68658 0.804393 6.93247 1.08158 7.18357C1.30141 7.38272 1.52487 7.58515 1.6352 7.70551C1.68066 7.75422 1.75215 7.92196 1.8409 8.13016C2.06204 8.64897 2.39029 9.41905 2.68967 9.22486C2.83645 9.12889 2.87079 8.69844 2.91586 8.13364C2.96131 7.56405 3.01767 6.85781 3.21124 6.22018ZM11.088 3.85046C11.088 3.85046 12.4033 4.95028 12.7888 6.22018C12.9823 6.85781 13.0387 7.56405 13.0841 8.13364C13.1292 8.69844 13.1636 9.12889 13.3103 9.22486C13.6097 9.41905 13.938 8.64897 14.1591 8.13016C14.2478 7.92196 14.3193 7.75422 14.3648 7.70551C14.4751 7.58516 14.6986 7.38273 14.9184 7.18359L14.9184 7.18357L14.9184 7.18357C15.1956 6.93246 15.467 6.68658 15.4986 6.61703C15.5553 6.49231 13.8206 4.59879 13.0609 4.22462C12.1425 3.79376 11.0086 3.75975 11.088 3.85046ZM11.084 11.6561C11.9779 10.7726 12.5368 9.1807 12.5368 8.0243C12.5368 5.73196 10.2634 3.87366 7.97106 3.87366C5.67873 3.87366 3.40537 5.73196 3.40537 8.0243C3.40537 9.1807 3.96426 10.7726 4.85809 11.6561C5.05265 11.8484 5.30597 11.9723 5.59574 12.0514V10.8182C5.59574 10.4589 5.74447 10.1156 6.00662 9.86983L7.08193 8.86172C7.58199 8.39292 8.36012 8.39292 8.86018 8.86172L9.9355 9.86983C10.1976 10.1156 10.3464 10.4589 10.3464 10.8182V12.0596C10.632 11.9797 10.8843 11.8535 11.084 11.6561ZM9.74637 12.1639V10.8182C9.74637 10.6247 9.66629 10.4399 9.52513 10.3076L8.44981 9.29945C8.18055 9.04701 7.76156 9.04701 7.4923 9.29945L6.41698 10.3076C6.27583 10.4399 6.19574 10.6247 6.19574 10.8182V12.1549C6.60431 12.1938 7.04722 12.1869 7.48114 12.1801H7.48122H7.4813H7.48138H7.48147C7.64677 12.1775 7.81077 12.1749 7.97106 12.1749C8.14904 12.1749 8.33093 12.1787 8.51376 12.1826H8.51377H8.51378C8.93156 12.1913 9.35425 12.2001 9.74637 12.1639ZM11.6028 7.05071C11.6028 7.56649 11.1847 7.9846 10.6689 7.9846C10.1531 7.9846 9.73502 7.56649 9.73502 7.05071C9.73502 6.53494 10.1531 6.11682 10.6689 6.11682C11.1847 6.11682 11.6028 6.53494 11.6028 7.05071ZM5.27315 7.98448C5.78892 7.98448 6.20704 7.56636 6.20704 7.05059C6.20704 6.53481 5.78892 6.11669 5.27315 6.11669C4.75737 6.11669 4.33925 6.53481 4.33925 7.05059C4.33925 7.56636 4.75737 7.98448 5.27315 7.98448Z" fill="#B35DEF"/>
</svg>
