<svg width="16" height="16" viewBox="0 0 16 16" fill="none" xmlns="http://www.w3.org/2000/svg">
<path d="M13.812 2.71267C13.3927 1.06803 10.6657 0.527384 8.08469 1.44428C6.54872 1.98997 4.88592 2.84641 3.69032 3.96475C2.26876 5.29435 2.04207 6.45168 2.13551 6.93526C2.46511 8.64156 4.80311 9.75688 5.76418 10.5844V10.5894C5.48078 10.7289 3.40657 11.7786 2.9211 12.8518C2.4089 13.984 3.00264 14.7964 3.3957 14.9057C4.61361 15.2446 5.86339 14.6351 6.53502 13.6333C7.18312 12.6665 7.12921 11.4181 6.84753 10.7971C7.23604 10.6946 7.68906 10.6487 8.26472 10.7159C9.88913 10.9056 10.2078 11.9199 10.1469 12.3443C10.086 12.7689 9.74529 13.0023 9.63134 13.0727C9.51743 13.1432 9.48263 13.1676 9.49223 13.2199C9.50607 13.2961 9.55881 13.2933 9.6559 13.2768C9.78964 13.2543 10.5089 12.9315 10.5396 12.148C10.5788 11.1532 9.62543 10.0403 7.93738 10.0694C7.24217 10.0814 6.80503 10.1475 6.48927 10.265C6.46592 10.2384 6.44216 10.212 6.4176 10.1858C5.374 9.07235 3.44479 8.28474 3.5266 6.78795C3.55635 6.24379 3.74549 4.81087 7.23361 3.07274C10.091 1.64892 12.3784 2.04072 12.7737 2.90907C13.3384 4.1496 11.5512 6.45533 8.58386 6.78795C7.45331 6.91466 6.85799 6.47652 6.70992 6.31334C6.55404 6.14156 6.53078 6.1338 6.47259 6.16603C6.3778 6.21855 6.43788 6.37023 6.47259 6.46065C6.56121 6.69121 6.92475 7.1001 7.54459 7.30353C8.08987 7.48248 9.41723 7.58074 11.0225 6.95987C12.8204 6.26434 14.2244 4.32973 13.812 2.71267ZM6.16305 11.094C6.29774 11.5924 6.283 12.0571 6.14381 12.478C6.12835 12.5247 6.11135 12.5709 6.09287 12.6166C6.07434 12.6623 6.05438 12.7074 6.03287 12.752C5.92555 12.9746 5.78153 13.1831 5.60519 13.3754C5.06712 13.9624 4.31543 14.1843 3.9931 13.9974C3.64502 13.7956 3.81937 12.968 4.44318 12.3086C5.11427 11.5992 6.07984 11.1431 6.07984 11.1431L6.0784 11.1401C6.10612 11.1252 6.13439 11.1097 6.16305 11.094Z" fill="#CC6699"/>
</svg>
