<svg width="16" height="16" viewBox="0 0 16 16" fill="none" xmlns="http://www.w3.org/2000/svg">
<path fill-rule="evenodd" clip-rule="evenodd" d="M10.7336 1.64959C8.65693 2.24962 5.3624 2.58825 3.5874 2.58825V5.97783C3.58797 5.98949 3.59238 6.00063 3.59994 6.00952C4.81122 6.00952 8.55066 5.61346 10.8069 4.99297C11.2003 4.89282 11.5862 4.76466 11.9614 4.60946C12.2373 4.48536 12.4155 4.35466 12.4155 4.21868V0.800049C12.4129 1.12218 11.5739 1.40734 10.7336 1.64959ZM10.7334 6.04508C9.49044 6.40352 7.81313 6.67019 6.28501 6.82598C5.25923 6.93093 4.30077 6.98572 3.58721 6.98572V10.3727C3.58777 10.3843 3.59218 10.3955 3.59975 10.4044C4.81102 10.4044 8.55046 10.0083 10.8067 9.38846C11.2001 9.28802 11.5859 9.15986 11.9612 9.00495C12.2371 8.88019 12.4153 8.75015 12.4153 8.61417V5.19554C12.4127 5.51701 11.5737 5.80217 10.7334 6.04508ZM6.28492 11.2243C7.81304 11.0679 9.49034 10.8019 10.7333 10.4434C11.5736 10.1979 12.4126 9.91535 12.4126 9.59058V13.0092C12.4126 13.2931 11.6376 13.5545 10.8039 13.7842C8.54179 14.4073 4.78321 14.8 3.58447 14.8V11.3841C4.29804 11.3841 5.25781 11.3293 6.28492 11.2243Z" fill="#D93953"/>
</svg>
