<svg width="16" height="16" viewBox="0 0 16 16" fill="none" xmlns="http://www.w3.org/2000/svg">
<path d="M10.3373 12.8007C11.5943 11.2972 11.7422 9.74445 10.7686 6.86068C10.1524 5.03676 9.12953 3.63185 9.88128 2.49806C10.6823 1.29033 12.383 2.46109 10.9658 4.0755L11.2492 4.27268C12.9499 4.46986 13.7879 2.14067 12.5186 1.47518C9.1665 -0.274794 6.23344 3.0896 7.52744 6.98392C8.08201 8.6353 8.85841 10.3853 8.22989 11.7779C7.68765 12.9733 6.64013 13.6757 5.93767 13.7004C4.47114 13.7743 5.44472 10.4099 7.13308 9.57191C7.28096 9.49797 7.49047 9.39938 7.29329 9.1529C5.21057 8.91875 3.99051 9.88001 3.28806 11.2233C1.24231 15.1299 7.17005 16.5718 10.3373 12.8007Z" fill="#E2E2E2"/>
</svg>
