<svg width="16" height="16" viewBox="0 0 16 16" fill="none" xmlns="http://www.w3.org/2000/svg">
<path fill-rule="evenodd" clip-rule="evenodd" d="M2 4C2 2.89543 2.89543 2 4 2H12C13.1046 2 14 2.89543 14 4V12C14 13.1046 13.1046 14 12 14H4C2.89543 14 2 13.1046 2 12V4ZM5 4.8C5 4.51997 5 4.37996 5.0545 4.273C5.10243 4.17892 5.17892 4.10243 5.273 4.0545C5.37996 4 5.51997 4 5.8 4H6.2C6.48003 4 6.62004 4 6.727 4.0545C6.82108 4.10243 6.89757 4.17892 6.9455 4.273C7 4.37996 7 4.51997 7 4.8V5.2C7 5.48003 7 5.62004 6.9455 5.727C6.89757 5.82108 6.82108 5.89757 6.727 5.9455C6.62004 6 6.48003 6 6.2 6H5.8C5.51997 6 5.37996 6 5.273 5.9455C5.17892 5.89757 5.10243 5.82108 5.0545 5.727C5 5.62004 5 5.48003 5 5.2V4.8ZM5.0545 8.273C5 8.37996 5 8.51997 5 8.8V9.2C5 9.48003 5 9.62004 5.0545 9.727C5.10243 9.82108 5.17892 9.89757 5.273 9.9455C5.37996 10 5.51997 10 5.8 10H6.2C6.48003 10 6.62004 10 6.727 9.9455C6.82108 9.89757 6.89757 9.82108 6.9455 9.727C7 9.62004 7 9.48003 7 9.2V8.8C7 8.51997 7 8.37996 6.9455 8.273C6.89757 8.17892 6.82108 8.10243 6.727 8.0545C6.62004 8 6.48003 8 6.2 8H5.8C5.51997 8 5.37996 8 5.273 8.0545C5.17892 8.10243 5.10243 8.17892 5.0545 8.273ZM7 10.8C7 10.52 7 10.38 7.0545 10.273C7.10243 10.1789 7.17892 10.1024 7.273 10.0545C7.37996 10 7.51997 10 7.8 10H8.2C8.48003 10 8.62004 10 8.727 10.0545C8.82108 10.1024 8.89757 10.1789 8.9455 10.273C9 10.38 9 10.52 9 10.8V11.2C9 11.48 9 11.62 8.9455 11.727C8.89757 11.8211 8.82108 11.8976 8.727 11.9455C8.62004 12 8.48003 12 8.2 12H7.8C7.51997 12 7.37996 12 7.273 11.9455C7.17892 11.8976 7.10243 11.8211 7.0545 11.727C7 11.62 7 11.48 7 11.2V10.8ZM7.0545 6.273C7 6.37996 7 6.51997 7 6.8V7.2C7 7.48003 7 7.62004 7.0545 7.727C7.10243 7.82108 7.17892 7.89757 7.273 7.9455C7.37996 8 7.51997 8 7.8 8H8.2C8.48003 8 8.62004 8 8.727 7.9455C8.82108 7.89757 8.89757 7.82108 8.9455 7.727C9 7.62004 9 7.48003 9 7.2V6.8C9 6.51997 9 6.37996 8.9455 6.273C8.89757 6.17892 8.82108 6.10243 8.727 6.0545C8.62004 6 8.48003 6 8.2 6H7.8C7.51997 6 7.37996 6 7.273 6.0545C7.17892 6.10243 7.10243 6.17892 7.0545 6.273Z" fill="#3EA17F"/>
</svg>
