<svg width="16" height="16" viewBox="0 0 16 16" fill="none" xmlns="http://www.w3.org/2000/svg">
<path d="M7 6.5H9C9.27614 6.5 9.5 6.72386 9.5 7V15C9.5 15.2761 9.27614 15.5 9 15.5H7C6.72386 15.5 6.5 15.2761 6.5 15V7C6.5 6.72386 6.72386 6.5 7 6.5Z" stroke="#0D0D0D"/>
<path d="M13 6.5H3C2.72386 6.5 2.5 6.27614 2.5 6V2C2.5 1.72386 2.72386 1.5 3 1.5H10.6492C10.7628 1.5 10.8729 1.53864 10.9616 1.60957L13.3123 3.49019C13.431 3.58508 13.5 3.72873 13.5 3.88063V6C13.5 6.27614 13.2761 6.5 13 6.5Z" stroke="#0D0D0D"/>
</svg>
