<svg width="16" height="16" viewBox="0 0 16 16" fill="none" xmlns="http://www.w3.org/2000/svg">
<path fill-rule="evenodd" clip-rule="evenodd" d="M7 2C7 1.44772 6.55228 1 6 1H2V2H7ZM9 2C9 1.44772 9.44772 1 10 1H14V2H9ZM11.5 7.5V10.5C11.5 12.433 9.933 14 8 14C6.067 14 4.5 12.433 4.5 10.5V7.5C4.5 5.567 6.067 4 8 4C9.933 4 11.5 5.567 11.5 7.5ZM3.52746 7C3.77619 4.75003 5.68372 3 8 3C10.3163 3 12.2238 4.75003 12.4725 7H15V8H12.5V10.5C12.5 12.9853 10.4853 15 8 15C5.51472 15 3.5 12.9853 3.5 10.5V8H1V7H3.52746ZM14 10C14.5523 10 15 10.4477 15 11V15H14V10ZM1 11C1 10.4477 1.44772 10 2 10L2 15H1V11Z" fill="#0D0D0D"/>
</svg>
