<svg width="16" height="16" viewBox="0 0 16 16" fill="none" xmlns="http://www.w3.org/2000/svg">
<path fill-rule="evenodd" clip-rule="evenodd" d="M7.14285 2.85714C7.14285 2.38376 6.75909 2 6.2857 2H2.85713V2.85714H7.14285ZM8.85715 2.85714C8.85715 2.38376 9.24091 2 9.7143 2H13.1429V2.85714H8.85715ZM4.14285 7.99992H2V7.14277H4.16638C4.37955 5.2142 6.0146 3.71416 7.99999 3.71416C9.98538 3.71416 11.6204 5.2142 11.8336 7.14277H14V7.99992H11.8571V10.1427C11.8571 12.273 10.1302 13.9999 7.99999 13.9999C5.86975 13.9999 4.14285 12.273 4.14285 10.1427V7.99992ZM13.1429 9.71416C13.6162 9.71416 14 10.0979 14 10.5713V13.9999H13.1429L13.1429 9.71416ZM2 10.5713C2 10.0979 2.38376 9.71416 2.85714 9.71416L2.85714 13.9999H2V10.5713Z" fill="#3EA17F"/>
</svg>
