<svg width="16" height="16" viewBox="0 0 16 16" fill="none" xmlns="http://www.w3.org/2000/svg">
<path d="M4.85355 6.35355L4.5 6.70711L3.79289 6L4.14645 5.64645L4.85355 6.35355ZM8 2.5L7.64645 2.14645L8 1.79289L8.35355 2.14645L8 2.5ZM11.8536 5.64645L12.2071 6L11.5 6.70711L11.1464 6.35355L11.8536 5.64645ZM4.14645 5.64645L7.64645 2.14645L8.35355 2.85355L4.85355 6.35355L4.14645 5.64645ZM8.35355 2.14645L11.8536 5.64645L11.1464 6.35355L7.64645 2.85355L8.35355 2.14645Z" fill="#0D0D0D"/>
<path d="M4.85355 9.64645L4.5 9.29289L3.79289 10L4.14645 10.3536L4.85355 9.64645ZM8 13.5L7.64645 13.8536L8 14.2071L8.35355 13.8536L8 13.5ZM11.8536 10.3536L12.2071 10L11.5 9.29289L11.1464 9.64645L11.8536 10.3536ZM4.14645 10.3536L7.64645 13.8536L8.35355 13.1464L4.85355 9.64645L4.14645 10.3536ZM8.35355 13.8536L11.8536 10.3536L11.1464 9.64645L7.64645 13.1464L8.35355 13.8536Z" fill="#0D0D0D"/>
</svg>
