<svg width="16" height="16" viewBox="0 0 16 16" fill="none" xmlns="http://www.w3.org/2000/svg">
<path fill-rule="evenodd" clip-rule="evenodd" d="M7.99935 1.0001C4.13398 1.0001 1 4.13408 1 8.00031C1 11.093 3.00552 13.7165 5.78713 14.6426C6.13736 14.7066 6.26499 14.4904 6.26499 14.3048C6.26499 14.1389 6.25897 13.6985 6.25553 13.1145C4.30845 13.5373 3.89763 12.1759 3.89763 12.1759C3.57921 11.3676 3.12026 11.1523 3.12026 11.1523C2.4847 10.7179 3.16839 10.7265 3.16839 10.7265C3.87099 10.7763 4.24055 11.448 4.24055 11.448C4.86494 12.5176 5.87909 12.2086 6.27788 12.0298C6.34148 11.5773 6.52196 11.2688 6.72221 11.0939C5.1679 10.9173 3.53366 10.3165 3.53366 7.63419C3.53366 6.87014 3.80653 6.24532 4.2543 5.75586C4.18211 5.57881 3.9419 4.86719 4.32263 3.90332C4.32263 3.90332 4.91049 3.7151 6.2478 4.62096C6.80601 4.46583 7.40505 4.38805 8.00021 4.38547C8.59452 4.38805 9.19356 4.46583 9.75263 4.62096C11.0891 3.7151 11.6756 3.90332 11.6756 3.90332C12.0577 4.86719 11.8175 5.57881 11.7453 5.75586C12.1939 6.24532 12.4651 6.87014 12.4651 7.63419C12.4651 10.3234 10.8282 10.9151 9.26876 11.0883C9.52015 11.3045 9.74404 11.7316 9.74404 12.3848C9.74404 13.3203 9.73544 14.0753 9.73544 14.3048C9.73544 14.4922 9.86135 14.71 10.2167 14.6417C12.9962 13.7139 15 11.0922 15 8.00031C15 4.13408 11.8656 1.0001 7.99935 1.0001Z" fill="#1B1817"/>
</svg>
