<svg width="16" height="16" viewBox="0 0 16 16" fill="none" xmlns="http://www.w3.org/2000/svg">
<rect x="9.48438" y="5.94922" width="1" height="5" transform="rotate(45 9.48438 5.94922)" fill="#0D0D0D"/>
<path fill-rule="evenodd" clip-rule="evenodd" d="M7.15143 5.0302L8.42427 3.75736C9.47868 2.70295 11.1882 2.70295 12.2426 3.75736C13.2971 4.81178 13.2971 6.52133 12.2426 7.57574L10.9698 8.84858L11.6769 9.55569L12.9498 8.28285C14.3947 6.83791 14.3947 4.4952 12.9498 3.05026C11.5048 1.60532 9.1621 1.60532 7.71716 3.05026L6.44432 4.3231L7.15143 5.0302ZM5.03011 7.15152L4.323 6.44442L3.05026 7.71716C1.60532 9.1621 1.60532 11.5048 3.05026 12.9498C4.4952 14.3947 6.83791 14.3947 8.28285 12.9498L9.55559 11.677L8.84849 10.9699L7.57574 12.2426C6.52133 13.2971 4.81178 13.2971 3.75736 12.2426C2.70295 11.1882 2.70295 9.47868 3.75736 8.42427L5.03011 7.15152Z" fill="#0D0D0D"/>
</svg>
