<svg width="16" height="16" viewBox="0 0 16 16" fill="none" xmlns="http://www.w3.org/2000/svg">
<circle cx="3.75" cy="12" r="2" stroke="#0D0D0D"/>
<circle cx="3.75" cy="4" r="2" stroke="#0D0D0D"/>
<path d="M3.75 6L3.75 10" stroke="#0D0D0D"/>
<circle cx="12.25" cy="12" r="2" stroke="#0D0D0D"/>
<path d="M11.75 5.6L11.75 10L12.75 10L12.75 5.6L11.75 5.6ZM10.65 3.5L8 3.5L8 4.5L10.65 4.5L10.65 3.5ZM12.75 5.6C12.75 4.4402 11.8098 3.5 10.65 3.5L10.65 4.5C11.2575 4.5 11.75 4.99249 11.75 5.6L12.75 5.6Z" fill="#0D0D0D"/>
<path d="M7.75 4L7.39645 3.64645L7.04289 4L7.39645 4.35355L7.75 4ZM9.39645 6.35355C9.59171 6.54882 9.90829 6.54882 10.1036 6.35355C10.2988 6.15829 10.2988 5.84171 10.1036 5.64645L9.39645 6.35355ZM10.1036 2.35355C10.2988 2.15829 10.2988 1.84171 10.1036 1.64645C9.90829 1.45118 9.59171 1.45118 9.39645 1.64645L10.1036 2.35355ZM7.39645 4.35355L9.39645 6.35355L10.1036 5.64645L8.10355 3.64645L7.39645 4.35355ZM8.10355 4.35355L10.1036 2.35355L9.39645 1.64645L7.39645 3.64645L8.10355 4.35355Z" fill="#0D0D0D"/>
</svg>
