<svg width="16" height="16" viewBox="0 0 16 16" fill="none" xmlns="http://www.w3.org/2000/svg">
<path d="M6.58579 13.5H9.41421C9.34033 13.709 9.22036 13.901 9.06066 14.0607C8.77936 14.342 8.39782 14.5 8 14.5C7.60218 14.5 7.22064 14.342 6.93934 14.0607C6.77964 13.901 6.65967 13.709 6.58579 13.5Z" stroke="#181818"/>
<path fill-rule="evenodd" clip-rule="evenodd" d="M12.0272 6.73385L13.1907 11H7.74478L6.74097 12H13.1907C13.85 12 14.3289 11.373 14.1554 10.7369L12.8422 5.92186L12.0272 6.73385ZM4.91097 11H2.80916L4.54376 4.63979C4.96882 3.08124 6.38443 2 7.99991 2C9.57219 2 10.9551 3.02418 11.4198 4.51579L12.1967 3.74187C11.4756 2.09548 9.83899 1 7.99991 1C5.93348 1 4.12271 2.38306 3.579 4.37667L1.8444 10.7369C1.6709 11.373 2.14979 12 2.80916 12H3.90716L4.91097 11Z" fill="#181818"/>
<path d="M1.35645 14.4221L14.4326 1.39551" stroke="#181818"/>
</svg>
