<svg width="16" height="16" viewBox="0 0 16 16" fill="none" xmlns="http://www.w3.org/2000/svg">
<g clip-path="url(#clip0_11655_91614)">
<path fill-rule="evenodd" clip-rule="evenodd" d="M2 10L2 3C2 2.44772 2.44771 2 3 2L13 2C13.5523 2 14 2.44771 14 3L14 10L2 10ZM2 11L2 13C2 13.5523 2.44772 14 3 14L13 14C13.5523 14 14 13.5523 14 13L14 11L2 11ZM3 15C1.89543 15 1 14.1046 1 13L0.999999 3C0.999999 1.89543 1.89543 1 3 1L13 0.999999C14.1046 0.999999 15 1.89543 15 3L15 13C15 14.1046 14.1046 15 13 15L3 15Z" fill="#0D0D0D"/>
</g>
<path d="M12.625 10.5L11.625 14.5" stroke="#0D0D0D"/>
<path d="M9.875 10.5L8.875 14.5" stroke="#0D0D0D"/>
<path d="M7.125 10.5L6.125 14.5" stroke="#0D0D0D"/>
<path d="M4.375 10.5L3.375 14.5" stroke="#0D0D0D"/>
<defs>
<clipPath id="clip0_11655_91614">
<rect width="16" height="16" fill="white"/>
</clipPath>
</defs>
</svg>
