<svg width="16" height="16" viewBox="0 0 16 16" fill="none" xmlns="http://www.w3.org/2000/svg">
<path fill-rule="evenodd" clip-rule="evenodd" d="M9.79293 3.29297L10.1465 3.64652L13.6465 7.14652L14 7.50008L13.6465 7.85363L10.1465 11.3536L9.79293 11.7072L9.08582 11.0001L9.43938 10.6465L12.0857 8.00024L5.50293 8.00024L5.00293 8.00024L5.00293 8C3.89836 8 3.00293 8.89543 3.00293 10C3.00293 11.1046 3.89836 12 5.00293 12L5.00293 13C3.34608 13 2.00293 11.6569 2.00293 10C2.00293 8.34315 3.34608 7 5.00293 7L5.00293 7.00024L5.50293 7.00024L12.086 7.00024L9.43938 4.35363L9.08582 4.00007L9.79293 3.29297Z" fill="#0D0D0D"/>
</svg>
