<svg width="16" height="16" viewBox="0 0 16 16" fill="none" xmlns="http://www.w3.org/2000/svg">
<path fill-rule="evenodd" clip-rule="evenodd" d="M8 14.5C11.5899 14.5 14.5 11.5899 14.5 8C14.5 4.41015 11.5899 1.5 8 1.5C4.41015 1.5 1.5 4.41015 1.5 8C1.5 11.5899 4.41015 14.5 8 14.5Z" fill="#3EA17F"/>
<path d="M6.99407 10.1458L6.345 10.7692L7.00756 11.459L7.65581 10.7558L6.99407 10.1458ZM11.6617 6.41005L12.2717 5.74831L10.9483 4.52831L10.3383 5.19005L11.6617 6.41005ZM5.64906 7.44637L5.02559 6.79731L3.72747 8.04425L4.35094 8.69332L5.64906 7.44637ZM7.65581 10.7558L11.6617 6.41005L10.3383 5.19005L6.33233 9.53577L7.65581 10.7558ZM4.35094 8.69332L6.345 10.7692L7.64313 9.52229L5.64906 7.44637L4.35094 8.69332Z" fill="white"/>
</svg>
