<svg width="16" height="16" viewBox="0 0 16 16" fill="none" xmlns="http://www.w3.org/2000/svg">
<path fill-rule="evenodd" clip-rule="evenodd" d="M14 4H13V6L11 6V7H13V9H14V7H16V6L14 6V4Z" fill="#0D0D0D"/>
<g clip-path="url(#clip0_11682_29866)">
<mask id="path-2-inside-1_11682_29866" fill="white">
<path d="M6.5 8.87491C3.73427 8.87491 1.43475 10.7379 0.963413 13.1927C0.865781 13.7012 1.29473 14.1249 1.8125 14.1249H11.1875C11.7053 14.1249 12.1342 13.7012 12.0366 13.1927C11.5653 10.7379 9.26573 8.87491 6.5 8.87491Z"/>
</mask>
<path d="M12.0366 13.1928L13.0186 13.0042L12.0366 13.1928ZM1.94547 13.3813C2.31907 11.4356 4.17404 9.875 6.5 9.875V7.875C3.2945 7.875 0.550418 10.0404 -0.0186514 13.0042L1.94547 13.3813ZM6.5 9.875C8.82595 9.875 10.6809 11.4356 11.0545 13.3813L13.0186 13.0042C12.4496 10.0404 9.70549 7.875 6.5 7.875V9.875ZM11.1875 13.125H1.8125V15.125H11.1875V13.125ZM11.0545 13.3813C11.0478 13.3462 11.0489 13.3013 11.063 13.2561C11.0764 13.2131 11.0973 13.1826 11.1151 13.1637C11.1477 13.1291 11.1759 13.125 11.1875 13.125V15.125C12.193 15.125 13.2597 14.2598 13.0186 13.0042L11.0545 13.3813ZM-0.0186514 13.0042C-0.25973 14.2598 0.807008 15.125 1.8125 15.125V13.125C1.82406 13.125 1.85227 13.1291 1.8849 13.1637C1.90271 13.1826 1.92364 13.2131 1.93701 13.2561C1.95107 13.3013 1.95221 13.3462 1.94547 13.3813L-0.0186514 13.0042Z" fill="#0D0D0D" mask="url(#path-2-inside-1_11682_29866)"/>
<circle cx="6.5" cy="4.75" r="2.3125" stroke="#0D0D0D"/>
</g>
<defs>
<clipPath id="clip0_11682_29866">
<rect width="15" height="15" fill="white" transform="translate(-1 1)"/>
</clipPath>
</defs>
</svg>
