<svg width="16" height="16" viewBox="0 0 16 16" fill="none" xmlns="http://www.w3.org/2000/svg">
<mask id="path-1-inside-1_11677_29951" fill="white">
<path d="M7.99991 8.3999C5.04981 8.3999 2.59698 10.3871 2.09422 13.0055C1.99008 13.5479 2.44763 13.9999 2.99991 13.9999H12.9999C13.5522 13.9999 14.0097 13.5479 13.9056 13.0055C13.4028 10.3871 10.95 8.3999 7.99991 8.3999Z"/>
</mask>
<path d="M13.9056 13.0055L12.9235 13.1941L13.9056 13.0055ZM3.07628 13.1941C3.48131 11.0847 5.48958 9.3999 7.99992 9.3999V7.3999C4.61003 7.3999 1.71265 9.68952 1.11216 12.817L3.07628 13.1941ZM7.99992 9.3999C10.5103 9.3999 12.5185 11.0847 12.9235 13.1941L14.8877 12.817C14.2872 9.68952 11.3898 7.3999 7.99992 7.3999V9.3999ZM12.9999 12.9999H2.99991V14.9999H12.9999V12.9999ZM12.9235 13.1941C12.9184 13.1675 12.919 13.1307 12.9308 13.0929C12.9418 13.0573 12.9587 13.0335 12.9712 13.0202C12.9932 12.9969 13.0056 12.9999 12.9999 12.9999V14.9999C14.0399 14.9999 15.1353 14.1064 14.8877 12.817L12.9235 13.1941ZM1.11216 12.817C0.864574 14.1064 1.95991 14.9999 2.99991 14.9999V12.9999C2.99422 12.9999 3.00665 12.9969 3.02863 13.0202C3.04112 13.0335 3.058 13.0573 3.06907 13.0929C3.08082 13.1307 3.0814 13.1675 3.07628 13.1941L1.11216 12.817Z" fill="black" mask="url(#path-1-inside-1_11677_29951)"/>
<circle cx="8" cy="4" r="2.5" stroke="black"/>
</svg>
